<?xml version="1.0" encoding="UTF-8"?>
<svg id="svg1" xmlns="http://www.w3.org/2000/svg" viewBox="0 0 1633 382">
  <defs>
    <style>
      .cls-1 {
        fill-rule: evenodd;
      }

      .cls-1, .cls-2 {
        fill: #535353;
        stroke-width: 0px;
      }
    </style>
  </defs>
  <g id="g1">
    <g>
      <path class="cls-1" d="M1541.9,290.83v64.82h64.59v-64.82h-64.59ZM1119.08,290.83v64.82h64.59v-64.82h-64.59ZM603.45,290.83v64.82h64.59v-64.82h-64.59ZM1515.39,264.47h94.84v22.8h22.77v71.94h-22.77v22.79h-94.84v-117.53ZM1374.45,264.47h26.51v22.8h22.78v22.79h22.77v22.79h19.04v-68.38h26.51v117.53h-26.51v-22.79h-22.77v-22.8h-22.78v-22.79h-19.04v68.38h-26.51v-117.53ZM1233.51,264.47h26.51v91.18h64.59v-91.18h26.51v117.53h-117.61v-117.53ZM1092.57,264.47h117.61v117.53h-117.61v-117.53ZM951.63,264.47h117.61v26.36h-91.1v19.23h68.33v26.35h-68.33v45.59h-26.51v-117.53ZM717.88,264.47h117.61v26.36h-45.55v91.17h-26.51v-91.17h-45.55v-26.36ZM576.94,264.47h117.61v117.53h-117.61v-117.53ZM436,264.47h26.51v22.8h22.77v22.79h22.78v22.79h19.04v-68.38h26.51v117.53h-26.51v-22.79h-22.78v-22.8h-22.77v-22.79h-19.04v68.38h-26.51v-117.53ZM555.32,36.24v64.82h64.59V36.24h-64.59ZM1443.21,9.88h26.51v91.17h68.32v26.36h-94.83V9.88ZM1326.33,9.88h26.51v91.17h68.32v26.36h-94.83V9.88ZM1185.39,9.88h26.51v91.17h64.58V9.88h26.51v117.53h-117.6V9.88ZM1044.45,9.88h26.51v22.79h22.77v22.79h22.78v22.79h19.03V9.88h26.51v117.53h-26.51v-22.79h-22.77v-22.8h-22.77v-22.79h-19.04v68.38h-26.51V9.88ZM810.69,9.88h26.51v45.59h22.78v45.59h19.04v-45.59h22.77V9.88h26.51v49.15h-22.77v45.59h-22.78v22.79h-26.51v-22.79h-22.77v-45.59h-22.78V9.88ZM669.75,9.88h117.61v26.35h-91.1v19.23h68.33v26.35h-68.33v19.23h91.1v26.36h-117.61V9.88ZM528.81,9.88h94.84v22.79h22.77v71.94h-22.77v22.79h-94.84V9.88ZM1021.2,0h17.35l-64.23,165.69h-17.53L1021.2,0ZM505.57,0h17.34l-64.22,165.69h-17.53L505.57,0Z"/>
      <g>
        <path class="cls-2" d="M0,0h224.54v30.74H0V0Z"/>
        <path class="cls-2" d="M224.54,30.74h30.82v30.74h-30.82v-30.74Z"/>
        <path class="cls-2" d="M162.9,0h30.82v153.68h-30.82V0Z"/>
        <path class="cls-2" d="M48.43,122.95v-30.74h92.46v30.74H48.43Z"/>
        <path class="cls-2" d="M48.43,92.21h30.82v61.47h-30.82v-61.47Z"/>
        <path class="cls-2" d="M79.25,245.88h30.82v30.74h-30.82v-30.74Z"/>
        <path class="cls-2" d="M206.93,245.88h30.82v30.74h-30.82v-30.74Z"/>
        <path class="cls-2" d="M110.07,276.53h96.91v30.74h-96.91v-30.74Z"/>
        <path class="cls-2" d="M162.9,153.68v-30.74h154.1v30.74h-154.1Z"/>
        <path class="cls-2" d="M255.36,61.47h30.82v30.74h-30.82v-30.74Z"/>
        <path class="cls-2" d="M0,351.27h317v30.73H0v-30.73Z"/>
        <path class="cls-2" d="M0,382V0h30.82v382H0Z"/>
        <path class="cls-2" d="M286.18,382V92.2h30.82v289.79h-30.82Z"/>
      </g>
    </g>
  </g>
</svg>