<?xml version="1.0" encoding="UTF-8" standalone="no"?>
<!-- Created with Inkscape (http://www.inkscape.org/) -->

<svg
   width="210mm"
   height="175.84758mm"
   viewBox="0 0 210 175.84758"
   version="1.1"
   id="svg5"
   xmlns="http://www.w3.org/2000/svg"
   xmlns:svg="http://www.w3.org/2000/svg"
   xmlns:rdf="http://www.w3.org/1999/02/22-rdf-syntax-ns#"
   xmlns:cc="http://creativecommons.org/ns#"
   xmlns:dc="http://purl.org/dc/elements/1.1/">
  <title
     id="title9024">Undefined States of Null Island</title>
  <defs
     id="defs2" />
  <path
     style="fill:#4d4d4d;stroke-width:3.96703;stroke-linecap:square;stroke-linejoin:bevel;paint-order:markers fill stroke"
     d="m 124.60015,92.210909 v 0.0016 c 1.7e-4,-5.18e-4 3.4e-4,-0.0011 5.1e-4,-0.0016 z"
     id="path15827" />
  <metadata
     id="metadata9022">
    <rdf:RDF>
      <cc:License
         rdf:about="http://creativecommons.org/publicdomain/zero/1.0/">
        <cc:permits
           rdf:resource="http://creativecommons.org/ns#Reproduction" />
        <cc:permits
           rdf:resource="http://creativecommons.org/ns#Distribution" />
        <cc:permits
           rdf:resource="http://creativecommons.org/ns#DerivativeWorks" />
      </cc:License>
      <cc:Work
         rdf:about="">
        <cc:license
           rdf:resource="http://creativecommons.org/publicdomain/zero/1.0/" />
        <dc:title>Undefined States of Null Island</dc:title>
        <dc:creator>
          <cc:Agent>
            <dc:title>yetzt</dc:title>
          </cc:Agent>
        </dc:creator>
      </cc:Work>
    </rdf:RDF>
  </metadata>
  <path
     style="fill:#612413;fill-opacity:1;stroke-width:3.96703;stroke-linecap:square;stroke-linejoin:bevel;paint-order:markers fill stroke"
     d="m 81.805688,105.95905 v 0.002 c 1.7e-4,-5.2e-4 3.4e-4,-0.001 5.2e-4,-0.002 z"
     id="path12542" />
  <path
     style="fill:#612413;fill-opacity:1;stroke-width:3.96703;stroke-linecap:square;stroke-linejoin:bevel;paint-order:markers fill stroke"
     d="m 124.60018,92.21091 v 0.002 c 1.7e-4,-5.2e-4 3.4e-4,-10e-4 5.1e-4,-0.002 z"
     id="path12536" />
  <g
     id="layer1"
     style="display:inline">
    <path
       id="path3219"
       style="fill:#2e63e2;fill-opacity:1;stroke-width:1.64142;stroke-linecap:square;stroke-linejoin:bevel;paint-order:markers fill stroke"
       d="m 71.238029,62.303691 v 5.925736 l 1.100191,1.100191 h 1.986959 l 1.100191,-1.100191 v -5.925736 h -1.330668 v 5.313887 L 73.71333,67.99895 h -0.763261 l -0.381372,-0.381372 v -5.313887 z m 5.074109,0 v 7.025927 h 1.330668 v -3.450952 l 1.526005,3.450952 h 1.303796 v -7.025927 h -1.330668 v 3.442167 l -1.516703,-3.442167 z m 5.047754,0 v 7.025927 h 3.086633 l 1.100191,-1.100191 v -4.825545 l -1.100191,-1.100191 z m 5.074109,0 v 7.025927 h 4.186824 V 67.99895 h -2.856156 v -1.51722 h 1.330151 v -1.330151 h -1.330151 v -1.51722 h 2.856156 v -1.330668 z m 5.074109,0 v 7.025927 h 1.330668 V 66.48173 h 1.090889 v -1.330151 h -1.090889 v -1.51722 h 2.199865 v -1.330668 z m 4.417301,0 v 7.025927 h 1.330668 v -7.025927 z m 2.217952,0 v 7.025927 h 1.330669 v -3.450952 l 1.525488,3.450952 h 1.30431 v -7.025927 h -1.33067 v 3.442167 l -1.517215,-3.442167 z m 5.047237,0 v 7.025927 h 4.18734 V 67.99895 h -2.85667 v -1.51722 h 1.33067 v -1.330151 h -1.33067 v -1.51722 h 2.85667 v -1.330668 z m 5.07411,0 v 7.025927 h 3.08715 l 1.10019,-1.100191 v -4.825545 l -1.10019,-1.100191 z m 8.39174,0 -1.09968,1.100191 v 1.969389 l 1.10898,1.108459 h 1.36581 l 0.39067,0.381889 v 0.753959 l -0.39067,0.381372 h -0.76275 l -0.38137,-0.381372 v -0.505912 h -1.33067 v 1.117761 l 1.09968,1.100191 h 1.98747 l 1.09968,-1.100191 v -1.978174 l -1.09968,-1.099674 h -1.37511 l -0.38137,-0.390674 v -0.745174 l 0.38137,-0.381372 h 0.76275 l 0.39067,0.372587 v 0.505912 h 1.32137 v -1.108976 l -1.09968,-1.100191 z m 3.97443,0 v 1.330668 h 1.24178 v 5.695259 h 1.33067 v -5.695259 h 1.233 v -1.330668 z m 4.86999,0 -1.39268,7.025927 h 1.34823 l 0.0977,-0.487825 h 1.29501 l 0.0889,0.487825 h 1.36581 l -1.39268,-7.025927 z m 2.47478,0 v 1.330668 h 1.2423 v 5.695259 h 1.33067 v -5.695259 h 1.233 v -1.330668 z m 4.69274,0 v 7.025927 h 4.18734 V 67.99895 h -2.85667 v -1.51722 h 1.33066 v -1.330151 h -1.33066 v -1.51722 h 2.85667 v -1.330668 z m 6.1743,0 -1.10019,1.100191 v 1.969389 l 1.10897,1.108459 h 1.36633 l 0.39015,0.381889 v 0.753959 l -0.39015,0.381372 h -0.76326 l -0.38138,-0.381372 v -0.505912 h -1.33066 v 1.117761 l 1.10019,1.100191 h 1.98696 l 1.10019,-1.100191 v -1.978174 l -1.10019,-1.099674 h -1.37511 l -0.38138,-0.390674 v -0.745174 l 0.38138,-0.381372 h 0.76326 l 0.39015,0.372587 v 0.505912 h 1.32189 v -1.108976 l -1.10019,-1.100191 z m -56.15213,1.330668 h 1.144116 l 0.381372,0.381372 v 3.601847 L 83.834676,67.99895 H 82.69056 Z m 26.90482,0 h 1.14463 l 0.38137,0.381372 v 3.601847 l -0.38137,0.381372 h -1.14463 z m 16.60622,1.960604 0.38137,1.924947 h -0.76274 z m -75.408318,8.11475 c -0.267741,0.01436 -0.578911,0.07747 -0.939994,0.19792 -2.086572,0.239588 -4.671459,-0.469978 -6.461105,0.335381 0.298672,2.434365 -0.595157,5.259048 0.437183,7.453291 1.124775,1.574745 0.384627,2.565487 0.694531,4.173906 -0.373114,2.881574 0.004,6.05789 -0.23151,8.906433 0.107942,0.0131 0.181992,0.05427 0.241329,0.106453 0.01679,0.05249 0.04713,0.09383 0.07958,0.09663 0.336711,0.663291 -1.29784,2.648834 -2.621029,1.697571 -0.745477,-0.228779 -0.683496,-0.664757 -0.298173,-1.826245 -0.196385,-0.521194 0.05081,-2.371044 0.128674,-3.651974 0.283395,-3.14465 -0.176085,-6.413813 0.077,-9.316227 1.799081,-1.206719 0.225893,-3.94029 0.823206,-5.635315 0.593213,-2.575798 -1.708304,-2.606516 -3.813204,-2.339909 h -4.958871 c -0.558792,2.421326 -0.06374,5.171083 -0.23151,7.714258 1.727344,0.278033 2.13583,1.3427 1.800923,3.75481 -0.135582,4.668965 -0.271254,9.326209 0,13.984159 0.821787,0.500877 2.804043,5.722755 3.189987,3.018425 -0.168303,1.42841 0.392029,2.72957 2.366263,2.27325 1.829914,-0.75569 4.859983,0.77619 6.271969,-0.77567 1.016525,-1.82684 2.909621,-3.06293 3.246314,-5.186765 -0.02697,-3.116756 0.141106,-6.554498 -0.128675,-9.614917 -1.33591,-0.210931 -2.028719,0.470313 -0.900203,-0.894519 1.139526,1.618163 1.24202,-2.271654 0.411344,-2.310453 1.69637,0.417892 -0.620706,-3.921561 1.46141,-3.91294 1.850244,-0.08856 0.60629,-3.096494 0.802535,-4.397664 0.171349,-1.666079 0.42621,-3.950409 -1.447974,-3.849894 z m 129.760558,0.077 c -0.5346,-4.15e-4 -1.08439,0.105326 -1.53944,0.292488 -1.64048,-0.2445 -2.87786,-0.101023 -4.45038,0.03721 -1.08549,0.0908 -0.70919,3.132342 -0.56689,4.359941 -1.02655,2.275615 0.63965,3.234856 1.67225,3.838525 -0.58768,0.754999 1.02937,3.517951 0.23099,2.459282 -0.81193,-0.008 0.14153,4.42656 -0.51418,3.764111 -1.14895,-1.627128 -1.11048,-4.172221 -2.44377,-5.627047 -0.53336,1.436776 0.17098,-2.150558 -0.90072,-3.018937 -0.82427,-1.998405 -1.38391,-3.849477 -2.23811,-5.775875 -1.74856,-0.546619 -2.97048,0.29227 -4.7439,0 -3.40267,-0.635709 -1.89389,3.554479 -2.26239,5.170744 -0.0211,1.347549 -0.50507,5.589495 1.37304,4.721159 0.18997,3.668683 0.16607,7.582102 0,11.349695 0.23792,0.961899 -0.22634,2.564962 -0.77153,1.304313 -1.26562,1.038059 -0.094,3.544798 -0.54053,5.183668 -0.275,1.40472 -0.10241,3.77139 1.15807,2.64222 -0.0227,0.47006 0.42571,0.20458 0.69298,0.27285 h 5.1e-4 c 0.94589,0.11937 4.38906,-0.0843 3.0887,-0.34727 0.36923,-1.57592 -0.26248,0.37365 -1.15703,-0.52141 -0.59403,-1.16146 0.53494,-0.1489 0.97668,-0.48473 -0.27592,-1.02696 -1.46376,-1.27999 -2.70061,-1.30431 -1.38481,-1.46551 1.03531,-2.788299 0.64337,-3.764118 1.03611,1.990628 0.38563,-3.051342 0.56586,-4.048848 -0.60789,-1.276279 0.34,-2.799801 0,-5.089095 -0.18521,-2.152748 0.3627,-4.533847 -0.25735,-6.551022 -0.29062,-0.164904 -0.70041,-0.429718 -1.11466,-0.853694 0.0685,-0.14598 -0.82466,-2.694932 0.62529,-2.668571 -1.11974,-2.456645 2.79573,-3.70013 3.73,-1.545642 0.87459,1.776175 1.21773,3.583118 2.18695,5.291666 0.19824,-0.26027 0.84796,1.671004 0.74569,1.975073 0.75215,2.546368 1.88365,5.036516 2.90731,7.564913 1.01863,0.52619 0.0913,1.640089 1.02888,2.720765 0.54614,2.761707 1.53543,2.6569 1.13172,-0.318327 0.30909,-1.775675 -0.51627,-4.003407 0.18035,-5.234306 -0.80814,-2.396375 0.82349,-5.616792 -0.97772,-7.56543 -0.49525,-3.005747 -0.10977,-0.2077 0.61753,0 1.13751,-2.169208 -1.16712,-2.343959 -1.28622,-4.078304 -1.19944,-2.447447 2.23478,-0.675872 3.06079,-1.437121 1.56426,-0.33066 2.39174,0.63534 1.85208,2.236039 -2.19416,0.406606 -1.28313,3.050883 -1.46657,4.947501 0.19805,2.122385 -0.23411,4.445391 0.23202,6.344316 1.40234,-0.991986 -0.64697,0.492009 -0.23151,2.119767 -0.63529,1.467959 0.91241,3.302 0.30903,2.612761 -1.06708,1.890698 0.80063,2.832196 -0.30954,4.173905 0.54016,1.114392 0.71469,2.162992 0.23202,3.167772 -1.2711,0.21734 -1.15617,0.10179 -2.93315,-0.18655 -0.78014,-0.54077 -1.83552,-2.766212 -1.74873,-3.241671 -0.23979,-1.891968 -2.24549,-3.339737 -1.62057,-4.405933 -1.47133,-3.085317 -2.54676,-6.287633 -3.78168,-9.382889 -0.26234,-2.298375 -1.84896,-3.200201 -0.79737,-0.260966 0.57515,1.264048 -0.26502,1.357055 -0.33331,0.03721 0.0183,2.693957 -0.0218,5.60205 -0.002,8.049637 0.13687,1.235899 -0.1637,3.074859 5.1e-4,4.695838 1.38357,-0.1373 -1.2544,1.732445 0.95137,1.862935 0.0612,-1.630338 1.46298,0.585555 0.84904,1.416449 0.46201,1.20461 -1.06231,-0.900346 -0.18035,0.70797 -1.55542,1.11136 -1.77112,0.58157 -0.95136,2.58796 0.91161,-0.90006 0.5193,0.1489 1.10277,0.42374 1.95765,1.30383 1.2552,-2.67624 1.31568,-4.09225 0.66308,-2.24515 -0.46992,-3.177392 -1.62057,-4.144972 0.52554,-1.154418 -0.57917,-5.295974 0.6687,-4.054016 1.12296,4.069673 3.01368,7.915248 4.2447,12.037508 0.68851,0.4935 1.55227,0.65247 2.48718,0.67645 1.55818,0.04 3.31343,-0.29501 4.78007,-0.0806 -0.20182,-1.1693 -1.99118,-2.41405 -0.15813,-2.74867 0.67355,-0.47022 0.91798,-3.540314 -0.0765,-5.561417 -0.66045,-0.50981 -2.16767,-2.85088 -0.49867,-1.751831 -0.62446,-1.347379 0.40103,-3.097822 -0.43719,-4.359941 0.41964,-1.473565 0.0318,-2.542492 0.46302,-3.98787 0.3342,-1.693169 -0.98375,-4.631268 1.31207,-4.732528 0.10253,-1.851978 -0.0682,-3.383195 0.15451,-5.308203 0.67335,-1.814864 -0.59286,-2.510932 -1.95905,-2.511991 z m -162.364253,0.0031 c -1.558172,-0.03996 -3.312909,0.294998 -4.779553,0.08061 -2.411172,0.303037 1.104264,4.394352 -0.527099,2.608627 0.135963,0.644642 -1.544659,6.149409 1.142565,5.701461 0.268104,1.643447 1.697016,2.14445 0.143661,1.900659 0.296416,1.375394 0.0757,3.303952 0.182418,4.515486 0.198925,1.559053 -0.103251,2.47617 -0.234094,4.063835 0.116508,2.077987 0.31119,4.060026 -1.312065,4.733044 -0.05444,1.761993 -0.0057,3.373305 -0.153996,5.308205 -0.881041,2.68377 2.475634,1.94108 3.678329,2.0252 1.693439,-0.11296 2.859123,-0.11433 4.347538,-0.11214 1.167537,-0.6905 0.33767,-3.37218 0.643371,-4.732528 0.949584,-2.623811 -1.338777,-2.649916 -1.826761,-3.838525 0.70494,-0.736813 -1.391586,-3.59438 -0.02584,-2.01228 0.469964,-0.933649 -0.486603,-5.244252 0.540536,-3.614767 0.865482,1.574948 0.994067,3.95182 2.212268,5.291667 0.533535,-1.437395 -0.172214,2.150243 0.900203,3.01842 0.591813,1.132159 0.962498,3.540313 1.775086,3.577563 -0.709727,0.85141 0.805765,3.26678 2.160591,2.19883 1.133152,-0.27023 4.395481,0.98202 3.936194,-1.47794 0.05428,-1.87801 -0.257739,-3.744004 0,-5.490628 -0.335913,-1.503682 0.1369,-3.524649 0,-5.25446 -0.39726,-3.162252 0.03372,-6.648258 0,-9.764261 -0.0856,-2.293991 0.891771,0.565769 1.312065,-1.312065 -0.156305,-2.372796 0.192856,-4.947361 -0.103353,-7.296196 -1.555357,-0.242673 -0.231068,0.695005 -1.74718,-0.04909 -1.09459,0.190052 -4.036515,-0.295601 -3.217375,0.608231 -0.762823,1.706834 0.987759,-0.591017 2.032434,0.148829 1.366056,1.502976 -2.98207,-0.637504 -1.389579,1.155485 0.189884,0.684024 2.208625,0.4779 2.726965,1.192175 0.286653,1.440716 -1.478161,3.933908 -1.260388,2.608626 -0.699537,1.319145 -0.191426,3.787818 -0.23151,5.478219 0.2471,0.550581 -0.320701,3.978437 -0.077,5.89163 -0.02664,1.80481 -0.115629,4.365628 0.385506,5.511808 0.51336,1.697495 -0.204025,-0.193621 -0.385506,0.819588 -0.353194,1.458673 0.973111,4.901249 -1.414901,4.845179 -2.205058,-0.14006 -1.99423,-3.130115 -3.010152,-4.584213 -0.579828,-1.99926 -1.206899,-1.243704 -1.204061,-3.193086 -0.961042,0.416989 -0.05457,-2.099879 -1.111043,-2.993099 -1.04025,-1.708753 -1.063719,-4.211272 -2.623613,-5.478219 0.253332,-0.809308 -0.241117,-1.986946 -0.797367,-3.130041 -0.811605,-3.512125 -0.991784,0.569656 -0.823206,2.206583 0.01595,2.058996 0.101053,3.440853 0,5.105632 0.364281,2.161477 -0.833779,4.897004 0.797368,6.551021 0.495435,3.005127 0.109512,0.207928 -0.617534,0 -1.137883,2.169471 1.167373,2.343953 1.286227,4.078302 1.199581,2.44737 -2.235328,0.67588 -3.061312,1.43712 -1.564783,0.33055 -2.392455,-0.63564 -1.852083,-2.236036 2.193851,-0.406308 1.282475,-3.05159 1.46606,-4.947501 -0.19718,-2.122172 0.234893,-4.445053 -0.23151,-6.344316 -1.402908,0.992653 0.646395,-0.492226 0.230993,-2.119767 0.635705,-1.469031 -0.912528,-3.301927 -0.308508,-2.613277 1.065845,-1.890705 -0.800518,-2.831702 0.309025,-4.173389 -1.894959,0.07765 -2.211612,-3.075291 -0.23151,-3.167765 1.272436,-0.217789 1.153743,-0.102071 2.932637,0.186035 0.780828,0.540662 1.835522,2.76737 1.749247,3.242179 0.240081,1.891822 2.244583,3.338593 1.62109,4.405933 1.469948,3.08571 2.5461,6.288221 3.781165,9.38289 0.26311,2.297902 1.84754,3.20059 0.797367,0.260966 -0.555392,-2.8221 0.465955,0.965694 0.334346,-0.798918 -0.02364,-2.452367 0.02858,-5.075368 0,-7.287927 -0.135859,-1.238516 0.163986,-3.073757 0,-4.695838 -1.382381,0.137221 1.252917,-1.732431 -0.951363,-1.862935 -0.06127,1.630109 -1.462798,-0.585293 -0.849043,-1.416451 -0.837437,-1.601844 3.173779,-1.140667 1.363224,-2.198832 0.416181,-2.414337 -1.781425,0.263907 -0.694531,-1.154968 -1.518699,-1.955403 -2.495333,0.844969 -1.980758,3.092834 0.347242,1.377122 -1.001642,4.490383 1.440739,4.099491 0.109992,1.509627 0.434645,4.563175 -0.231511,5.180046 -1.33718,-4.199356 -3.137026,-8.214479 -4.476212,-12.484509 -0.688501,-0.493504 -1.5528,-0.652469 -2.487704,-0.676445 z m 78.220549,0.08061 c -1.437763,0.560314 0.699136,3.328129 -0.283187,2.9068 -0.202792,1.286978 -1.053054,5.508978 0.797884,5.180045 1.310303,1.622496 0.198713,4.27612 0.565857,6.297807 0.641899,1.123111 -0.560138,2.724377 0,4.397148 -0.712096,1.312755 1.067752,4.622999 -1.374076,4.248319 -0.04014,2.373377 -0.375048,4.890558 -0.246497,7.490498 0.433131,0.59004 0.964149,0.12011 1.296045,0.0563 -0.0039,0.009 -0.0046,0.004 -0.0093,0.017 0.02116,0.0787 0.04095,0.0232 0.04548,-0.0243 0.128944,-0.013 0.225994,0.0441 0.263033,0.2868 h 7.485335 c 0.52001,-2.42577 0.26317,-5.329768 0.0775,-7.71426 -2.22307,0.203272 -1.10034,-3.624385 -1.15755,-5.441011 -0.0636,-2.493692 -0.0748,-5.080633 -0.0775,-7.490499 -0.79717,-2.297444 2.3147,-1.581239 1.38906,-4.061768 -0.8508,-0.238816 -1.71825,-1.705237 -0.64285,-1.751831 0.39689,2.725643 1.16205,-1.680295 0.8232,-2.765723 0.97622,-1.509896 -2.24514,-1.837793 -1.56941,-0.849043 -0.03,-0.370255 -2.59473,-0.746765 -3.916563,-0.521932 -1.903208,-0.625356 -2.237656,1.087357 -3.466455,-0.26045 z m 52.683604,0 c -1.27804,3.169403 -1.50336,6.576067 -2.54661,9.83816 -0.0608,1.860263 -0.70214,3.142548 -0.84905,4.770251 -0.97384,1.545074 0.75244,2.289178 1.2082,1.565279 0.36721,-1.304944 1.86545,-4.011158 0.28319,-4.584216 1.46746,0.129019 0.8248,-1.217108 1.46657,-2.198316 0.56665,-2.185847 0.89972,-4.402639 1.56993,-6.521565 1.64974,-0.05378 3.81313,-0.501907 3.52485,1.751314 2.52861,1.19867 -0.56497,0.61211 0.89969,2.497005 -0.0896,-0.03203 0.32122,2.043206 0.28215,2.459282 0.44943,1.553242 0.46529,2.843467 1.08056,2.64635 -0.99699,1.12177 0.63922,2.960839 0.33434,4.508768 0.46019,0.799682 0.46014,4.234825 1.38958,3.503146 1.72647,0.165504 1.28133,-0.408147 -0.20567,-0.968933 0.41321,-0.561054 1.84769,-2.168576 0.12816,-2.497006 0.60146,-1.903107 -0.16804,-4.171872 -0.48886,-5.70146 -0.64095,-2.645257 -1.05912,-5.599176 -1.80093,-8.086845 0.20987,-1.973203 -1.33263,-3.622215 -3.18946,-2.497005 -0.91263,-0.396416 -2.15008,-0.03888 -3.08664,-0.484209 z m -94.272797,0.02791 v 5.16e-4 c -1.61348,-0.04798 -1.112468,2.349253 -1.190625,2.617412 -0.368156,1.556824 -0.131464,3.3791 0.05116,4.69532 -0.677937,1.126723 2.297551,0.956789 1.389579,3.163115 -0.134648,4.133223 0.303768,8.421579 -0.233061,12.249381 -2.149306,-0.07594 -1.240237,3.299608 -1.41335,5.182633 -0.477376,2.43621 0.89661,3.50688 3.432349,2.91971 1.78748,0.0516 1.863833,-0.21682 3.230293,-0.22324 1.795449,-0.008 3.758619,0.0498 5.376416,0.22324 1.397506,0.0309 1.050872,0.27034 2.289266,-5.1e-4 -0.276671,-1.80546 1.149511,-1.2807 1.61954,-1.84899 -0.04004,-1.95337 0.09287,-3.532818 0.103869,-5.698355 -0.369416,-1.455276 0.844535,-5.269044 -0.823205,-5.272029 -1.30396,-0.432257 -2.169179,0.179647 -3.343982,-0.223242 -1.898337,-0.395168 -1.660532,2.228138 -1.569413,3.912939 1.127711,2.12723 -2.113284,0.621536 -2.649451,1.527555 0.04604,-0.468241 0.676141,-2.474134 0.02584,-3.68918 0.538204,-0.271726 0.02374,-1.716204 0.334347,-2.773991 0.0901,-2.838931 -0.172199,-5.467855 0,-8.145239 2.49858,-0.138772 1.244609,-2.506262 1.646411,-4.078304 -0.265243,-1.366602 0.4392,-3.119761 -0.360185,-4.343921 -1.782223,-0.435148 -2.664269,-0.183576 -3.721737,2.271696 1.167632,0.320627 3.060444,0.865069 1.895492,2.98328 -2.131872,-0.35249 -1.250265,2.711699 -1.414901,4.293278 -0.350532,5.028297 -0.179408,10.521127 -0.07751,15.457455 1.515378,1.044198 3.364506,-0.132879 4.805391,0.410311 1.206368,0.35991 1.693653,-1.118069 1.471745,-2.422592 -0.296627,-1.251984 -0.164661,-3.332147 1.800407,-2.497005 -0.03731,1.957528 0.517181,3.213464 0.05168,5.105632 0.868963,2.596392 -0.860461,2.845282 -3.092834,2.422592 -1.660972,0.56827 -1.915402,-0.0384 -4.105693,0 -1.683819,0.0284 -3.273853,0.16267 -4.969206,-0.14935 -0.947985,-2.86914 2.55271,-2.137501 1.491899,-5.079789 -0.04574,-5.497907 0.04943,-11.719166 0,-17.056324 -1.906657,0.514283 -2.113389,-3.473144 -0.411344,-2.869592 1.072893,-0.391137 3.05565,0.145644 1.954919,-1.6769 0.97615,-1.025303 -1.162129,-1.636362 -2.289266,-0.484208 -0.272998,-0.362551 0.555871,-0.853122 -0.47594,-0.719853 -0.324653,-0.120002 -0.598392,-0.176597 -0.82889,-0.183451 z m 17.698145,5.16e-4 c -1.613224,-0.04804 -1.111727,2.349176 -1.190625,2.617412 -0.367605,1.557258 -0.131588,3.379364 0.05168,4.69532 -0.536427,1.080213 2.374937,1.207416 1.389063,3.54397 -0.130768,4.007078 0.30109,8.15987 -0.232544,11.868526 -2.149178,-0.07641 -1.240985,3.299596 -1.413867,5.182633 -0.476837,2.43589 0.89646,3.50689 3.432865,2.91971 1.974108,0.72993 3.36128,-1.17583 3.229777,-0.22324 1.745352,0.42072 3.758704,0.0498 5.376416,0.22324 -0.04138,-2.35042 1.882606,0.0856 2.289783,0 2.038662,0.32263 1.266127,-1.14061 1.619539,-1.84898 -0.04023,-1.95415 0.0927,-3.532116 0.10387,-5.698358 -0.368988,-1.455303 0.843937,-5.269995 -0.823206,-5.272029 -1.304537,-0.432329 -2.169132,0.179427 -3.344499,-0.223243 -1.897352,-0.395337 -1.660263,2.228115 -1.568896,3.91294 1.126586,2.127636 -2.112564,0.621227 -2.649451,1.527555 0.04507,-0.466651 0.676729,-2.475797 0.02532,-3.68918 0.5385,-0.271643 0.02385,-1.716269 0.334346,-2.773991 0.08973,-2.838269 -0.171532,-5.467833 0,-8.145239 2.49864,-0.138429 1.244898,-2.506543 1.646411,-4.078304 -0.264932,-1.366769 0.439359,-3.119605 -0.360184,-4.343921 -1.782935,-0.435604 -5.177751,0.189425 -3.721737,2.271696 1.167724,0.320485 3.060504,0.864998 1.895492,2.98328 -2.131807,-0.352039 -1.250296,2.711617 -1.414901,4.293278 -0.349305,5.028839 -0.179372,10.520509 -0.077,15.457454 1.515439,1.044352 3.364056,-0.133009 4.805391,0.410311 1.205847,0.359774 1.693887,-1.118339 1.471228,-2.422591 -0.296411,-1.252529 -0.164436,-3.331493 1.800924,-2.497005 -0.03733,1.957649 0.517078,3.214018 0.05116,5.105631 0.869237,2.595826 -0.86016,2.845496 -3.092318,2.422586 -1.661016,0.56814 -1.915695,-0.0382 -4.106209,0 -1.68389,0.0284 -3.273247,0.16272 -4.969206,-0.14934 -0.948247,-2.86963 2.55345,-2.137075 1.492415,-5.079793 -0.04567,-5.49818 0.04933,-11.717145 0,-17.056323 -1.906981,0.514711 -2.11418,-3.472938 -0.411861,-2.869592 1.073283,-0.390932 1.758337,0.250605 1.791105,-1.6769 -0.05227,-1.583302 -2.25026,-1.244559 -2.601391,-1.204061 -0.324625,-0.120013 -0.598431,-0.176589 -0.82889,-0.183452 z m 52.889282,0 c -1.61298,-0.04787 -1.11248,2.349123 -1.19115,2.617412 -0.36761,1.557267 -0.13155,3.379356 0.0517,4.69532 -0.67807,1.126583 2.2976,0.957003 1.38958,3.163115 -0.13465,4.133229 0.30377,8.421571 -0.23306,12.249381 -2.14931,-0.07594 -1.24024,3.299614 -1.41335,5.182633 -0.47738,2.43622 0.89658,3.50688 3.43235,2.91971 1.97458,0.72984 3.36053,-1.17566 3.23029,-0.22324 1.74544,0.42074 3.7584,0.0498 5.37642,0.22324 0.9347,-0.0133 0.69439,0.12652 1.12396,-1.39939 0.36823,-0.50176 -0.28398,2.08388 1.29398,1.25057 2.26777,0.55969 0.83609,-1.15274 1.59473,-1.86294 -0.31066,-2.10585 0.12848,-3.955202 0,-6.297288 -0.27881,-1.574167 0.87109,-5.035661 -1.33738,-4.734078 -1.22789,0.348012 -2.03566,-0.12375 -3.16415,0.223759 -1.75092,-0.672658 -1.34927,2.776833 -1.05523,3.950146 0.38713,1.8661 -2.47632,0.484756 -3.11248,1.155485 1.00115,-0.765055 0.65411,-2.624266 0.17984,-3.838525 1.04182,-0.07919 -0.0842,-2.139008 0.46302,-3.274736 0.24717,-2.684347 -0.50483,-5.289938 0.25786,-7.718908 2.57492,0.214991 0.7171,-2.743411 1.38907,-4.12378 -0.33677,-1.309331 0.94787,-4.485355 -1.50275,-3.963065 -2.09037,-0.753825 -3.96636,1.349387 -2.22726,2.795178 1.77649,-1.435769 2.63792,2.450316 1.00304,2.645833 -1.78426,0.03072 -0.47321,3.691829 -0.87436,5.142839 -0.45418,4.600375 -0.0163,9.649566 -0.18035,14.198616 1.10453,1.507464 3.35608,6.6e-5 4.52788,0.633553 1.39684,0.340299 2.09191,-0.723754 1.87793,-2.310453 -0.27474,-1.251291 -0.33963,-3.336066 1.69808,-2.683557 0.0925,1.792835 0.49825,2.993908 0.20568,4.695837 0.39626,2.142444 -0.0379,3.779944 -2.40813,2.906794 -2.15286,0.0647 -2.09138,0.48986 -4.10621,0 -2.0427,-0.0227 -3.75537,0.20887 -5.73091,-0.14934 -0.94797,-2.86936 2.55281,-2.137275 1.4919,-5.079793 -0.0458,-5.498876 0.0495,-11.718195 0,-17.056323 -1.90623,0.514587 -2.11368,-3.473046 -0.41135,-2.869592 1.07358,-0.391003 1.68829,0.507806 1.95492,-1.6769 0.97486,-1.026303 -2.22904,-2.024288 -2.28926,-0.484208 -0.27192,-0.362454 0.55417,-0.854892 -0.47646,-0.719853 -0.32454,-0.119967 -0.59795,-0.176613 -0.82837,-0.183452 z m -8.16126,0.125057 c -1.28485,-0.01203 -2.8385,0.37675 -3.91759,0.106971 h -2.64274 c -1.90574,2.781049 -4.57037,5.371131 -3.73,9.018054 0.36913,2.093117 -0.99604,5.201085 1.28623,6.447668 0.24672,2.602562 2.72105,3.245653 4.95938,2.831869 2.2705,-0.708852 3.63672,0.144564 2.93832,2.289783 1.2989,2.990003 -3.76637,2.953662 -2.64996,0.02584 -1.03497,-1.510401 -3.71054,-0.153914 -5.57279,-0.675411 -1.33663,1.286134 0.58079,1.612676 -0.601,1.937866 0.77326,1.243969 0.1748,1.563859 -0.0258,3.220992 0.65799,1.999172 2.38798,3.852402 3.653,5.499402 2.70294,0.002 5.04995,-0.0225 7.58869,-0.0372 1.58876,-2.49363 4.45296,-4.41608 3.98735,-7.747324 0.0967,-2.747477 -0.22448,-5.139062 0,-7.53184 -0.86904,0.699309 -0.9445,-2.713108 -2.57245,-3.950663 -1.64576,-0.667062 -3.74038,-0.272372 -5.87148,-0.447001 -1.92886,-1.249048 0.39681,-3.78773 1.96112,-2.608627 -0.35041,2.741599 3.06361,1.365557 4.93097,1.676901 2.30064,7.9e-5 0.9664,-3.973879 0.97565,-5.455998 -0.78999,-1.254079 -2.25663,-3.039962 -2.5368,-3.347083 -0.32441,-0.993035 -1.16075,-1.244827 -2.16007,-1.254187 z m 76.53899,0.09922 c -2.91165,0.0062 -5.94487,0.04235 -8.42119,0.0078 -0.69478,0.770133 0.16013,-0.132001 -1.31206,0 -0.0197,2.4011 -0.17474,4.861038 0,7.34167 0.98664,-1.353299 1.18778,1.583645 1.23455,2.836003 0.26601,1.812284 -0.21159,3.313194 0.10283,5.250842 -0.15538,2.026673 -0.21632,4.906363 0.10284,6.409945 -1.39601,1.068611 -2.16578,2.272351 -1.67225,4.732014 -0.30707,2.43871 -0.27757,5.04792 2.94969,4.02559 1.83042,0.0118 3.7328,-0.14155 5.42654,0 1.98185,-0.18064 4.80964,0.78916 5.56659,-1.56528 1.66362,-1.93399 3.15352,-4.137031 2.59829,-6.848159 0.0301,-4.229878 0.0468,-8.817377 -0.077,-13.164054 -1.607,-0.941892 0.82029,-0.264826 0.23151,-2.496489 -0.19237,-2.677096 -2.64301,-4.260941 -3.88451,-6.522082 -0.9185,-0.0083 -1.87527,-0.0098 -2.84583,-0.0078 z m -6.36963,1.662948 c -0.46022,1.957343 3.73895,0.510137 5.26169,0.95343 1.4394,0.152022 1.34224,-0.726666 2.41071,0.149345 1.7826,-0.03511 2.75493,3.101985 3.807,4.442623 -0.22857,3.032366 -0.14193,7.100565 -0.154,10.586434 -0.316,2.938027 0.99774,6.439708 -1.54357,8.597924 -1.25409,2.84107 -4.12466,1.254 -6.63887,1.63969 -1.67705,-0.38338 -5.19954,1.21644 -4.60282,-1.67225 0.65419,-1.369035 1.9051,-2.555094 1.28622,-4.886519 0.0642,-2.455196 -0.25296,-4.090585 0.0258,-6.359819 -0.36539,-2.281849 0.47519,-5.180346 -0.33486,-7.503418 -0.33112,0.230986 0.98505,-0.883918 -0.30386,-2.161625 -0.81374,0.312057 0.27117,1.48508 -1.00821,0.894519 1.13281,-1.800587 -1.11661,-2.434141 0.5669,-3.726904 1.83628,0.147624 -0.16886,-0.374629 1.22783,-0.95343 z m -86.06813,0.24598 c 0.40548,0.899361 2.74845,0.58729 2.2903,2.123901 0.62512,1.714184 -2.59954,1.094546 -1.26091,2.273246 -1.2999,-0.125503 -0.0697,2.679091 -0.61753,3.764112 0.10429,2.165396 0.17029,4.411385 0.12867,6.7076 0.12491,1.810069 -0.15441,4.127841 0.15451,6.000151 0.42267,0.755288 -0.74508,2.177678 0.61237,2.384867 1.7465,0.996279 0.52919,4.019829 -1.79162,2.831869 -2.358806,0.66885 -3.998419,-0.43016 -2.808616,-2.831869 2.532616,0.04717 0.663631,-3.978794 1.235066,-5.667871 -0.13943,-4.48811 0.277416,-9.133108 -0.205672,-13.524239 -1.282716,-0.05959 -1.61975,-1.532257 -1.106392,-3.055627 0.633244,-1.067336 3.327034,0.461706 3.369824,-1.00614 z m -54.277828,0.01602 c 0.857226,1.186547 4.019645,-0.58241 3.36982,1.735295 0.635876,1.271476 -1.776551,2.353287 -0.179834,3.279386 -0.672134,-0.336872 -2.355654,-0.215 -1.620573,2.322339 0.119714,1.766098 0.09804,3.28102 0.05116,5.018815 0.237593,1.370717 -0.494655,3.368581 0.23151,4.658631 -0.264484,1.205167 -0.218814,2.270282 -0.28267,3.900537 0.285672,2.162402 -1.843911,3.562033 -2.675289,5.192443 -1.981345,-0.39414 -4.787645,0.77017 -6.289538,-0.53588 -1.629036,-1.933673 -2.870654,-4.070046 -2.354379,-6.684863 -0.136827,-5.163618 0.273861,-10.482017 -0.205672,-15.548922 -1.754352,0.725267 -1.853268,-2.403073 -0.776697,-2.645833 1.343,-0.364354 2.687266,0.406152 3.838009,-0.447518 1.733244,1.275962 0.195131,3.005389 -0.257349,4.136698 0.218065,1.824582 -0.321643,3.295902 0.02584,4.993494 0.04957,2.807648 -0.04415,5.777229 0.077,8.645984 0.731187,-0.562999 -0.942237,3.007455 0.326595,4.238501 1.02495,-1.754339 0.351675,-0.0454 0.882633,0.792199 0.427875,-0.09137 0.655793,-0.155728 0.794267,-0.201538 -0.09759,0.07326 -0.160941,0.200323 0.07545,0.38809 2.963432,0.836438 4.631187,-1.69431 4.069519,-4.492232 -0.34758,-0.560951 0.104792,-2.071609 0,-2.998266 -0.262924,-2.398853 0.132855,-4.317533 -0.02584,-7.192326 -0.337103,-1.550339 0.68357,-4.032613 -0.411344,-5.031218 -1.263726,-1.075352 -0.625171,-3.774034 1.23455,-3.242179 l 0.02584,-0.148828 z M 112.3394,76.51626 h 5.1e-4 c 0.91197,0.08593 2.0961,0.870539 2.77141,0.03721 0.94675,0.896175 2.53891,-0.200179 3.545,0.894519 0.25867,-0.415691 0.80321,2.597513 2.06293,3.428731 -0.63645,2.029919 -3.54109,0.484169 -3.88452,-1.304313 -1.27486,0.135442 -4.22911,-0.78741 -4.90409,1.25367 -0.53029,1.908112 -1.04939,5.187542 0.60823,6.609416 1.40188,0.222719 2.54183,-0.05242 3.80752,-0.03721 1.21467,0.629723 2.72137,-0.83 3.2153,1.117761 0.16473,0.186317 0.51577,0.716042 0.97721,2.020549 0.03,2.838102 -0.0397,5.928167 0.10335,8.413956 -0.76366,-0.07545 -1.74238,2.299261 -2.80448,2.944011 -1.85013,0.52076 -4.62978,0.0928 -6.4053,0.18655 -0.75949,-1.95813 -3.38378,-3.326131 -2.26394,-5.627566 1.8459,-0.666134 2.63543,0.710526 3.35018,2.468583 1.31565,1.291403 3.67302,0.185208 4.26434,0.252181 1.02052,-0.969639 1.45177,-3.192691 1.28675,-5.254976 -1.03987,-0.01 0.58171,-1.663901 0,-2.794662 -0.42802,-1.506481 -3.19571,-1.582555 -4.08296,-0.538468 0.26353,-0.670227 -1.93503,-0.456911 -2.96519,-0.728638 -3.12071,-1.224702 -1.16305,-6.07762 -2.88148,-7.005774 -0.12598,0.461544 0.0965,-2.070187 0.0517,-2.310453 0.83709,-0.75238 0.42093,2.566546 0.87539,0.03721 0.31377,-1.272306 2.18952,-3.217253 3.11248,-3.950146 z m 81.39606,2.987931 c -0.1673,-0.006 -0.33463,0.01526 -0.49868,0.0677 h -3.11298 c -0.93479,3.021991 -0.15551,6.551529 -0.41135,9.774597 0.13005,3.254073 -0.2536,6.668166 0.17984,9.827824 0.97686,0.863018 2.42328,-0.7196 2.08411,-0.820105 1.21602,-0.698767 2.59481,2.295553 3.60546,-0.09405 0.85269,-2.655532 0.0708,-5.964239 0.51005,-8.812382 -0.18708,-2.330903 -0.12174,-4.8026 0,-7.051766 -0.0165,-1.465596 -1.18532,-2.849688 -2.35645,-2.891813 z m -42.19794,0.0677 c -0.33649,1.434637 -1.1734,3.48289 -0.10284,4.658114 -0.98946,-1.340788 -1.21777,1.041444 -1.64641,2.766239 -0.0272,1.158611 -1.55006,4.002427 0.46302,3.904671 0.87575,0.354844 3.3336,-0.145744 1.82625,-0.968933 0.74711,-0.36379 0.6453,1.193112 1.23507,-0.148828 0.60804,2.886541 1.16008,-1.63132 0.12867,-2.124418 -0.30568,-1.401318 -0.1437,-3.583483 -1.23507,-4.770251 -0.54507,0.02353 0.49337,-1.380295 -0.38499,-2.049488 0.45229,-0.161509 0.0878,-1.02862 -0.2837,-1.267106 z m 41.80675,2.3797 c 0.11997,-0.0052 0.24685,-0.0036 0.38086,0.0057 0.7561,0.912301 0.49009,2.476045 0.41186,3.465422 -0.16232,3.799577 0.31961,7.799953 -0.23151,11.478369 -2.1993,0.863328 -2.89915,-1.281511 -2.39262,-3.382222 -0.1165,-2.922184 0.23518,-6.338785 -0.17984,-8.952942 -0.0486,-0.906796 0.21177,-2.53701 2.01125,-2.614311 z m -47.68649,8.454264 c -1.31373,0.0807 -0.41981,1.954477 -0.6811,2.209168 -1.45636,0.088 0.0816,3.441994 -0.48834,2.385384 -0.85541,-1.902184 -0.0101,2.693723 -1.81643,1.900659 -1.69988,0.07938 0.24423,2.469153 -0.57619,2.981213 -0.52946,1.391731 -0.18591,3.395861 0.077,4.844661 1.74103,-0.54827 2.29306,0.3914 4.29638,-0.22376 1.3963,0.57117 3.96155,0.16575 3.98683,-0.18603 0.3038,-1.78146 -0.34328,-3.96465 -0.25683,-5.068424 1.37178,-0.800229 -1.61042,-2.300348 -0.69453,-3.68918 1.43278,-0.413284 5.09638,-1.043011 4.3217,1.564762 -1.73449,-0.138897 -0.30337,1.596994 -1.08055,1.379244 0.36905,2.919978 -0.0207,2.714138 0.0253,6.111248 1.04269,-0.06 3.54663,0.61515 4.39921,-0.26045 -0.39849,-1.01571 0.84981,0.94934 1.54306,0.14883 0.21596,-0.0406 1.43439,0.32701 2.2009,0.16175 0.24819,0.0252 0.51104,0.002 0.65319,-0.22686 0.21508,-0.22581 0.22437,-0.54598 0.25115,-0.83974 0.019,-0.42305 -0.0588,-0.84985 0.0315,-1.26866 0.042,-0.57931 -0.1705,-1.13452 -0.21963,-1.70687 -0.0723,-0.3073 -0.11939,-0.61173 -0.0775,-0.928106 0.0136,-0.558163 0.0625,-1.114648 0.0527,-1.673283 0.003,-0.13005 0.004,-0.260523 5.2e-4,-0.390674 0.008,-0.0545 0.005,-0.116798 -0.0103,-0.189652 -0.004,-0.05116 -0.01,-0.102037 -0.0171,-0.152963 -0.0172,-0.02026 -0.0355,-0.03843 -0.0543,-0.05529 -0.0389,-0.08853 -0.0899,-0.185649 -0.16072,-0.294556 -0.0828,0.04213 -0.14636,0.08333 -0.2098,0.12454 -0.15725,-0.03491 -0.3232,-0.05074 -0.47232,-0.103353 -0.42535,-0.171566 -0.98209,-0.04173 -1.20355,0.38344 -0.028,0.08387 -0.0591,0.167615 -0.0894,0.25218 0.0967,-0.661984 0.1808,-1.483833 -0.15968,-1.141015 0.0581,1.188163 -1.94057,2.917877 0.27285,2.832385 0.26669,0.146997 0.45598,0.123941 0.58446,0.0021 0.0199,0.04606 0.0306,0.09592 0.0367,0.148828 -0.0485,0.02296 -0.0879,0.03402 -0.14831,0.07286 -0.0888,0.479017 -0.38965,1.774349 0.19379,1.785939 -0.13812,0.29292 -0.31947,0.63785 -0.42116,0.88264 -0.66525,-0.19301 -3.10146,0.008 -3.80907,-0.0605 -2.21489,-0.45938 -1.01003,-0.55455 -2.57504,0 -0.72898,-1.09968 1.46285,0.50069 0.87385,-1.82572 0.80647,-1.335586 2.67595,-1.278112 1.36322,-3.391015 -0.54231,-1.268288 0.0494,-4.026092 -2.12028,-3.540353 -1.57412,0.204852 -3.3473,-0.127392 -4.82503,0.149345 -0.9911,1.167181 -0.88943,3.289434 -1.3379,4.546493 0.70375,-0.237629 -0.88289,1.538492 0,0.968933 -0.13254,-0.300074 1.08886,0.746468 1.80092,1.043867 -0.47305,1.60028 -1.32407,2.57013 -3.46852,2.04845 -2.06019,1.31554 -1.53311,-1.64345 -2.83445,-0.9312 -0.0699,-0.55258 1.29629,-1.857602 2.20606,-2.224679 -0.84136,-1.118967 -0.63743,-0.539471 0.006,-1.091406 0.99834,-0.278477 -0.0813,-3.567916 0.79788,-2.198833 0.87298,-1.852053 -0.23419,-2.394164 0.38499,-2.571419 0.33027,-0.724425 1.15938,-3.144479 0.15555,-2.236039 l 10e-4,-0.373621 c -0.28753,-0.07167 -0.52026,-0.09665 -0.70797,-0.08527 z m 13.04158,4.056083 c -0.0395,0.0075 -0.0855,0.0246 -0.13901,0.05323 -0.0573,2.123529 -1.29051,-0.841796 -0.77153,1.6769 0.0572,-1.713739 0.0689,1.234564 0.84853,0.335897 -0.25289,-0.915878 1.53321,-0.682866 0.41341,-1.528072 -0.11023,-0.174271 -0.0751,-0.590144 -0.3514,-0.537952 z M 82.449231,108.5448 c -2.936376,0 -5.300452,2.36355 -5.300452,5.29993 0,2.93639 2.364076,5.30045 5.300452,5.30045 h 48.269409 c 2.93636,0 5.30045,-2.36406 5.30045,-5.30045 0,-2.93638 -2.36409,-5.29993 -5.30045,-5.29993 z m 6.495211,2.06447 h 0.808736 v 6.47092 h -1.290877 v -4.55889 h -0.531234 v -0.76016 l 0.04909,-0.016 c 0.288686,-0.0763 0.50946,-0.21267 0.661975,-0.40876 0.157958,-0.20154 0.255909,-0.42179 0.294039,-0.66146 z m 5.980513,0 h 1.225765 v 5.45806 l -1.012858,1.01286 h -1.503784 l -1.021126,-1.01286 v -1.02939 h 1.233516 v 0.4656 l 0.3514,0.3514 h 0.376204 l 0.350883,-0.3514 z m 3.325379,0 h 1.299145 l 1.283121,6.47092 h -1.258316 l -0.08165,-0.44907 h -1.193209 l -0.08992,0.44907 h -1.241784 z m 3.399276,0 h 1.20923 l 1.39681,3.17035 v -3.17035 h 1.22577 v 6.47092 h -1.20096 l -1.4056,-3.1781 v 3.1781 h -1.22525 z m 7.70444,0 h 0.80873 l 5.2e-4,6.47092 h -1.29139 v -4.55889 h -0.53072 v -0.76016 l 0.0491,-0.016 c 0.28868,-0.0763 0.50895,-0.21267 0.66146,-0.40876 0.15797,-0.20154 0.25594,-0.42179 0.29404,-0.66146 z m 2.69647,0 h 2.06706 l 1.07022,1.07022 v 4.33048 l -1.07022,1.07022 h -2.06706 l -1.07021,-1.07022 v -0.92345 h 1.29087 v 0.38447 l 0.31833,0.31006 h 0.99684 l 0.31057,-0.31006 v -0.98082 h -1.83038 l -1.08623,-1.08676 v -1.72392 z m 3.95429,0 h 3.85661 l 0.34313,1.29914 -2.11615,5.17178 h -1.39733 l 2.11615,-5.17178 h -1.50327 v 0.7028 h -1.29914 z m 6.08696,0 h 2.07533 l 1.07022,1.07022 v 4.33048 l -1.07022,1.07022 h -2.07533 l -1.07022,-1.07022 v -4.33048 z m -9.50226,1.29914 -0.31833,0.31058 v 0.65371 l 0.33487,0.32659 h 1.29087 v -0.9803 l -0.31057,-0.31058 z m 10.04176,0 -0.31057,0.31058 v 3.252 l 0.31057,0.31832 h 0.99684 l 0.31058,-0.31832 v -3.252 l -0.31058,-0.31058 z m -41.391784,1.32344 h 3.831807 v 1.22576 h -3.831807 z m 46.857084,0 h 3.83233 v 1.22576 h -3.83233 z m -29.200281,0.40876 -0.3514,1.77302 h 0.702283 z" />
    <path
       style="fill:#a16535;fill-opacity:1;stroke-width:3.96703;stroke-linecap:square;stroke-linejoin:bevel;paint-order:markers fill stroke"
       d="m 127.06408,120.19685 c -2.72206,0.0101 -5.44555,-0.005 -8.16694,0.008 -0.46869,-6.2e-4 -0.93743,-8e-5 -1.40612,-5.2e-4 -0.0256,0.15701 -0.0548,0.31898 -0.0796,0.47491 -0.41742,2.66665 -0.45174,2.74231 -1.32085,2.55385 -0.48608,-0.11278 -3.61415,-0.30126 -6.88072,-0.45114 -5.83827,-0.22556 -6.011,-0.26268 -6.011,-1.05213 0,-0.24262 -0.0771,-0.81553 -0.18655,-1.52342 -3.786607,0.002 -7.572956,0.004 -11.359516,-0.002 0.244625,1.57087 0.367707,2.61908 0.287837,2.76521 -0.10435,0.14982 -1.6337,0.41298 -3.40496,0.5643 -10.14698,0.75088 -24.672668,4.28106 -31.553113,7.62279 l -1.872237,0.94155 c 1.81058,1.48453 3.523809,3.05352 6.969084,3.20032 h 0.502295 0.502295 c 6.661974,-0.28384 6.835124,-5.89634 13.826029,-5.9061 7.357365,0.01 7.401772,5.83707 14.444597,5.903 7.04356,-0.0657 7.086792,-5.89318 14.231689,-5.89318 h -0.21807 c 0.0663,-0.004 0.13514,-0.0103 0.19637,-0.0103 0.0825,0 0.16971,0.005 0.25683,0.0103 h -0.0217 c 7.16349,0 7.16358,5.89629 14.32729,5.89628 h 0.15452 c 6.76802,-0.22756 6.90924,-5.89629 13.93765,-5.9061 7.39916,0.01 7.39892,5.90611 14.56242,5.9061 3.34103,0 5.12262,-1.28378 6.80061,-2.65255 -8.21818,-2.86145 -16.8306,-6.02461 -25.34625,-7.61039 -3.02354,-0.52532 -3.75223,-0.75116 -3.75223,-1.27796 0,-0.20772 0.25119,-1.69317 0.58033,-3.56051 z"
       id="path16081" />
    <path
       style="fill:#d8b622;fill-opacity:1;stroke-width:3.96703;stroke-linecap:square;stroke-linejoin:bevel;paint-order:markers fill stroke"
       d="m 116.09057,123.23309 c -0.45711,-0.20011 -3.61415,-0.30126 -6.88072,-0.45114 -5.83827,-0.22556 -5.57478,-0.39415 -6.011,-1.05213 -4.273441,1.76626 -6.570748,1.9557 -11.258229,1.23979 -0.154923,-0.0966 -1.6337,0.41298 -3.40496,0.5643 -10.14698,0.75088 -24.672668,4.28106 -31.553113,7.62279 l -1.872237,0.94155 c 1.81058,1.48453 3.523809,3.05352 6.969084,3.20032 h 0.502295 0.502295 c 6.661974,-0.28384 6.835124,-5.89634 13.826029,-5.9061 7.357365,0.01 7.401772,5.83707 14.444597,5.903 7.04356,-0.0657 7.086792,-5.89318 14.231689,-5.89318 h -0.21807 c 0.0663,-0.004 0.13514,-0.0103 0.19637,-0.0103 0.0825,0 0.16971,0.005 0.25683,0.0103 h -0.0217 c 7.16349,0 7.16358,5.89629 14.32729,5.89628 h 0.15452 c 6.76802,-0.22756 6.90924,-5.89629 13.93765,-5.9061 7.39916,0.01 7.39892,5.90611 14.56242,5.9061 3.34103,0 5.12262,-1.28378 6.80061,-2.65255 -8.21818,-2.86145 -16.8306,-6.02461 -25.34625,-7.61039 -3.02354,-0.52532 -3.75223,-0.75116 -3.75223,-1.27796 -5.21027,1.18514 -7.33426,0.73568 -10.39317,-0.52458 z"
       id="path17613" />
    <path
       style="fill:#42caff;fill-opacity:1;stroke-width:3.96703;stroke-linecap:square;stroke-linejoin:bevel;paint-order:markers fill stroke"
       d="m 76.910027,132.75601 c -7.1636,0.01 -7.16422,5.90646 -14.3278,5.92056 -7.163438,-0.0141 -7.163293,-5.91075 -14.305073,-5.91075 -3.93746,0 -5.719073,1.76961 -7.702373,3.37034 h 7.680152 c 7.163745,0 7.163856,5.89681 14.327294,5.8968 7.16358,1e-5 7.1637,-5.8968 14.32729,-5.8968 7.31554,0 7.40322,5.76023 14.32729,5.8906 v 0.006 c 0.0405,0 0.0778,-0.003 0.11782,-0.003 0.04,3.7e-4 0.0773,0.003 0.11782,0.003 7.12342,1e-5 7.16662,-5.82805 14.209993,-5.8937 7.0431,0.0659 7.08648,5.89371 14.20947,5.8937 0.0403,0 0.0774,-0.003 0.1173,-0.003 0.0401,3.7e-4 0.0773,0.003 0.11782,0.003 v -0.006 c 6.92473,-0.13009 7.00935,-5.8906 14.09217,-5.8906 7.39918,0 7.39892,5.89681 14.56242,5.8968 7.16371,1e-5 7.16379,-5.8968 14.32729,-5.8968 0.1201,0 0.23319,0.003 0.34933,0.004 v -0.002 h 7.33547 c -1.98199,-1.60132 -3.75757,-3.37241 -7.6848,-3.37241 -7.1635,0 -7.16358,5.89681 -14.32729,5.8968 -7.1635,1e-5 -7.16325,-5.89678 -14.56242,-5.90661 -7.08282,0.01 -7.16745,5.77012 -14.09217,5.91385 v -0.007 c -7.16372,1e-5 -7.1638,-5.8968 -14.32729,-5.8968 -0.0368,0 -0.0706,0.002 -0.10697,0.003 -0.0362,-3.1e-4 -0.0699,-0.003 -0.10645,-0.003 -7.144773,0 -7.188553,5.82777 -14.231693,5.8937 -7.04282,-0.0659 -7.08722,-5.89374 -14.4446,-5.90351 z"
       id="path6788" />
    <path
       id="path4603"
       style="fill:#6c6c6c;fill-opacity:1;stroke-width:3.96703;stroke-linecap:square;stroke-linejoin:bevel;paint-order:markers fill stroke"
       d="m 106.01472,138.47739 a 0.25653084,0.25653084 0 0 0 -0.25322,0.2129 l -0.65422,3.83284 c -1.62152,0.18752 -3.13685,0.86467 -4.35528,1.95131 l -0.56172,-0.28061 a 0.25653084,0.25653084 0 0 0 -0.3452,0.34623 l 0.2806,0.56069 c -1.0861,1.2186 -1.764166,2.73496 -1.9513,4.35633 l -3.830257,0.65319 a 0.25653084,0.25653084 0 0 0 0,0.50384 l 3.830257,0.65319 c 0.187762,1.62102 0.86498,3.13565 1.9513,4.35374 l -0.2806,0.56431 a 0.25653084,0.25653084 0 0 0 0.3452,0.34261 l 0.56172,-0.2806 c 1.2181,1.08637 2.73419,1.76355 4.35528,1.9513 l 0.65422,3.83284 a 0.25653084,0.25653084 0 0 0 0.50592,0 l 0.65164,-3.83025 c 1.62187,-0.18821 3.13815,-0.8663 4.35632,-1.95389 l 0.56069,0.2806 a 0.25653084,0.25653084 0 0 0 0.34313,-0.34261 l -0.27854,-0.56172 c 1.08709,-1.21832 1.76397,-2.73462 1.95182,-4.35633 l 3.83026,-0.65319 a 0.25653084,0.25653084 0 0 0 0,-0.50384 l -3.83284,-0.65319 c -0.18748,-1.62156 -0.86468,-3.13783 -1.9513,-4.35633 l 0.2806,-0.56069 a 0.25653084,0.25653084 0 0 0 -0.34313,-0.34623 l -0.56069,0.28061 c -1.2181,-1.08638 -2.73527,-1.76353 -4.35632,-1.95131 l -0.65164,-3.83284 a 0.25653084,0.25653084 0 0 0 -0.2527,-0.2129 z m 0,0.12815 a 0.12826542,0.12826542 0 0 1 0.12557,0.10749 l 0.66301,3.91294 c 1.6637,0.17035 3.22676,0.86845 4.46174,1.99626 l 0.62839,-0.31316 a 0.12826542,0.12826542 0 0 1 0.17053,0.17312 l -0.31264,0.62632 c 1.12889,1.23515 1.82515,2.79679 1.99574,4.46122 l 3.91501,0.66611 a 0.12826542,0.12826542 0 0 1 0,0.2527 l -3.91191,0.66611 c -0.17097,1.66459 -0.86688,3.22675 -1.99626,4.46174 l 0.31006,0.62632 a 0.12826542,0.12826542 0 0 1 -0.17053,0.17053 l -0.62632,-0.31367 c -1.23482,1.12986 -2.79595,1.8275 -4.46071,1.99884 l -0.66611,3.91036 a 0.12826542,0.12826542 0 0 1 -0.25321,0 l -0.6687,-3.91294 c -1.66389,-0.1709 -3.22438,-0.86767 -4.45915,-1.99626 l -0.62631,0.31367 a 0.12826542,0.12826542 0 0 1 -0.17312,-0.17053 l 0.31626,-0.6289 c -1.12918,-1.23539 -1.828384,-2.79586 -1.998844,-4.46071 l -3.912939,-0.66456 a 0.12826542,0.12826542 0 0 1 0,-0.2527 l 3.912939,-0.66352 c 0.16978,-1.66468 0.867894,-3.22809 1.996264,-4.46381 l -0.31368,-0.62632 a 0.12826542,0.12826542 0 0 1 0.17312,-0.17312 l 0.6289,0.31316 c 1.23536,-1.12808 2.79705,-1.82621 4.46121,-1.99626 l 0.66405,-3.91294 a 0.12826542,0.12826542 0 0 1 0.12764,-0.10749 z m -10e-4,0.12919 -0.67902,3.99201 a 7.669111,7.6691165 0 0 0 -4.56716,2.04328 l -0.69194,-0.34623 0.34571,0.68988 a 7.669111,7.6691165 0 0 0 -2.043285,4.56923 l -3.991487,0.67903 3.991487,0.67955 a 7.669111,7.6691165 0 0 0 2.043285,4.56561 l -0.34571,0.69195 0.69194,-0.34572 a 7.669111,7.6691165 0 0 0 4.56561,2.04329 l 0.68057,3.992 0.67955,-3.98942 a 7.669111,7.6691165 0 0 0 4.56716,-2.04587 l 0.6904,0.34572 -0.34468,-0.6904 a 7.669111,7.6691165 0 0 0 2.04483,-4.56716 l 3.98892,-0.67955 -3.99149,-0.67903 a 7.669111,7.6691165 0 0 0 -2.04329,-4.56768 l 0.34572,-0.69143 -0.69195,0.34623 a 7.669111,7.6691165 0 0 0 -4.56562,-2.04328 z m -0.89658,5.2617 -0.46199,2.71663 -2.69079,-1.34462 a 6.4321354,6.4321405 0 0 1 3.15278,-1.37201 z m 1.79214,0 a 6.4321354,6.4321405 0 0 1 3.15278,1.37201 l -2.6908,1.34462 z m -1.95906,0.20722 c -0.97808,0.17037 -1.89324,0.57511 -2.68769,1.16996 l 2.29444,1.14721 z m 2.12391,0 0.39378,2.31717 2.29443,-1.14721 c -0.795,-0.59522 -1.7094,-0.99981 -2.68821,-1.16996 z m -2.28616,0.20309 -0.32815,1.92133 -1.90169,-0.9493 c 0.67656,-0.46622 1.42498,-0.80434 2.22984,-0.97203 z m 2.45205,0 c 0.80464,0.16769 1.55032,0.50596 2.22673,0.97203 l -1.90117,0.95188 z m -6.2203,1.90583 1.34514,2.69079 -2.71663,0.46199 a 6.4321354,6.4321405 0 0 1 1.37149,-3.15278 z m 9.98699,0 a 6.4321354,6.4321405 0 0 1 1.37149,3.15278 l -2.71663,-0.46199 z m -0.005,0.29559 -1.14721,2.30011 2.31717,0.39274 c -0.17029,-0.97968 -0.57388,-1.89741 -1.16996,-2.69285 z m -27.866512,0.003 c -0.364483,0.009 -0.66382,0.31512 -0.664042,0.68161 v 1.27486 c 2.12e-4,0.37233 0.308768,0.68207 0.681095,0.68161 0.37186,-2.2e-4 0.681402,-0.30976 0.681613,-0.68161 v -1.27486 c -2.24e-4,-0.37185 -0.309762,-0.68139 -0.681613,-0.68161 -0.0058,-1e-5 -0.01127,-1.6e-4 -0.01705,0 z m 1.699121,0 c -0.364485,0.009 -0.66382,0.31512 -0.664042,0.68161 v 1.27486 c 2.11e-4,0.37233 0.309285,0.68207 0.681612,0.68161 0.371861,-2.2e-4 0.680885,-0.30976 0.681096,-0.68161 v -1.27486 c -2.24e-4,-0.37185 -0.309244,-0.68139 -0.681096,-0.68161 -0.0058,-1e-5 -0.01175,-1.6e-4 -0.01757,0 z m 16.190221,5.2e-4 c -0.59529,0.79504 -0.9998,1.71186 -1.16995,2.69079 l 2.31717,-0.39378 z m -10.59263,0.003 c -0.356732,0.0179 -0.646254,0.32085 -0.646472,0.68161 v 1.27486 c 2.12e-4,0.37233 0.308769,0.68208 0.681096,0.68161 0.371859,-2.1e-4 0.6814,-0.30976 0.681612,-0.68161 v -1.27486 c -2.25e-4,-0.37185 -0.309762,-0.68139 -0.681612,-0.68161 -0.0058,-2e-5 -0.01123,-1.6e-4 -0.01705,0 -0.0057,1.4e-4 -0.01191,-2.8e-4 -0.01757,0 z m 52.55855,0 c -0.36448,0.009 -0.66381,0.31461 -0.66404,0.6811 v 1.27537 c 2.2e-4,0.37233 0.30928,0.68155 0.68161,0.68109 0.37186,-2.2e-4 0.68088,-0.30923 0.68109,-0.68109 v -1.27537 c -2.2e-4,-0.37186 -0.30924,-0.68088 -0.68109,-0.6811 -0.006,-1e-5 -0.012,-1.5e-4 -0.0176,0 z m 1.69964,0 c -0.36449,0.009 -0.66383,0.31461 -0.66405,0.6811 v 1.27537 c 2e-4,0.37233 0.30879,0.68155 0.6811,0.68109 0.37187,-2.2e-4 0.6814,-0.30923 0.68161,-0.68109 v -1.27537 c -2.3e-4,-0.37186 -0.30975,-0.68088 -0.68161,-0.6811 -0.005,-1e-5 -0.0114,-1.5e-4 -0.0171,0 z m 5.61464,0.003 c -0.36448,0.009 -0.66381,0.31512 -0.66404,0.68162 v 1.27485 c 2.1e-4,0.37233 0.30928,0.68208 0.68161,0.68162 0.37186,-2.2e-4 0.68089,-0.30976 0.6811,-0.68162 v -1.27485 c -2.2e-4,-0.37186 -0.30926,-0.6814 -0.6811,-0.68162 -0.005,-1e-5 -0.012,-1.5e-4 -0.0176,0 z m -89.709768,0.0413 c -0.0472,1.8e-4 -0.09643,5.2e-4 -0.147795,5.2e-4 h -0.435115 c -0.0047,-7e-5 -0.01077,-4e-5 -0.0155,0 -0.392814,1.3e-4 -0.716516,0.3236 -0.716235,0.71624 3.77e-4,0.3923 0.323872,0.7192 0.716235,0.71933 h 0.130224 v 3.92018 h -0.117305 -0.0057 c -0.0056,-8e-5 -0.01149,-7e-5 -0.01705,0 h -0.0026 c -0.38699,0.001 -0.703929,0.32134 -0.703833,0.70848 5.68e-4,0.38738 0.31896,0.70868 0.706416,0.709 a 0.32066355,0.32066355 0 0 0 0.0026,0 h 1.700672 c 0.38654,-3.2e-4 0.704255,-0.32043 0.706416,-0.70642 0.0022,0.38599 0.320392,0.7061 0.706934,0.70642 0.0049,3e-5 0.0095,7e-5 0.01447,0 h 0.0052 1.672766 c 0.3879,3.5e-4 0.708433,-0.32116 0.709001,-0.709 9.6e-5,-0.38827 -0.320647,-0.70883 -0.709001,-0.70848 H 64.65883 v -3.92018 h 0.127124 c 0.392819,5.3e-4 0.718442,-0.32658 0.718819,-0.71933 2.82e-4,-0.39309 -0.32555,-0.71677 -0.718819,-0.71624 h -1.67535 c -0.392372,1.3e-4 -0.716374,0.32405 -0.716752,0.71624 -2.8e-4,0.39206 0.322268,0.71808 0.714168,0.71933 0.0064,9e-5 0.01123,9e-5 0.01757,0 h 0.112421 v 1.78594 l -1.247985,-2.26228 c -0.219271,-0.39743 -0.334423,-0.64545 -0.598413,-0.81183 -0.230993,-0.14557 -0.466371,-0.1496 -0.796851,-0.14832 z m 9.453686,5.2e-4 c -0.558769,0 -0.999506,0.17394 -1.287776,0.46354 -0.288278,0.28961 -0.409793,0.67359 -0.409794,1.03973 v 3.7822 c 10e-7,0.49582 0.262233,0.89422 0.595829,1.13481 0.333588,0.24057 0.73219,0.35295 1.101741,0.35295 0.369545,0 0.765563,-0.11134 1.095024,-0.35295 0.32947,-0.24162 0.586011,-0.64146 0.586011,-1.13481 v -3.7822 c 0,-0.3645 -0.118431,-0.74678 -0.403076,-1.03715 -0.284638,-0.29038 -0.723046,-0.46612 -1.277959,-0.46612 z m 6.518982,0 c -0.558769,0 -0.999506,0.17394 -1.287776,0.46354 -0.288279,0.28961 -0.41031,0.67359 -0.410311,1.03973 v 3.7822 c 10e-7,0.49582 0.262232,0.89422 0.595829,1.13481 0.33359,0.24057 0.732706,0.35295 1.102258,0.35295 0.369547,0 0.765561,-0.11129 1.095024,-0.35295 0.329471,-0.24162 0.586011,-0.64146 0.586011,-1.13481 v -3.7822 c 0,-0.3645 -0.11843,-0.74678 -0.403076,-1.03715 -0.284644,-0.29038 -0.723044,-0.46612 -1.277959,-0.46612 z m 3.799768,0 c -0.558769,0 -0.9995,0.17394 -1.287776,0.46354 -0.288275,0.28961 -0.410309,0.67359 -0.410311,1.03973 v 3.7822 c 2e-6,0.49582 0.262238,0.89422 0.595829,1.13481 0.333594,0.24057 0.732706,0.35295 1.102258,0.35295 0.369547,0 0.765558,-0.11129 1.095024,-0.35295 0.329471,-0.24162 0.586011,-0.64146 0.586011,-1.13481 v -3.7822 c 0,-0.3645 -0.11843,-0.74678 -0.403076,-1.03715 -0.284644,-0.29038 -0.723044,-0.46612 -1.277959,-0.46612 z m 7.321517,0 c -0.558769,0 -0.999503,0.17394 -1.287776,0.46354 -0.288279,0.28961 -0.41031,0.67359 -0.410311,1.03973 v 3.7822 c 10e-7,0.49582 0.262233,0.89422 0.595829,1.13481 0.333594,0.24057 0.732707,0.35295 1.102258,0.35295 0.369551,0 0.765557,-0.11129 1.095024,-0.35295 0.329468,-0.24162 0.586011,-0.64146 0.586011,-1.13481 v -3.7822 c 0,-0.3645 -0.118433,-0.74678 -0.403076,-1.03715 -0.284644,-0.29038 -0.723039,-0.46612 -1.277959,-0.46612 z m 34.121945,0 c -0.39175,0.001 -0.71443,0.32484 -0.71417,0.71675 3.9e-4,0.39223 0.32454,0.71844 0.71676,0.71882 a 0.32066355,0.32066355 0 0 0 0.003,0 h 0.1297 v 3.92018 h -0.1297 -0.0108 c -0.38788,4.5e-4 -0.7087,0.32062 -0.70849,0.70848 6.6e-4,0.37373 0.30109,0.68717 0.67386,0.70693 0.0103,5.9e-4 0.0221,0.003 0.0326,0.003 0.0169,2.1e-4 0.0327,-5.9e-4 0.0496,-0.003 l -0.0171,0.003 h 2.7802 0.0109 a 0.32066355,0.32066355 0 0 0 0.0124,-0.005 c 0.37708,-0.0132 0.68531,-0.32329 0.68678,-0.70125 v -0.003 c 2e-5,-0.004 1e-5,-0.006 0,-0.01 v -0.83974 c 2e-4,-0.3883 -0.32069,-0.7087 -0.709,-0.70849 -0.38831,-2.2e-4 -0.70973,0.32018 -0.70952,0.70849 v 0.14056 h -0.54363 v -1.23507 h 0.66145 c 0.39287,-5e-5 0.71619,-0.32338 0.71624,-0.71624 -5e-5,-0.39286 -0.32337,-0.71929 -0.71624,-0.71933 h -0.66145 v -1.25005 h 0.54363 v 0.10025 0.0207 c -1.4e-4,0.004 6e-5,0.009 0,0.0124 a 0.32066355,0.32066355 0 0 0 0,0.005 c 6e-5,0.38856 0.32304,0.70907 0.71159,0.70848 0.38717,-0.001 0.70842,-0.32107 0.70848,-0.70848 l -0.003,-0.86455 c -6e-5,-0.38809 -0.32039,-0.70894 -0.70848,-0.709 h -2.78795 c -0.005,-8e-5 -0.009,-5e-5 -0.015,0 z m 8.13129,0 c -0.55877,0 -0.99949,0.17394 -1.28778,0.46354 -0.28827,0.28961 -0.41031,0.67359 -0.41031,1.03973 v 3.7822 c 0,0.49582 0.26223,0.89422 0.59583,1.13481 0.33359,0.24057 0.7327,0.35347 1.10226,0.35347 0.36955,0 0.76557,-0.11181 1.09502,-0.35347 0.32948,-0.24162 0.5855,-0.64146 0.5855,-1.13481 v -3.7822 c 0,-0.3645 -0.11785,-0.74678 -0.40256,-1.03715 -0.28464,-0.29038 -0.72303,-0.46612 -1.27796,-0.46612 z m 6.48229,0 c -0.55877,0 -0.9995,0.17394 -1.28778,0.46354 -0.28828,0.28961 -0.40979,0.67359 -0.40979,1.03973 v 3.7822 c 0,0.49582 0.26223,0.89422 0.59583,1.13481 0.33359,0.24057 0.73218,0.35347 1.10174,0.35347 0.36955,0 0.76557,-0.11181 1.09502,-0.35347 0.32948,-0.24162 0.58602,-0.64146 0.58602,-1.13481 v -3.7822 c 0,-0.3645 -0.11837,-0.74678 -0.40308,-1.03715 -0.28465,-0.29038 -0.72303,-0.46612 -1.27796,-0.46612 z m 3.79977,0 c -0.55877,0 -0.99949,0.17394 -1.28778,0.46354 -0.28827,0.28961 -0.41031,0.67359 -0.41031,1.03973 v 3.7822 c 0,0.49582 0.26223,0.89422 0.59583,1.13481 0.3336,0.24057 0.7327,0.35347 1.10226,0.35347 0.36954,0 0.76555,-0.11181 1.09502,-0.35347 0.32946,-0.24162 0.58601,-0.64146 0.58601,-1.13481 v -3.7822 c 0,-0.3645 -0.11836,-0.74678 -0.40307,-1.03715 -0.28464,-0.29038 -0.72305,-0.46612 -1.27796,-0.46612 z m 7.32152,0 c -0.55877,0 -0.9995,0.17394 -1.28778,0.46354 -0.28828,0.28961 -0.41031,0.67359 -0.41031,1.03973 v 3.7822 c 0,0.49582 0.26227,0.89422 0.59583,1.13481 0.3336,0.24057 0.7327,0.35347 1.10226,0.35347 0.36955,0 0.76555,-0.11181 1.09502,-0.35347 0.32948,-0.24162 0.58601,-0.64146 0.58601,-1.13481 v -3.7822 c 0,-0.3645 -0.11837,-0.74678 -0.40308,-1.03715 -0.28465,-0.29038 -0.72303,-0.46612 -1.27795,-0.46612 z m -14.38,0.0134 c -0.61008,-1e-5 -1.10951,0.49992 -1.1095,1.11001 0,0.61008 0.49942,1.1095 1.1095,1.10949 0.61007,1e-5 1.10951,-0.49941 1.10949,-1.10949 2e-5,-0.61009 -0.49942,-1.11002 -1.10949,-1.11001 z m -59.890405,0.0165 c -0.610078,-1e-5 -1.109507,0.49992 -1.109493,1.11001 -5e-6,0.61008 0.499421,1.10951 1.109493,1.1095 0.610077,1e-5 1.109498,-0.49942 1.109493,-1.1095 1.5e-5,-0.61009 -0.499409,-1.11002 -1.109493,-1.11001 z m 9.876916,0.0501 c 0.302594,1.7e-4 0.553273,0.25086 0.553455,0.55345 v 1.27538 c -1.72e-4,0.3026 -0.250855,0.55121 -0.553455,0.55139 -0.302983,3.7e-4 -0.553282,-0.24841 -0.553454,-0.55139 v -1.27538 c 1.84e-4,-0.30298 0.250477,-0.55384 0.553454,-0.55345 z m 1.699638,0 c 0.302594,1.7e-4 0.553273,0.25086 0.553455,0.55345 v 1.27538 c -1.71e-4,0.3026 -0.250854,0.55121 -0.553455,0.55139 -0.302983,3.7e-4 -0.553282,-0.24841 -0.553454,-0.55139 v -1.27538 c 1.83e-4,-0.30298 0.250477,-0.55384 0.553454,-0.55345 z m 5.614645,0.003 c 0.302592,1.8e-4 0.553272,0.25086 0.553454,0.55346 v 1.27537 c -1.72e-4,0.3026 -0.250855,0.55121 -0.553454,0.55139 -0.302984,3.8e-4 -0.553283,-0.2484 -0.553455,-0.55139 v -1.27537 c 1.83e-4,-0.30298 0.250478,-0.55384 0.553455,-0.55346 z m 52.541496,0 c 0.3026,1.8e-4 0.55327,0.25086 0.55345,0.55346 v 1.27485 c -1.8e-4,0.3026 -0.25085,0.55121 -0.55345,0.55139 -0.30298,3.8e-4 -0.55328,-0.2484 -0.55346,-0.55139 v -1.27485 c 2e-4,-0.30298 0.25048,-0.55384 0.55346,-0.55346 z m 1.69912,0 c 0.30259,1.8e-4 0.55326,0.25086 0.55345,0.55346 v 1.27485 c -1.7e-4,0.3026 -0.25085,0.55121 -0.55345,0.55139 -0.30298,3.8e-4 -0.55329,-0.2484 -0.55346,-0.55139 v -1.27485 c 1.8e-4,-0.30298 0.25048,-0.55384 0.55346,-0.55346 z m 5.61516,0.003 c 0.3026,1.8e-4 0.55328,0.25086 0.55346,0.55346 v 1.27537 c -1.6e-4,0.3026 -0.25086,0.55121 -0.55346,0.55139 -0.30298,3.7e-4 -0.55327,-0.24841 -0.55345,-0.55139 v -1.27537 c 1.9e-4,-0.30299 0.25048,-0.55385 0.55345,-0.55346 z m -89.728372,0.0419 c 0.325102,-3.5e-4 0.53644,0.006 0.730188,0.12868 0.22143,0.13954 0.334188,0.36844 0.553455,0.76584 l 1.487765,2.69854 v -2.41277 H 63.12505 c -0.0045,6e-5 -0.01002,3e-5 -0.01447,0 -0.323448,-1.1e-4 -0.588825,-0.26772 -0.588595,-0.59118 3.13e-4,-0.32308 0.265522,-0.58849 0.588595,-0.58859 h 1.67535 c 0.323819,-4.4e-4 0.59141,0.26477 0.591178,0.58859 -3.11e-4,0.32346 -0.267733,0.59161 -0.591178,0.59118 h -0.257866 v 4.17546 h 0.267684 c 0.318947,-2.8e-4 0.581438,0.26241 0.58136,0.58136 -4.67e-4,0.3186 -0.26279,0.58164 -0.58136,0.58136 h -1.672766 -0.0078 c -0.0045,6e-5 -0.0085,3e-5 -0.01292,0 -0.318579,-2.6e-4 -0.581439,-0.26276 -0.581359,-0.58136 4.67e-4,-0.3182 0.263156,-0.5811 0.581359,-0.58136 h 0.07751 l -1.78077,-2.913 v 2.913 h 0.290939 c 0.318203,2.6e-4 0.580377,0.26316 0.580843,0.58136 8e-5,0.3186 -0.262263,0.5811 -0.580843,0.58136 h -1.701189 c -0.318203,-2.6e-4 -0.580894,-0.26314 -0.581359,-0.58136 -8e-5,-0.3179 0.261643,-0.58008 0.579292,-0.58136 h 0.0021 c 0.0045,-4e-5 0.008,-6e-5 0.0124,0 h 0.0083 0.244946 v -4.17546 h -0.257865 c -0.323064,-1.1e-4 -0.588285,-0.2681 -0.588595,-0.59118 -2.32e-4,-0.32276 0.263496,-0.58736 0.586011,-0.58859 h 0.0026 c 0.0044,-4e-5 0.0085,-7e-5 0.01292,0 h 0.438216 c 0.05136,0 0.0998,-4.7e-4 0.146244,-5.2e-4 z m 61.219522,0 c 0.005,-7e-5 0.01,-7e-5 0.015,0 h 2.78795 c 0.3188,5e-5 0.58337,0.26257 0.58342,0.58136 v 0.86403 c -5e-5,0.3188 -0.26206,0.58131 -0.58084,0.58136 -0.31919,4.9e-4 -0.58338,-0.26219 -0.58343,-0.58136 a 0.19239814,0.19239814 0 0 1 0,-0.003 c 0,-0.004 0.002,-0.009 0.002,-0.0129 a 0.19239814,0.19239814 0 0 1 -0.002,-0.003 v -0.25064 h -0.79943 v 1.50741 h 0.78858 c 0.32357,4e-5 0.5896,0.26607 0.58963,0.58962 a 0.19239814,0.19239814 0 0 0 0,5.2e-4 0.19239814,0.19239814 0 0 0 0,5.2e-4 0.19239814,0.19239814 0 0 0 0,5.1e-4 c -3e-5,0.32356 -0.26606,0.58959 -0.58963,0.58963 h -0.78858 v 1.48983 h 0.79892 v -0.26768 c -1.7e-4,-0.31826 0.26333,-0.58041 0.58136,-0.58136 h 0.003 c 0.31801,9.6e-4 0.58152,0.2631 0.58136,0.58136 v 0.83871 c 2e-5,0.004 2e-5,0.006 0,0.0103 v 0.003 c -0.001,0.31246 -0.25581,0.5685 -0.56844,0.57619 a 0.19239814,0.19239814 0 0 1 -0.005,0.003 h -0.01 -2.78122 l 0.0109,-0.003 c -0.0139,0.001 -0.027,0.003 -0.0408,0.003 -0.009,0 -0.0179,-0.002 -0.0269,-0.003 -0.30764,-0.0145 -0.55289,-0.27079 -0.55345,-0.57878 -1.6e-4,-0.31858 0.26175,-0.58047 0.58033,-0.58084 h 0.0108 0.25786 v -4.17545 h -0.25786 a 0.19239814,0.19239814 0 0 1 -0.003,0 c -0.323,-3.2e-4 -0.58826,-0.26817 -0.5886,-0.59118 -2.1e-4,-0.32336 0.26522,-0.58828 0.5886,-0.5886 z m 8.1287,0 c 0.52914,0 0.92972,0.16281 1.18752,0.42582 0.25782,0.26301 0.36536,0.61274 0.36536,0.94981 v 3.7822 c 0,0.45161 -0.22962,0.80926 -0.5333,1.03198 -0.30369,0.22273 -0.67767,0.32814 -1.01958,0.32814 -0.34191,0 -0.71885,-0.106 -1.02681,-0.32814 -0.30797,-0.22209 -0.54415,-0.5789 -0.54415,-1.03198 v -3.7822 c 0,-0.33806 0.11281,-0.68728 0.37413,-0.94981 0.26134,-0.26255 0.66362,-0.42582 1.19683,-0.42582 z m 6.48229,0 c 0.52913,0 0.93024,0.16281 1.18804,0.42582 0.25782,0.26301 0.36484,0.61274 0.36484,0.94981 v 3.7822 c 0,0.45161 -0.2296,0.80926 -0.5333,1.03198 -0.30369,0.22273 -0.67767,0.32814 -1.01958,0.32814 -0.34191,0 -0.71833,-0.106 -1.02629,-0.32814 -0.30797,-0.22209 -0.54416,-0.5789 -0.54416,-1.03198 v -3.7822 c 0,-0.33806 0.11232,-0.68728 0.37362,-0.94981 0.26134,-0.26255 0.66362,-0.42582 1.19683,-0.42582 z m 3.79977,0 c 0.52912,0 0.9297,0.16281 1.18752,0.42582 0.2578,0.26301 0.36536,0.61274 0.36536,0.94981 v 3.7822 c 0,0.45161 -0.22962,0.80926 -0.5333,1.03198 -0.3037,0.22273 -0.67768,0.32814 -1.01958,0.32814 -0.34191,0 -0.71885,-0.106 -1.02681,-0.32814 -0.30797,-0.22209 -0.54364,-0.5789 -0.54364,-1.03198 v -3.7822 c 0,-0.33806 0.11231,-0.68728 0.37362,-0.94981 0.26134,-0.26255 0.66362,-0.42582 1.19683,-0.42582 z m 7.32152,0 c 0.52912,0 0.92972,0.16281 1.18752,0.42582 0.25782,0.26301 0.36535,0.61274 0.36535,0.94981 v 3.7822 c 0,0.45161 -0.2296,0.80926 -0.5333,1.03198 -0.3037,0.22273 -0.67766,0.32814 -1.01957,0.32814 -0.34191,0 -0.71833,-0.106 -1.0263,-0.32814 -0.30796,-0.22209 -0.54415,-0.5789 -0.54415,-1.03198 v -3.7822 c 0,-0.33806 0.1123,-0.68728 0.37362,-0.94981 0.26134,-0.26255 0.66362,-0.42582 1.19683,-0.42582 z m -77.497082,5.2e-4 c 0.529119,0 0.930242,0.1628 1.188042,0.42581 0.257806,0.26301 0.364836,0.61223 0.364835,0.9493 v 3.78271 c 10e-7,0.45161 -0.2296,0.80926 -0.5333,1.03198 -0.303693,0.22273 -0.677666,0.32815 -1.019577,0.32815 -0.341909,0 -0.718328,-0.10605 -1.026293,-0.32815 -0.307968,-0.22209 -0.544151,-0.5789 -0.544153,-1.03198 v -3.78271 c 2e-6,-0.33806 0.112296,-0.68677 0.37362,-0.9493 0.261335,-0.26255 0.663621,-0.42581 1.196826,-0.42581 z m 6.518982,0 c 0.529121,0 0.93024,0.1628 1.188042,0.42581 0.257806,0.26301 0.364836,0.61223 0.364835,0.9493 v 3.78271 c 10e-7,0.45161 -0.229598,0.80926 -0.533301,1.03198 -0.303697,0.22273 -0.677669,0.32815 -1.019576,0.32815 -0.34191,0 -0.718332,-0.10601 -1.026294,-0.32815 -0.307966,-0.22209 -0.544149,-0.5789 -0.544152,-1.03198 v -3.78271 c 3e-6,-0.33806 0.112288,-0.68677 0.37362,-0.9493 0.261335,-0.26255 0.66362,-0.42581 1.196826,-0.42581 z m 3.799768,0 c 0.529121,0 0.92972,0.1628 1.187525,0.42581 0.257809,0.26301 0.365353,0.61223 0.365352,0.9493 v 3.78271 c 10e-7,0.45161 -0.2296,0.80926 -0.5333,1.03198 -0.3037,0.22273 -0.67767,0.32815 -1.019577,0.32815 -0.341909,0 -0.71885,-0.10601 -1.02681,-0.32815 -0.307968,-0.22209 -0.54415,-0.5789 -0.544153,-1.03198 v -3.78271 c 3e-6,-0.33806 0.112805,-0.68677 0.374137,-0.9493 0.261335,-0.26255 0.66362,-0.42581 1.196826,-0.42581 z m 7.321517,0 c 0.529126,0 0.929719,0.1628 1.187525,0.42581 0.257806,0.26301 0.365353,0.61223 0.365352,0.9493 v 3.78271 c 10e-7,0.45161 -0.229601,0.80926 -0.533301,1.03198 -0.303697,0.22273 -0.677665,0.32815 -1.019576,0.32815 -0.341909,0 -0.718845,-0.10601 -1.02681,-0.32815 -0.307968,-0.22209 -0.543634,-0.5789 -0.543636,-1.03198 v -3.78271 c 2e-6,-0.33806 0.112288,-0.68677 0.37362,-0.9493 0.261332,-0.26255 0.663621,-0.42581 1.196826,-0.42581 z m 45.451485,0.0129 c 0.009,-2.1e-4 0.017,0 0.0253,0 0.54075,-2e-5 0.98238,0.44159 0.98236,0.98237 2e-5,0.54076 -0.44161,0.98133 -0.98236,0.98133 -0.54075,0 -0.98134,-0.44057 -0.98134,-0.98133 -1e-5,-0.53233 0.42686,-0.96888 0.95601,-0.98237 z m -59.890397,0.017 c 0.0084,-2.1e-4 0.01688,0 0.02532,0 0.540768,-2e-5 0.981865,0.44159 0.981852,0.98237 5e-6,0.54076 -0.441089,0.98134 -0.981852,0.98134 -0.540761,0 -0.981857,-0.44058 -0.981852,-0.98134 -1.3e-5,-0.53233 0.427373,-0.96888 0.95653,-0.98237 z m 37.743437,0.0904 c 0.46601,0.67626 0.80219,1.42483 0.96996,2.22932 l -1.91874,-0.32763 z m -9.96425,0.003 0.94981,1.89859 -1.9172,0.32814 c 0.16753,-0.8034 0.50236,-1.55114 0.96739,-2.22673 z m 32.13757,0.0181 a 0.85362886,0.85362886 0 0 0 -0.8537,0.8537 0.85362886,0.85362886 0 0 0 0.8537,0.85318 0.85362886,0.85362886 0 0 0 0.85318,-0.85318 0.85362886,0.85362886 0 0 0 -0.85318,-0.8537 z m -50.014519,0.004 a 0.36009432,0.36009432 0 0 0 -0.360184,0.36018 v 1.27486 a 0.36009432,0.36009432 0 0 0 0.360184,0.36018 0.36009432,0.36009432 0 0 0 0.360185,-0.36018 v -1.27486 a 0.36009432,0.36009432 0 0 0 -0.360185,-0.36018 z m 1.699638,0 a 0.36009432,0.36009432 0 0 0 -0.360701,0.36018 v 1.27486 a 0.36009432,0.36009432 0 0 0 0.360701,0.36018 0.36009432,0.36009432 0 0 0 0.359668,-0.36018 v -1.27486 a 0.36009432,0.36009432 0 0 0 -0.359668,-0.36018 z m 58.156141,0.003 a 0.36009432,0.36009432 0 0 0 -0.3607,0.36019 v 1.27485 a 0.36009432,0.36009432 0 0 0 0.3607,0.36019 0.36009432,0.36009432 0 0 0 0.35967,-0.36019 v -1.27485 a 0.36009432,0.36009432 0 0 0 -0.35967,-0.36019 z m 1.69912,0 a 0.36009432,0.36009432 0 0 0 -0.3607,0.36019 v 1.27485 a 0.36009432,0.36009432 0 0 0 0.3607,0.36019 0.36009432,0.36009432 0 0 0 0.36018,-0.36019 v -1.27485 a 0.36009432,0.36009432 0 0 0 -0.36018,-0.36019 z m -54.240616,5.2e-4 a 0.36009432,0.36009432 0 0 0 -0.360702,0.36018 v 1.27486 a 0.36009432,0.36009432 0 0 0 0.360702,0.36018 0.36009432,0.36009432 0 0 0 0.360184,-0.36018 v -1.27486 a 0.36009432,0.36009432 0 0 0 -0.360184,-0.36018 z m 59.855776,0.003 a 0.36009432,0.36009432 0 0 0 -0.3607,0.35967 v 1.27537 a 0.36009432,0.36009432 0 0 0 0.3607,0.35967 0.36009432,0.36009432 0 0 0 0.35967,-0.35967 v -1.27537 a 0.36009432,0.36009432 0 0 0 -0.35967,-0.35967 z m -77.046458,0.008 a 0.85362886,0.85362886 0 0 0 -0.853695,0.85318 0.85362886,0.85362886 0 0 0 0.853695,0.8537 0.85362886,0.85362886 0 0 0 0.853694,-0.8537 0.85362886,0.85362886 0 0 0 -0.853694,-0.85318 z m 48.538638,0.032 a 0.39739828,0.39739828 0 0 0 -0.39687,0.39791 0.39739828,0.39739828 0 0 0 0.39687,0.39688 h 0.45165 v 4.56096 h -0.44958 -0.0103 a 0.38883623,0.38883623 0 0 0 -0.3886,0.38912 0.38883623,0.38883623 0 0 0 0.37052,0.38757 0.38883623,0.38883623 0 0 0 0.0186,0.001 0.38883623,0.38883623 0 0 0 0.0279,-0.001 h 5.2e-4 l 2.78174,0.001 h 0.009 l 0.001,-0.001 a 0.38883623,0.38883623 0 0 0 0.37982,-0.38809 0.38883623,0.38883623 0 0 0 0,-5.1e-4 0.38883623,0.38883623 0 0 0 0,-5.2e-4 0.38883623,0.38883623 0 0 0 0,-5.2e-4 0.38883623,0.38883623 0 0 0 0,-5.1e-4 0.38883623,0.38883623 0 0 0 0,-5.2e-4 0.38883623,0.38883623 0 0 0 0,-5.2e-4 0.38883623,0.38883623 0 0 0 0,-5.1e-4 0.38883623,0.38883623 0 0 0 0,-5.2e-4 0.38883623,0.38883623 0 0 0 0,-5.2e-4 0.38883623,0.38883623 0 0 0 0,-5.1e-4 0.38883623,0.38883623 0 0 0 0,-5.2e-4 0.38883623,0.38883623 0 0 0 0,-5.2e-4 0.38883623,0.38883623 0 0 0 0,-5.1e-4 0.38883623,0.38883623 0 0 0 0,-5.2e-4 0.38883623,0.38883623 0 0 0 0,-5.2e-4 0.38883623,0.38883623 0 0 0 0,-5.1e-4 0.38883623,0.38883623 0 0 0 0,-5.2e-4 0.38883623,0.38883623 0 0 0 0,-5.2e-4 0.38883623,0.38883623 0 0 0 0,-5.1e-4 0.38883623,0.38883623 0 0 0 0,-5.2e-4 v -0.83819 a 0.38883623,0.38883623 0 0 0 -0.38912,-0.38913 0.38883623,0.38883623 0 0 0 -0.38912,0.38913 v 0.45992 h -1.18443 v -1.87431 h 0.98082 a 0.39770551,0.39770551 0 0 0 0.39791,-0.39739 0.39770551,0.39770551 0 0 0 -0.39791,-0.39791 h -0.98082 v -1.89135 h 1.18443 v 0.44183 h 5.1e-4 a 0.38910559,0.38910559 0 0 0 -5.1e-4,0.0176 0.38910559,0.38910559 0 0 0 0.38964,0.38861 0.38910559,0.38910559 0 0 0 0.38912,-0.38861 l -5.2e-4,-0.86506 a 0.38910559,0.38910559 0 0 0 -0.38912,-0.38913 h -2.79156 a 0.39739828,0.39739828 0 0 0 -0.0109,0 z m 8.12819,0 c -0.98973,0 -1.3782,0.59204 -1.37821,1.18391 v 3.78271 c 1e-5,0.77794 0.77732,1.16686 1.37821,1.16686 0.6009,0 1.36066,-0.38892 1.36064,-1.16686 v -3.78271 c 2e-5,-0.59187 -0.37977,-1.18391 -1.36064,-1.18391 z m 6.4828,0 c -0.98971,0 -1.37871,0.59204 -1.37872,1.18391 v 3.78271 c 1e-5,0.77794 0.77785,1.16686 1.37872,1.16686 0.6009,0 1.36066,-0.38892 1.36064,-1.16686 v -3.78271 c 2e-5,-0.59187 -0.3798,-1.18391 -1.36064,-1.18391 z m 3.79926,0 c -0.98972,0 -1.37819,0.59204 -1.37821,1.18391 v 3.78271 c 2e-5,0.77794 0.77732,1.16686 1.37821,1.16686 0.60087,0 1.36064,-0.38892 1.36064,-1.16686 v -3.78271 c 0,-0.59187 -0.37982,-1.18391 -1.36064,-1.18391 z m 7.32203,0 c -0.98973,0 -1.37873,0.59204 -1.37873,1.18391 v 3.78271 c 0,0.77794 0.77782,1.16686 1.37873,1.16686 0.60089,0 1.36064,-0.38892 1.36064,-1.16686 v -3.78271 c 0,-0.59187 -0.37978,-1.18391 -1.36064,-1.18391 z m -87.550211,0.001 a 0.39712228,0.3973748 0 0 0 -0.396875,0.39739 0.39712228,0.3973748 0 0 0 0.396875,0.39687 h 0.451652 v 4.56148 h -0.439767 -0.0098 a 0.38869741,0.38894456 0 0 0 -0.01033,0 0.38869741,0.38894456 0 0 0 -0.388607,0.38912 0.38869741,0.38894456 0 0 0 0.388607,0.38809 h 1.702738 a 0.38869723,0.38894438 0 0 0 0.38809,-0.38912 0.38869723,0.38894438 0 0 0 -0.38809,-0.38809 h -0.482891 v -3.78943 l 2.313554,3.78943 h -0.419613 a 0.38869746,0.38894463 0 0 0 -0.38809,0.38809 0.38869746,0.38894463 0 0 0 0.38809,0.38912 0.38869746,0.38894463 0 0 0 0.01085,0 h 0.0098 1.672766 a 0.38869799,0.38894514 0 0 0 0.389124,-0.38809 0.38869799,0.38894514 0 0 0 -0.389124,-0.38912 h -0.459403 v -4.56148 h 0.450618 a 0.39712228,0.3973748 0 0 0 0.397909,-0.39687 0.39712228,0.3973748 0 0 0 -0.397909,-0.39739 h -1.675867 a 0.3971246,0.39737712 0 0 0 -0.396875,0.39687 0.3971246,0.39737712 0 0 0 0.396875,0.39739 0.3971246,0.39737712 0 0 0 0.01034,0 h 0.437182 v 3.35329 l -1.850016,-3.35329 c -0.438539,-0.7948 -0.438467,-0.79426 -1.260388,-0.79426 h -0.4408 a 0.39712228,0.3973748 0 0 0 -0.01085,0 z m 10.053133,0 c -0.989723,0 -1.378725,0.59152 -1.378727,1.18339 v 3.78323 c 2e-6,0.77794 0.777831,1.16633 1.378727,1.16633 0.600889,0 1.360641,-0.38839 1.36064,-1.16633 v -3.78323 c 10e-7,-0.59187 -0.379776,-1.18339 -1.36064,-1.18339 z m 6.518982,0 c -0.989719,0 -1.378724,0.59152 -1.378727,1.18339 v 3.78323 c 3e-6,0.77794 0.777835,1.16633 1.378727,1.16633 0.600895,0 1.360641,-0.38839 1.36064,-1.16633 v -3.78323 c 10e-7,-0.59187 -0.37977,-1.18339 -1.36064,-1.18339 z m 3.799251,0 c -0.98972,0 -1.378208,0.59152 -1.37821,1.18339 v 3.78323 c 2e-6,0.77794 0.777317,1.16633 1.37821,1.16633 0.600896,0 1.360642,-0.38839 1.360641,-1.16633 v -3.78323 c 10e-7,-0.59187 -0.379771,-1.18339 -1.360641,-1.18339 z m 7.321517,0 c -0.98972,0 -1.378208,0.59152 -1.37821,1.18339 v 3.78323 c 2e-6,0.77794 0.777314,1.16633 1.37821,1.16633 0.600894,0 1.360642,-0.38839 1.360641,-1.16633 v -3.78323 c 10e-7,-0.59187 -0.379773,-1.18339 -1.360641,-1.18339 z m 45.477328,0.30437 a 0.49838754,0.49838754 0 0 1 0.49816,0.49868 0.49838754,0.49838754 0 0 1 -0.49816,0.49816 0.49838754,0.49838754 0 0 1 -0.49868,-0.49816 0.49838754,0.49838754 0 0 1 0.49868,-0.49868 z m -59.890918,0.0176 a 0.49838754,0.49838754 0 0 1 0.498161,0.49816 0.49838754,0.49838754 0 0 1 -0.498161,0.49868 0.49838754,0.49838754 0 0 1 -0.498161,-0.49868 0.49838754,0.49838754 0 0 1 0.498161,-0.49816 z m 59.889888,0.11007 c -0.20594,-1e-5 -0.37052,0.16509 -0.37052,0.37104 0,0.20595 0.16459,0.37053 0.37052,0.37052 0.20593,1e-5 0.37103,-0.16457 0.37103,-0.37052 0,-0.20595 -0.1651,-0.37105 -0.37103,-0.37104 z m -59.890405,0.0171 c -0.205941,-1e-5 -0.370525,0.16509 -0.37052,0.37104 0,0.20595 0.164583,0.37054 0.37052,0.37052 0.205943,2e-5 0.371038,-0.16457 0.371037,-0.37052 6e-6,-0.20595 -0.165091,-0.37105 -0.371037,-0.37104 z m 59.877995,0.11318 c 0.004,-1.9e-4 0.009,0 0.0124,0 0.13663,0 0.24341,0.10423 0.24339,0.24081 0,0.13663 -0.10673,0.24238 -0.24339,0.24236 -0.13662,2e-5 -0.24031,-0.10573 -0.2403,-0.24236 -1e-5,-0.13236 0.0976,-0.23459 0.22789,-0.24081 z m -59.890914,0.0176 c 0.0042,-1.9e-4 0.0087,0 0.01292,0 0.136631,0 0.242882,0.10371 0.242879,0.24029 0,0.13663 -0.106249,0.2429 -0.242879,0.24288 -0.136623,2e-5 -0.240813,-0.10625 -0.240812,-0.24288 -4e-6,-0.13236 0.09759,-0.23407 0.227892,-0.24029 z m 56.680264,0.21394 c 0.30044,0 0.60047,0.19464 0.60048,0.38912 v 3.6065 0.17621 c 0,0.19449 -0.30004,0.38913 -0.60048,0.38913 -0.30045,0 -0.601,-0.19464 -0.601,-0.38913 0.006,-1.25491 -0.006,-2.52772 0,-3.78271 0,-0.19448 0.30055,-0.38912 0.601,-0.38912 z m 6.4828,0 c 0.30044,0 0.60047,0.19464 0.60048,0.38912 v 3.6065 0.17621 c 0,0.19449 -0.30004,0.38913 -0.60048,0.38913 -0.30045,0 -0.60151,-0.19464 -0.60151,-0.38913 0.006,-1.25491 -0.006,-2.52772 0,-3.78271 0,-0.19448 0.30106,-0.38912 0.60151,-0.38912 z m 3.79926,0 c 0.30045,0 0.60048,0.19464 0.60048,0.38912 v 3.6065 0.17621 c 0,0.19449 -0.30003,0.38913 -0.60048,0.38913 -0.30044,0 -0.601,-0.19464 -0.601,-0.38913 0.006,-1.25491 -0.006,-2.52772 0,-3.78271 0,-0.19448 0.30056,-0.38912 0.601,-0.38912 z m 7.32151,0 c 0.30043,0 0.60048,0.19464 0.60048,0.38912 v 3.6065 0.17621 c 2e-5,0.19449 -0.30005,0.38913 -0.60048,0.38913 -0.30046,0 -0.60099,-0.19464 -0.60099,-0.38913 0.006,-1.25491 -0.006,-2.52772 0,-3.78271 0,-0.19448 0.30053,-0.38912 0.60099,-0.38912 z m -77.496558,5.1e-4 c 0.300431,0 0.600475,0.19465 0.60048,0.38913 v 3.60701 0.17622 c 2e-6,0.19449 -0.300047,0.38912 -0.60048,0.38912 -0.300448,0 -0.601514,-0.19463 -0.601514,-0.38912 0.0059,-1.2549 -0.0059,-2.52826 0,-3.78323 2e-6,-0.19448 0.301066,-0.38913 0.601514,-0.38913 z m 6.518982,0 c 0.300437,0 0.600475,0.19465 0.60048,0.38913 v 3.60701 0.17622 c 10e-7,0.19449 -0.30004,0.38912 -0.60048,0.38912 -0.300444,0 -0.601514,-0.19463 -0.601514,-0.38912 0.0059,-1.25493 -0.0059,-2.52826 0,-3.78323 3e-6,-0.19448 0.30107,-0.38913 0.601514,-0.38913 z m 3.799251,0 c 0.300436,0 0.600475,0.19465 0.60048,0.38913 v 3.60701 0.17622 c 10e-7,0.19449 -0.300041,0.38912 -0.60048,0.38912 -0.300443,0 -0.600997,-0.19463 -0.600997,-0.38912 0.0059,-1.25493 -0.0059,-2.52826 0,-3.78323 3e-6,-0.19448 0.300554,-0.38913 0.600997,-0.38913 z m 7.321517,0 c 0.300437,0 0.600474,0.19465 0.60048,0.38913 v 3.60701 0.17622 c 10e-7,0.19449 -0.30004,0.38912 -0.60048,0.38912 -0.300448,0 -0.600997,-0.19463 -0.600997,-0.38912 0.0059,-1.25494 -0.0059,-2.52826 0,-3.78323 3e-6,-0.19448 0.300549,-0.38913 0.600997,-0.38913 z m 42.252718,0.19276 c -0.10863,0 -0.22798,0.0386 -0.30799,0.0904 -0.08,0.0517 -0.0997,0.10671 -0.0997,0.10542 -0.006,1.25235 0.006,2.52623 0,3.7822 v 0.003 c 5e-4,-5.1e-4 0.0207,0.0532 0.0997,0.10438 0.08,0.0517 0.1993,0.0904 0.30799,0.0904 0.10863,0 0.22818,-0.0387 0.30799,-0.0904 0.0798,-0.0517 0.10025,-0.10825 0.10025,-0.10697 v -0.1757 -3.60701 c 0,0.001 -0.0205,-0.0538 -0.10025,-0.10542 -0.0798,-0.0517 -0.19929,-0.0899 -0.30799,-0.0899 z m 6.48229,0 c -0.10863,0 -0.22798,0.0386 -0.30799,0.0904 -0.08,0.0517 -0.10025,0.10671 -0.10025,0.10542 -0.006,1.25235 0.006,2.52623 0,3.7822 v 0.003 c 5e-4,-5.1e-4 0.0213,0.0532 0.10025,0.10438 0.08,0.0517 0.1993,0.0904 0.30799,0.0904 0.10863,0 0.2287,-0.0387 0.30851,-0.0904 0.0798,-0.0517 0.0997,-0.10825 0.0997,-0.10697 v -0.1757 -3.60701 c 0,0.001 -0.0199,-0.0538 -0.0997,-0.10542 -0.0798,-0.0517 -0.19981,-0.0899 -0.30851,-0.0899 z m 3.79977,0 c -0.10863,0 -0.22799,0.0386 -0.30799,0.0904 -0.08,0.0517 -0.10025,0.10671 -0.10025,0.10542 -0.006,1.25235 0.006,2.52623 0,3.7822 v 0.003 c 5e-4,-5.1e-4 0.0213,0.0532 0.10025,0.10438 0.08,0.0517 0.19929,0.0904 0.30799,0.0904 0.10863,0 0.22872,-0.0387 0.30851,-0.0904 0.0798,-0.0517 0.0997,-0.10825 0.0997,-0.10697 v -0.1757 -3.60701 c 0,0.001 -0.0199,-0.0538 -0.0997,-0.10542 -0.0798,-0.0517 -0.19982,-0.0899 -0.30851,-0.0899 z m 7.32152,0 c -0.10863,0 -0.22799,0.0386 -0.308,0.0904 -0.08,0.0517 -0.10025,0.10671 -0.10025,0.10542 -0.006,1.25235 0.006,2.52623 0,3.7822 v 0.003 c 5e-4,-5.1e-4 0.0213,0.0532 0.10025,0.10438 0.08,0.0517 0.19931,0.0904 0.308,0.0904 0.10863,0 0.2287,-0.0387 0.3085,-0.0904 0.0798,-0.0517 0.0997,-0.10825 0.0997,-0.10697 v -0.1757 -3.60701 c 0,0.001 -0.02,-0.0538 -0.0997,-0.10542 -0.0798,-0.0517 -0.19981,-0.0899 -0.3085,-0.0899 z m -77.497082,0.001 c -0.108696,0 -0.227987,0.0381 -0.307991,0.0899 -0.08,0.0517 -0.100252,0.10671 -0.100252,0.10542 -0.0059,1.25233 0.0059,2.52674 0,3.78271 v 0.003 c 5.01e-4,-5.1e-4 0.02125,0.0537 0.100252,0.10491 0.08,0.0517 0.199299,0.0899 0.307991,0.0899 0.108693,0 0.22871,-0.0382 0.308509,-0.0899 0.07981,-0.0517 0.09974,-0.10877 0.09974,-0.10749 v -0.1757 -3.6065 c 0,0.002 -0.01994,-0.0537 -0.09974,-0.10542 -0.0798,-0.0517 -0.199815,-0.0899 -0.308509,-0.0899 z m 6.518982,0 c -0.108693,0 -0.227987,0.0381 -0.307991,0.0899 -0.08,0.0517 -0.100252,0.10671 -0.100252,0.10542 -0.0059,1.25233 0.0059,2.52674 0,3.78271 v 0.003 c 5e-4,-5.1e-4 0.02124,0.0537 0.100252,0.10491 0.08,0.0517 0.199298,0.0899 0.307991,0.0899 0.108694,0 0.22871,-0.0382 0.308509,-0.0899 0.07981,-0.0517 0.09973,-0.10877 0.09973,-0.10749 v -0.1757 -3.6065 c 0,0.001 -0.01994,-0.0537 -0.09973,-0.10542 -0.0798,-0.0517 -0.199815,-0.0899 -0.308509,-0.0899 z m 3.799768,0 c -0.108692,0 -0.227987,0.0381 -0.307991,0.0899 -0.08,0.0517 -0.100252,0.10671 -0.100252,0.10542 -0.0059,1.25233 0.0059,2.52674 0,3.78271 v 0.003 c 5e-4,-5.1e-4 0.02124,0.0537 0.100252,0.10491 0.08,0.0517 0.199299,0.0899 0.307991,0.0899 0.10869,0 0.228194,-0.0382 0.307992,-0.0899 0.07981,-0.0517 0.100252,-0.10877 0.100252,-0.10749 v -0.1757 -3.6065 c 0,0.001 -0.02045,-0.0537 -0.100252,-0.10542 -0.0798,-0.0517 -0.199302,-0.0899 -0.307992,-0.0899 z m 7.321517,0 c -0.108692,0 -0.227987,0.0381 -0.307991,0.0899 -0.08,0.0517 -0.100252,0.10671 -0.100252,0.10542 -0.0059,1.25233 0.0059,2.52674 0,3.78271 v 0.003 c 5e-4,-5.1e-4 0.02124,0.0537 0.100252,0.10491 0.08,0.0517 0.199299,0.0899 0.307991,0.0899 0.108694,0 0.228193,-0.0382 0.307992,-0.0899 0.07981,-0.0517 0.100252,-0.10877 0.100252,-0.10749 v -0.1757 -3.6065 c 0,0.001 -0.02045,-0.0537 -0.100252,-0.10542 -0.0798,-0.0517 -0.199298,-0.0899 -0.307992,-0.0899 z m 42.253235,0.12712 c 0.0811,0 0.17974,0.0327 0.23771,0.0703 0.0282,0.0183 0.0397,0.0335 0.0434,0.0372 v 3.56671 0.13642 c -0.004,0.004 -0.015,0.021 -0.0434,0.0393 -0.058,0.0376 -0.1567,0.0703 -0.23771,0.0703 -0.0811,0 -0.17954,-0.0326 -0.23771,-0.0703 -0.0283,-0.0183 -0.0387,-0.0349 -0.0424,-0.0393 0.005,-1.23184 -0.005,-2.47712 0,-3.70313 0.004,-0.004 0.0141,-0.0194 0.0424,-0.0377 0.0582,-0.0377 0.1567,-0.0698 0.23771,-0.0698 z m 6.48229,0 c 0.0811,0 0.18026,0.0327 0.23823,0.0703 0.0282,0.0183 0.0387,0.0335 0.0424,0.0372 v 3.56671 0.13642 c -0.004,0.004 -0.0141,0.021 -0.0424,0.0393 -0.058,0.0376 -0.15722,0.0703 -0.23823,0.0703 -0.0811,0 -0.17954,-0.0326 -0.23771,-0.0703 -0.0283,-0.0183 -0.0387,-0.0349 -0.0424,-0.0393 0.005,-1.23184 -0.005,-2.47712 0,-3.70313 0.004,-0.004 0.0141,-0.0194 0.0424,-0.0377 0.0582,-0.0377 0.1567,-0.0698 0.23771,-0.0698 z m 3.79977,0 c 0.0811,0 0.18026,0.0327 0.23823,0.0703 0.0282,0.0183 0.0387,0.0335 0.0424,0.0372 v 3.56671 0.13642 c -0.004,0.004 -0.0141,0.021 -0.0424,0.0393 -0.058,0.0376 -0.15723,0.0703 -0.23823,0.0703 -0.0811,0 -0.17953,-0.0326 -0.23771,-0.0703 -0.0283,-0.0183 -0.0387,-0.0349 -0.0424,-0.0393 0.005,-1.23184 -0.005,-2.47712 0,-3.70313 0.004,-0.004 0.0141,-0.0194 0.0424,-0.0377 0.0582,-0.0377 0.15669,-0.0698 0.23771,-0.0698 z m 7.32152,0 c 0.0811,0 0.18025,0.0327 0.23822,0.0703 0.0282,0.0183 0.0387,0.0335 0.0424,0.0372 v 3.56671 0.13642 c -0.004,0.004 -0.0141,0.021 -0.0424,0.0393 -0.058,0.0376 -0.15722,0.0703 -0.23822,0.0703 -0.0811,0 -0.17955,-0.0326 -0.23772,-0.0703 -0.0283,-0.0183 -0.0387,-0.0349 -0.0424,-0.0393 0.005,-1.23184 -0.005,-2.47712 0,-3.70313 0.004,-0.004 0.0141,-0.0194 0.0424,-0.0377 0.0582,-0.0377 0.1567,-0.0698 0.23772,-0.0698 z m -77.497082,5.2e-4 c 0.081,0 0.180264,0.0327 0.238229,0.0703 0.02822,0.0183 0.03869,0.0335 0.04238,0.0372 v 3.56722 0.13643 c -0.0037,0.004 -0.01412,0.021 -0.04238,0.0393 -0.05796,0.0376 -0.157221,0.0698 -0.238229,0.0698 -0.08102,0 -0.179534,-0.0321 -0.237711,-0.0698 -0.02835,-0.0183 -0.03871,-0.035 -0.04238,-0.0393 0.0054,-1.23184 -0.0054,-2.47764 0,-3.70365 0.0037,-0.004 0.01405,-0.0194 0.04238,-0.0377 0.05818,-0.0377 0.156699,-0.0698 0.237711,-0.0698 z m 6.518982,0 c 0.081,0 0.180264,0.0327 0.238229,0.0703 0.02823,0.0183 0.03869,0.0335 0.04237,0.0372 v 3.56722 0.13643 c -0.0037,0.004 -0.01411,0.021 -0.04237,0.0393 -0.05796,0.0376 -0.157221,0.0698 -0.238229,0.0698 -0.08102,0 -0.179535,-0.0321 -0.237711,-0.0698 -0.02834,-0.0183 -0.03871,-0.0349 -0.04237,-0.0393 0.0054,-1.23184 -0.0054,-2.47764 0,-3.70365 0.0037,-0.004 0.01405,-0.0194 0.04237,-0.0377 0.05818,-0.0377 0.156698,-0.0698 0.237711,-0.0698 z m 3.799768,0 c 0.081,0 0.179747,0.0327 0.237712,0.0703 0.02823,0.0183 0.03921,0.0335 0.04289,0.0372 v 3.56722 0.13643 c -0.0037,0.004 -0.01463,0.021 -0.04289,0.0393 -0.05796,0.0376 -0.156708,0.0698 -0.237712,0.0698 -0.08102,0 -0.179535,-0.0321 -0.237711,-0.0698 -0.02834,-0.0183 -0.03871,-0.0349 -0.04237,-0.0393 0.0054,-1.23184 -0.0054,-2.47764 0,-3.70365 0.0037,-0.004 0.01405,-0.0194 0.04237,-0.0377 0.05817,-0.0377 0.156698,-0.0698 0.237711,-0.0698 z m 7.321517,0 c 0.081,0 0.180264,0.0327 0.238229,0.0703 0.02823,0.0183 0.03869,0.0335 0.04237,0.0372 v 3.56722 0.13643 c -0.0037,0.004 -0.01411,0.021 -0.04237,0.0393 -0.05796,0.0376 -0.157221,0.0698 -0.238229,0.0698 -0.08102,0 -0.179535,-0.0321 -0.237711,-0.0698 -0.02834,-0.0183 -0.03871,-0.0349 -0.04237,-0.0393 0.0054,-1.23184 -0.0054,-2.47764 0,-3.70365 0.0037,-0.004 0.01405,-0.0194 0.04237,-0.0377 0.05817,-0.0377 0.156699,-0.0698 0.237711,-0.0698 z m -26.159126,1.59267 1.477946,2.42259 c -0.31454,0.0707 -0.608894,0.27577 -0.611333,0.60926 -0.0028,-0.38553 -0.320331,-0.70351 -0.706416,-0.70383 h -0.160197 z m 38.118081,1.57148 2.71663,0.46147 -1.34462,2.69079 a 6.4321354,6.4321405 0 0 1 -1.37201,-3.15226 z m 12.73411,0 a 6.4321354,6.4321405 0 0 1 -1.37304,3.15639 l -1.34721,-2.69337 z m -12.5274,0.16278 c 0.16994,0.97967 0.57428,1.89465 1.16995,2.69027 l 1.14722,-2.29443 z m 12.31966,0.003 -2.31975,0.39274 1.1498,2.30012 c 0.59631,-0.79601 0.99999,-1.7125 1.16995,-2.69286 z m -12.11244,0.16485 1.9172,0.32608 -0.94981,1.89807 c -0.46488,-0.67545 -0.79987,-1.42099 -0.96739,-2.22415 z m 11.90625,0 c -0.16768,0.80587 -0.50457,1.55513 -0.97151,2.23242 l -0.95188,-1.90428 z m -7.31325,2.42155 0.46199,2.71715 a 6.4321354,6.4321405 0 0 1 -3.15278,-1.37201 z m 2.71767,0 2.69182,1.34618 a 6.4321354,6.4321405 0 0 1 -3.15536,1.37459 z m -2.81637,0.19121 -2.29702,1.14721 c 0.79566,0.59642 1.71283,1.0022 2.69286,1.17254 z m 2.91094,0 -0.39275,2.32234 c 0.98076,-0.17061 1.89687,-0.57525 2.69285,-1.17254 z m -3.00912,0.19275 0.32918,1.91875 c -0.80449,-0.16776 -1.55356,-0.50289 -2.22984,-0.96894 z m 3.10937,0 1.90324,0.9524 c -0.67727,0.46772 -1.4252,0.80326 -2.23139,0.97151 z" />
    <path
       style="fill:#a16535;fill-opacity:1;stroke-width:3.96703;stroke-linecap:square;stroke-linejoin:bevel;paint-order:markers fill stroke"
       d="m 88.971338,70.471151 -8.37209,5.16e-4 c 0.3043,1.084642 0.60907,2.165839 0.90847,3.268535 0.2188,0.383364 0.30773,0.812815 0.34209,1.257804 0.67166,2.503044 1.3472,5.101524 2.06396,7.938014 0.53742,2.12275 1.16186,4.81706 1.80609,7.67344 0.39848,-0.0919 0.84077,0.32587 1.15135,0.0729 0.49138,0.22924 1.01629,0.58166 1.24024,1.13636 0.21989,1.12073 0.078,2.29903 0.12609,3.44268 -0.0587,1.74958 0.11026,3.5159 -0.10852,5.25292 -0.0742,0.57154 0.151,1.22676 0.12971,1.86552 0.36408,1.76001 0.69511,3.42962 1.03146,5.11285 3.72882,-0.007 7.46077,-0.01 11.195182,-0.01 -0.12509,-0.56323 -0.252,-1.1716 -0.37414,-1.70429 -0.529462,-0.003 -1.058542,-0.002 -1.586982,0.0129 -0.92362,-0.091 -1.87074,0.0978 -2.77606,-0.10181 -1.15253,-0.44469 -0.9339,-1.89114 -0.93328,-2.88095 0.14877,-1.02943 -0.2059,-2.05196 0.0698,-3.07992 0.19288,-0.58749 0.0896,-1.25925 0.11731,-1.89084 -0.23969,-0.85656 0.23036,-2.14697 1.29501,-1.96887 0.004,-1.11738 -0.0437,-2.2438 0.032,-3.36465 -0.0665,-0.29882 -0.0692,-0.59723 -0.0543,-0.89504 -2.06424,-6.7902 -4.51714,-13.90354 -7.30343,-21.138029 z"
       id="path12528" />
    <path
       style="fill:#a16535;fill-opacity:1;stroke-width:3.96703;stroke-linecap:square;stroke-linejoin:bevel;paint-order:markers fill stroke"
       d="m 132.88029,70.471667 c -0.37743,0.86715 -0.76829,1.751227 -1.12189,2.583305 0.86601,-0.03902 1.78062,-0.193989 2.46548,0.396875 0.7751,1.083179 0.49217,2.501898 0.48317,3.746025 0.0947,0.877278 -0.004,1.762408 0.008,2.626708 -0.0443,1.04264 0.33769,2.32225 -0.5798,3.10369 -0.2229,0.42162 -1.03202,0.11912 -1.04542,0.50746 -0.16574,0.61536 0.0859,1.21998 0.004,1.85519 7.5e-4,1.9683 0.002,3.93909 0.005,5.90816 0.74642,-3.03627 1.51063,-6.04819 2.24638,-8.7514 0.63193,-2.32752 2.03507,-7.053745 3.51916,-11.976013 z"
       id="path12530" />
    <path
       style="fill:#a16535;fill-opacity:1;stroke-width:3.96703;stroke-linecap:square;stroke-linejoin:bevel;paint-order:markers fill stroke"
       d="m 122.88969,100.77001 c -0.0569,8.9e-4 -0.15323,0.12168 -0.31316,0.41755 -0.32523,0.51098 -0.7318,0.95 -1.11725,1.40714 -0.45851,1.65409 -0.88988,3.28692 -1.29346,4.89376 3.09708,-0.006 6.19397,-0.0102 9.29091,0.0171 0.11511,-0.57423 0.24761,-1.26989 0.35243,-1.77716 -1.54228,0.12092 -3.11052,0.0232 -4.66225,0.0574 -1.2705,0.31059 -2.32754,-1.0036 -2.20606,-2.19728 0.26386,-0.67914 -0.0482,-1.36425 0.0103,-2.07377 0.0176,-0.41014 0.0332,-0.74381 -0.061,-0.74466 z"
       id="path12540" />
    <path
       style="fill:#a16535;fill-opacity:1;stroke-width:3.96703;stroke-linecap:square;stroke-linejoin:bevel;paint-order:markers fill stroke"
       d="m 124.60018,92.21291 c -0.35444,1.08338 -0.69749,2.16187 -1.03302,3.23701 -0.007,0.28903 0.005,0.54015 0.10853,0.60978 0.48855,-0.22545 0.9044,-0.16462 0.9219,-0.8108 0.005,-1.01169 0.003,-2.02395 0.003,-3.03599 z"
       id="path12538" />
    <path
       style="fill:#a16535;fill-opacity:1;stroke-width:3.96703;stroke-linecap:square;stroke-linejoin:bevel;paint-order:markers fill stroke"
       d="m 129.05417,79.70883 c -0.15253,0.39602 -0.30632,0.79144 -0.45682,1.18804 -0.0173,0.18222 -0.0383,0.36428 -0.0558,0.54312 -0.0476,5.62523 -0.0193,11.26077 -0.0243,16.88992 0.23295,1.00102 -0.40064,2.23307 -1.51515,2.26447 -0.18271,0.78522 0.79686,0.35998 1.25522,0.46457 0.84258,0.0358 1.68925,0.015 2.53524,0 0.0326,-0.14881 0.0645,-0.2958 0.0977,-0.44597 -0.19412,-0.0168 -0.38645,-0.0537 -0.57412,-0.13798 -0.43671,-0.12906 -0.81774,-0.35282 -1.16376,-0.76171 -0.64379,-0.66244 0.0899,-1.5506 -0.25683,-2.27738 -0.119,-4.03496 -0.0109,-8.08573 -0.0615,-12.12277 0.30526,-1.43331 0.15403,-2.90591 0.19843,-4.36304 -0.0282,-0.3852 -0.0481,-0.83177 0.0217,-1.24127 z"
       id="path12534" />
    <path
       style="fill:#a16535;fill-opacity:1;stroke-width:3.96703;stroke-linecap:square;stroke-linejoin:bevel;paint-order:markers fill stroke"
       d="m 130.65614,77.85623 c -0.28256,0.13059 -0.61718,0.1688 -0.91984,0.0915 -0.13566,0.34464 -0.26736,0.69086 -0.40153,1.03611 0.13332,-0.17953 0.31558,-0.32581 0.56741,-0.41703 0.29929,-0.33575 0.92334,-0.10213 0.75396,-0.71055 z"
       id="path12532" />
    <path
       id="path6742"
       style="fill:#a16535;fill-opacity:1;stroke-width:3.96703;stroke-linecap:square;stroke-linejoin:bevel;paint-order:markers fill stroke"
       d="m 90.115978,11.212236 c -1.06186,0.01674 -2.12167,0.112508 -3.14451,0.295589 -7.92264,1.427539 -13.23945,7.623215 -15.84555,18.552356 l -0.72864,3.116089 -2.15439,-2.403988 C 63.448128,25.401942 58.235677,25.026495 51.736922,29.570288 47.289542,32.649442 41.72924,39.86024 39.43483,45.45614 c -0.833455,1.989949 -0.833001,2.141271 -0.208256,1.651579 0.34739,-0.299757 2.57204,-1.953099 4.9351,-3.680396 3.5439,-2.628035 4.204321,-3.004929 3.995621,-2.252575 -0.13869,0.488214 -0.312972,1.803125 -0.451652,2.89233 l -0.208773,1.990059 2.224154,-2.403988 c 4.760445,-5.107681 10.946504,-8.525577 15.393894,-8.525577 2.88482,0 2.98789,0.564124 0.31316,1.276407 -5.03919,1.388962 -9.868592,4.732277 -11.709882,8.262545 -1.146515,2.102729 -2.537331,7.098027 -3.162081,11.229289 -0.556095,3.718724 -0.695131,10.777637 -0.243396,10.777637 0.17438,0 0.486115,-0.713628 0.729155,-1.614372 0.590415,-2.065631 2.329075,-6.459815 2.953825,-7.436239 0.486065,-0.750866 0.521683,-0.713512 1.216463,0.976685 0.729095,1.802973 1.216329,1.952872 1.563729,0.451135 0.10435,-0.488212 0.417464,-1.501704 0.729154,-2.252576 0.52178,-1.388957 0.521678,-1.389075 1.216463,-0.638203 0.83345,0.900744 1.38958,0.976072 1.38958,0.188102 0,-0.299752 0.41775,-1.652718 0.90382,-3.041675 l 0.93741,-2.478402 0.72916,0.976685 c 1.32089,1.727296 1.70299,1.427548 1.77301,-1.351856 0.0343,-1.98995 0.31273,-3.042318 1.14619,-4.882389 1.04215,-2.29119 4.34334,-7.060551 4.89944,-7.060551 0.13868,0 0.48585,0.787803 0.79892,1.764234 0.31306,1.013518 2.08475,6.535233 3.92741,12.318111 0.99761,3.154771 1.85856,5.946871 2.67115,8.629964 h 1.60094 c 0.26181,-0.04352 0.52806,-0.04978 0.78083,0 h 3.42563 c 0.13408,-0.0052 0.26757,-0.0064 0.39894,0 h 1.08934 C 81.424548,52.47175 76.439308,41.896291 74.391358,38.547001 l -0.52194,-0.90072 c 0.97359,0.07459 1.94717,0.149173 2.92076,0.223759 0.69268,0.05238 1.35997,0.12956 2.00246,0.22996 0.36469,-0.695199 0.44875,-1.46056 0.25218,-2.646867 0.95137,0.404779 0.94391,1.628073 1.38079,2.968294 3.28265,0.780294 5.76957,2.26559 7.30137,4.382162 0.69204,-1.135148 1.00991,-2.129983 1.05885,-3.68608 1.1225,0.640925 2.59068,1.170765 3.55017,1.878955 0.64705,0.377306 1.52969,0.961552 2.48822,1.680001 3.61392,2.703721 4.10029,2.629504 4.27467,-0.451135 0.03,-0.529339 0.06,-1.058679 0.0899,-1.588017 -0.0415,-1.721635 0.0306,-3.511191 0.062,-5.253943 0.46658,2.338721 0.39528,4.18634 1.890842,6.454903 0.92624,0.654081 1.95112,1.216482 2.4045,1.251087 0.83347,0.112774 0.86924,-3.93e-4 0.97359,-2.066024 0.07,-1.163398 0.24316,-2.140955 0.41754,-2.140955 0.17438,0 2.78051,1.201975 5.73402,2.703711 5.00348,2.478163 5.45513,2.627918 5.9769,2.065507 0.52177,-0.563893 0.52139,-0.7509 0.0698,-1.653129 -0.82502,-1.74265 -5.68703,-6.789091 -8.62015,-9.062496 -0.54806,2.317807 -1.47032,3.442928 -2.76675,4.77852 0.76531,-1.713487 1.43707,-3.239892 1.6645,-5.561418 -0.82116,-0.535142 -2.5611,-1.41505 -3.39773,-1.844848 -0.046,2.518077 -0.1852,4.498334 -0.93276,6.595463 0.17966,-2.172647 0.0787,-4.719693 0.0713,-6.939112 -2.54767,-1.12227 -4.774212,-1.671791 -7.601602,-1.838647 0.66966,4.476196 1.26269,8.600708 0,10.788489 l -2.20454,-10.824146 c -1.4417,0.03842 -2.93354,0.194726 -4.48345,0.466121 -1.45017,2.158726 -2.24554,4.831953 -3.08767,8.019666 -0.4397,-2.567505 0.0794,-5.111633 0.57516,-7.492049 -1.13921,0.278557 -2.30992,0.613443 -3.51658,1.008207 -0.43045,1.540068 -0.46335,3.150299 -0.37931,5.111316 -0.67016,-2.162088 -1.05969,-3.248422 -1.87017,-4.311365 -1.15451,0.429532 -2.33016,0.891377 -3.5512,1.420585 -0.0103,0.0045 -0.0207,0.009 -0.031,0.01344 l -1.1653,0.503845 -2.6262,1.135848 1.87689,-1.877404 c 1.00783,-1.013524 2.78042,-2.365415 3.89123,-3.004985 2.9535,-1.577417 7.88855,-3.30457 10.35596,-3.567224 2.39739,-0.299757 2.57199,-0.638348 1.25109,-2.32854 -0.48606,-0.638091 -0.8692,-1.201869 -0.8692,-1.314649 0,-0.412531 2.84906,-1.389062 4.03128,-1.389062 1.11219,0 1.18092,-0.07566 0.83354,-0.750859 -0.20871,-0.412531 -0.97393,-1.12605 -1.73736,-1.577164 -0.7648,-0.488213 -1.3209,-1.013641 -1.2852,-1.239201 0.24303,-0.750866 2.95399,-1.23931 6.81096,-1.276408 l 3.961002,-0.03669 c -0.22014,-0.263209 -0.44029,-0.526415 -0.66043,-0.78962 -1.892112,-2.259464 -6.536922,-3.674378 -11.138332,-3.601847 z m -0.12609,21.481376 c 1.06791,1.792998 1.24716,3.65616 1.30948,5.378999 -0.64948,-0.569017 -1.32235,-0.997719 -2.08876,-1.215946 -0.20796,-1.738474 0.2155,-3.056003 0.77928,-4.163053 z m -19.513806,5.814939 3.393311,-0.86227" />
    <path
       id="path13696"
       style="fill:#549d2c;fill-opacity:1;stroke-width:3.96703;stroke-linecap:square;stroke-linejoin:bevel;paint-order:markers fill stroke"
       d="m 89.989888,32.693612 c 1.06791,1.792998 1.24716,3.65616 1.30948,5.378999 -0.64948,-0.569017 -1.32235,-0.997719 -2.08876,-1.215946 -0.20796,-1.738474 0.2155,-3.056003 0.77928,-4.163053 z m 0.126091,-21.481376 c -1.06186,0.01674 -2.121671,0.112508 -3.144511,0.295589 -7.922639,1.427539 -13.239449,7.623215 -15.845549,18.552356 l -0.72864,3.116089 -2.15439,-2.403988 C 63.448128,25.401942 58.235677,25.026495 51.736922,29.570288 47.289542,32.649442 41.72924,39.86024 39.43483,45.45614 c -0.833455,1.989949 -0.833001,2.141271 -0.208256,1.651579 0.34739,-0.299757 2.57204,-1.953099 4.9351,-3.680396 3.5439,-2.628035 4.204321,-3.004929 3.995621,-2.252575 -0.13869,0.488214 -0.312972,1.803125 -0.451652,2.89233 l -0.208773,1.990059 2.224154,-2.403988 c 4.760445,-5.107681 10.946504,-8.525577 15.393894,-8.525577 2.88482,0 2.98789,0.564124 0.31316,1.276407 -5.03919,1.388962 -9.868592,4.732277 -11.709882,8.262545 -1.146515,2.102729 -2.537331,7.098027 -3.162081,11.229289 -0.556095,3.718724 -0.695131,10.777637 -0.243396,10.777637 0.17438,0 0.486115,-0.713628 0.729155,-1.614372 0.590415,-2.065631 2.329075,-6.459815 2.953825,-7.436239 0.486065,-0.750866 0.521683,-0.713512 1.216463,0.976685 0.729095,1.802973 1.216329,1.952872 1.563729,0.451135 0.10435,-0.488212 0.417464,-1.501704 0.729154,-2.252576 0.52178,-1.388957 0.521678,-1.389075 1.216463,-0.638203 0.83345,0.900744 1.38958,0.976072 1.38958,0.188102 0,-0.299752 0.41775,-1.652718 0.90382,-3.041675 l 0.93741,-2.478402 0.72916,0.976685 c 1.32089,1.727296 1.70299,1.427548 1.77301,-1.351856 0.0343,-1.98995 0.31273,-3.042318 1.14619,-4.882389 1.04215,-2.29119 5.015035,-6.516598 4.899441,-7.060551 2.141596,-1.653805 3.3693,-0.863513 3.3693,-0.863513 0.97359,0.07459 1.94717,0.149173 2.92076,0.223759 0.69268,0.05238 1.35997,0.12956 2.00246,0.22996 0.36469,-0.695199 0.44875,-1.46056 0.25218,-2.646867 0.951369,0.404779 0.943909,1.628073 1.380789,2.968294 3.28265,0.780294 5.76957,2.26559 7.30137,4.382162 0.692041,-1.135148 1.009911,-2.129983 1.058851,-3.68608 1.1225,0.640925 2.59068,1.170765 3.55017,1.878955 0.64705,0.377306 1.52969,0.961552 2.48822,1.680001 3.61392,2.703721 4.10029,2.629504 4.27467,-0.451135 0.03,-0.529339 0.06,-1.058679 0.0899,-1.588017 -0.0415,-1.721635 0.0306,-3.511191 0.062,-5.253943 0.46658,2.338721 0.39528,4.18634 1.890841,6.454903 0.92624,0.654081 1.95112,1.216482 2.4045,1.251087 0.83347,0.112774 0.86924,-3.93e-4 0.97359,-2.066024 0.07,-1.163398 0.24316,-2.140955 0.41754,-2.140955 0.17438,0 2.78051,1.201975 5.73402,2.703711 5.00348,2.478163 5.45513,2.627918 5.9769,2.065507 0.52177,-0.563893 0.52139,-0.7509 0.0698,-1.653129 -0.82502,-1.74265 -5.68703,-6.789091 -8.62015,-9.062496 -0.54806,2.317807 -1.47032,3.442928 -2.76675,4.77852 0.76531,-1.713487 1.43707,-3.239892 1.6645,-5.561418 -0.82116,-0.535142 -2.5611,-1.41505 -3.39773,-1.844848 -0.046,2.518077 -0.1852,4.498334 -0.93276,6.595463 0.17966,-2.172647 0.0787,-4.719693 0.0713,-6.939112 -2.54767,-1.12227 -4.774211,-1.671791 -7.601601,-1.838647 0.66966,4.476196 1.26269,8.600708 0,10.788489 l -2.20454,-10.824146 c -1.4417,0.03842 -2.93354,0.194726 -4.48345,0.466121 -1.450171,2.158726 -2.245541,4.831953 -3.087671,8.019666 -0.4397,-2.567505 0.0794,-5.111633 0.57516,-7.492049 -1.13921,0.278557 -2.30992,0.613443 -3.51658,1.008207 -0.43045,1.540068 -0.46335,3.150299 -0.37931,5.111316 -0.67016,-2.162088 -1.05969,-3.248422 -1.87017,-4.311365 -1.154509,0.429532 -2.330159,0.891377 -3.551199,1.420585 -0.0103,0.0045 -0.0207,0.009 -0.031,0.01344 l -1.1653,0.503845 -2.6262,1.135848 1.87689,-1.877404 c 1.00783,-1.013524 2.78042,-2.365415 3.89123,-3.004985 2.953499,-1.577417 7.888549,-3.30457 10.35596,-3.567224 2.39739,-0.299757 2.57199,-0.638348 1.25109,-2.32854 -0.48606,-0.638091 -0.8692,-1.201869 -0.8692,-1.314649 0,-0.412531 2.84906,-1.389062 4.03128,-1.389062 1.11219,0 1.18092,-0.07566 0.83354,-0.750859 -0.20871,-0.412531 -0.97393,-1.12605 -1.73736,-1.577164 -0.7648,-0.488213 -1.3209,-1.013641 -1.2852,-1.239201 0.24303,-0.750866 2.95399,-1.23931 6.81096,-1.276408 l 3.961001,-0.03669 c -0.22014,-0.263209 -0.44029,-0.526415 -0.66043,-0.78962 -1.892111,-2.259464 -6.536921,-3.674378 -11.138331,-3.601847 z" />
    <path
       id="path12522"
       style="fill:#a16535;fill-opacity:1;stroke-width:3.96703;stroke-linecap:square;stroke-linejoin:bevel;paint-order:markers fill stroke"
       d="m 127.29097,29.621965 c -3.2071,0.05187 -6.17771,0.977998 -7.89823,2.579687 -0.44028,0.412895 -0.88057,0.82579 -1.32085,1.238684 h 3.96152 c 2.67609,0.0371 4.20416,0.188699 4.79454,0.525549 0.79913,0.488218 0.83489,0.564039 0.20877,0.939478 -0.38172,0.225554 -1.14612,0.863756 -1.70222,1.389062 l -1.04232,0.976168 c 0.54415,0.07528 1.08831,0.150551 1.63246,0.225826 0.90349,0.149879 1.94579,0.450716 2.32751,0.637687 0.69478,0.412537 0.69436,0.412638 -0.0346,1.389063 -0.97347,1.351859 -0.90335,1.990059 0.2775,1.990059 1.49392,0 5.87269,1.427817 8.54883,2.779676 2.25873,1.126304 5.66386,3.868577 5.31647,4.205428 -0.07,0.11278 -0.90341,-0.188574 -1.84123,-0.638204 -0.14685,-0.06923 -0.30003,-0.1331 -0.44855,-0.201022 l -1.23042,1.123446 0.6625,-1.37821 c -0.67211,-0.295898 -1.35258,-0.582905 -2.04536,-0.850078 -1.0163,0.687641 -1.63573,1.573722 -2.35438,2.856673 -0.0203,-1.587153 -0.27216,-2.81051 -0.85472,-3.967716 -1.376,-0.425934 -2.73762,-0.783834 -4.03335,-1.056266 -0.47628,0.858861 -0.65491,3.669029 -1.03198,6.049243 -0.0107,-2.085314 0.0448,-4.23678 -0.032,-6.255949 -1.08721,-0.194911 -2.11188,-0.323604 -3.04322,-0.378788 -1.08055,1.991091 -2.16112,3.982188 -3.24166,5.973279 0.72966,-2.223979 1.16168,-3.621143 1.49448,-5.977413 -0.89994,0.04559 -1.82833,0.161641 -2.77451,0.359151 -0.79702,2.92006 -1.13103,4.087263 -3.18482,6.27972 0.27268,-2.011245 0.11541,-3.228745 -0.57102,-5.140772 -0.83455,0.331462 -1.66166,0.711768 -2.46859,1.138432 -2.39735,1.314765 -3.57936,2.253011 -6.32416,5.22087 -3.33517,3.53027 -4.1003,4.994656 -2.95382,5.48287 0.24303,0.0742 2.4675,-0.826429 4.9692,-2.065507 2.46744,-1.201986 4.58764,-2.141596 4.72633,-2.028817 0.173,0.07568 0.2775,0.900871 0.2775,1.840198 0,2.028532 0.59047,2.178642 2.81482,0.525549 0.50987,-0.363113 1.01975,-0.726227 1.52962,-1.089339 0.0348,0.488169 0.0696,0.97634 0.10439,1.46451 0.17438,2.478162 0.6946,2.517016 3.8225,0.225826 0.91485,-0.688674 1.82969,-1.37735 2.74454,-2.066024 0.10439,0.651122 0.20877,1.302247 0.31316,1.953369 0.41742,2.590942 1.28546,2.742027 2.74505,0.525033 0.41895,-0.62114 0.95753,-1.189936 1.58595,-1.700155 -0.32642,-2.04604 -0.18983,-3.496773 0.40979,-4.947501 0.54157,1.448144 0.71934,2.499418 0.73174,4.146 1.33124,-0.804909 2.93379,-1.379262 4.65811,-1.671733 0.224,-0.520428 0.59635,-1.349788 0.59635,-1.349788 0.0686,0.41186 0.13711,0.823723 0.20567,1.235583 0.52998,-0.0609 1.06707,-0.101607 1.61179,-0.106453 h 1.80712 c -0.53312,0.964109 -1.06625,1.928221 -1.59938,2.89233 -0.75809,1.390325 -1.87875,3.705722 -3.09335,6.301424 h 2.86546 c 0.096,-0.0036 0.19028,-6.19e-4 0.28577,0 h 1.4981 c 1.39641,-4.50039 2.58943,-8.262204 2.72076,-8.404138 0.3831,-0.451115 3.09242,3.079025 4.17029,5.370215 0.90349,1.98995 1.18236,3.042347 1.18236,4.582666 0,2.252602 0.55614,2.666522 1.49396,1.164786 0.52177,-0.826548 0.52146,-0.826684 1.25057,0.863514 0.38172,0.939328 0.72916,2.066045 0.72916,2.517159 0,1.013523 0.27734,1.050593 1.28519,0.299723 0.72911,-0.563894 0.79915,-0.525423 1.38958,1.314648 0.34734,1.013525 0.72944,1.876888 0.90382,1.876888 0.13868,0 0.52156,-0.600985 0.79892,-1.351855 0.52177,-1.314761 0.55624,-1.351867 1.04231,-0.600997 0.5561,0.863647 2.57142,6.197042 2.57142,6.798035 0,0.225555 0.17456,0.412894 0.38189,0.412894 0.10715,0 0.18029,-0.236405 0.22892,-0.617533 -0.005,-0.302982 0.0116,-0.608472 0.0589,-0.905371 0.0704,-2.55711 -0.36944,-7.711227 -0.98237,-10.307381 -1.1808,-4.919226 -2.0162,-6.722289 -3.99614,-8.749337 -2.1887,-2.215505 -3.99541,-3.30495 -7.50497,-4.431254 -2.98783,-0.976426 -2.67599,-1.501643 0.72915,-1.164787 3.57964,0.338335 9.00044,3.60462 12.26696,7.399032 l 1.70273,1.952852 c -0.082,-0.639064 -0.16399,-1.278131 -0.24598,-1.917196 -0.13868,-1.052107 -0.34729,-2.215515 -0.45165,-2.553849 -0.20871,-0.525311 -0.10432,-0.525554 0.8692,0.07545 0.59042,0.375432 2.36295,1.690344 3.92689,2.89233 1.56395,1.201979 2.91945,2.140112 2.98948,2.028816 0.10435,-0.07568 -0.38319,-1.314862 -1.07797,-2.740918 -2.81477,-5.782872 -7.53944,-11.040818 -12.02252,-13.332002 -1.80698,-0.939333 -2.71057,-1.201994 -4.51755,-1.201994 -2.78046,0 -4.58753,0.900715 -7.01921,3.604431 -0.93782,1.052107 -1.73732,1.840431 -1.77302,1.76475 -0.07,-0.0742 -0.45127,-1.464882 -0.86868,-3.079399 -2.36309,-8.937708 -6.8464,-13.820076 -13.58677,-14.946374 -0.80145,-0.126599 -1.6079,-0.196254 -2.40399,-0.21239 -0.2156,-0.0044 -0.4306,-0.005 -0.6444,-0.0016 z m -0.85321,18.333764 c 0.15434,1.455207 0.30863,2.57969 0.0662,4.001823 -0.65044,0.837846 -1.49931,1.311892 -2.54662,1.5875 0.39688,-1.962324 1.12448,-3.52778 2.48047,-5.589323 z" />
    <path
       id="path12526"
       style="fill:#549d2c;fill-opacity:1;stroke-width:3.96703;stroke-linecap:square;stroke-linejoin:bevel;paint-order:markers fill stroke"
       d="m 126.43779,47.955729 c 0.15434,1.455207 0.30863,2.57969 0.0662,4.001823 -0.65044,0.837846 -1.49931,1.311892 -2.54662,1.5875 0.39688,-1.962324 1.12448,-3.52778 2.48047,-5.589323 z m 0.85318,-18.333764 c -3.2071,0.05187 -6.17771,0.977998 -7.89823,2.579687 -0.44028,0.412895 -0.88057,0.82579 -1.32085,1.238684 h 3.96152 c 2.67609,0.0371 4.20416,0.188699 4.79454,0.525549 0.79913,0.488218 0.83489,0.564039 0.20877,0.939478 -0.38172,0.225554 -1.14612,0.863756 -1.70222,1.389062 l -1.04232,0.976168 c 0.54415,0.07528 1.08831,0.150551 1.63246,0.225826 0.90349,0.149879 1.94579,0.450716 2.32751,0.637687 0.69478,0.412537 0.69436,0.412638 -0.0346,1.389063 -0.97347,1.351859 -0.90335,1.990059 0.2775,1.990059 1.49392,0 5.87269,1.427817 8.54883,2.779676 2.25873,1.126304 5.66386,3.868577 5.31647,4.205428 -0.07,0.11278 -0.90341,-0.188574 -1.84123,-0.638204 -0.14685,-0.06923 -0.30003,-0.1331 -0.44855,-0.201022 l -1.23042,1.123446 0.6625,-1.37821 c -0.67211,-0.295898 -1.35258,-0.582905 -2.04536,-0.850078 -1.0163,0.687641 -1.63573,1.573722 -2.35438,2.856673 -0.0203,-1.587153 -0.27216,-2.81051 -0.85472,-3.967716 -1.376,-0.425934 -2.73762,-0.783834 -4.03335,-1.056266 -0.47628,0.858861 -0.65491,3.669029 -1.03198,6.049243 -0.0107,-2.085314 0.0448,-4.23678 -0.032,-6.255949 -1.08721,-0.194911 -2.11188,-0.323604 -3.04322,-0.378788 -1.08055,1.991091 -2.16112,3.982188 -3.24166,5.973279 0.72966,-2.223979 1.16168,-3.621143 1.49448,-5.977413 -0.89994,0.04559 -1.82833,0.161641 -2.77451,0.359151 -0.79702,2.92006 -1.13103,4.087263 -3.18482,6.27972 0.27268,-2.011245 0.11541,-3.228745 -0.57102,-5.140772 -0.83455,0.331462 -1.66166,0.711768 -2.46859,1.138432 -2.39735,1.314765 -3.57936,2.253011 -6.32416,5.22087 -3.33517,3.53027 -4.1003,4.994656 -2.95382,5.48287 0.24303,0.0742 2.4675,-0.826429 4.9692,-2.065507 2.46744,-1.201986 4.58764,-2.141596 4.72633,-2.028817 0.173,0.07568 0.2775,0.900871 0.2775,1.840198 0,2.028532 0.59047,2.178642 2.81482,0.525549 0.50987,-0.363113 1.01975,-0.726227 1.52962,-1.089339 0.0348,0.488169 0.0696,0.97634 0.10439,1.46451 0.17438,2.478162 0.6946,2.517016 3.8225,0.225826 0.91485,-0.688674 1.82969,-1.37735 2.74454,-2.066024 0.10439,0.651122 0.20877,1.302247 0.31316,1.953369 0.41742,2.590942 1.28546,2.742027 2.74505,0.525033 0.41895,-0.62114 0.95753,-1.189936 1.58595,-1.700155 -0.32642,-2.04604 -0.18983,-3.496773 0.40979,-4.947501 0.54157,1.448144 0.71934,2.499418 0.73174,4.146 1.33124,-0.804909 2.93379,-1.379262 4.65811,-1.671733 0.224,-0.520428 0.59635,-1.349788 0.59635,-1.349788 0.0686,0.41186 0.13711,0.823723 0.20567,1.235583 0.52998,-0.0609 1.06707,-0.101607 1.61179,-0.106453 h 1.80712 c 2.91399,-0.03893 1.08678,-0.593324 2.67736,0.789616 0.3439,0.481668 3.09242,3.079025 4.17029,5.370215 0.90349,1.98995 1.18236,3.042347 1.18236,4.582666 0,2.252602 0.55614,2.666522 1.49396,1.164786 0.52177,-0.826548 0.52146,-0.826684 1.25057,0.863514 0.38172,0.939328 0.72916,2.066045 0.72916,2.517159 0,1.013523 0.27734,1.050593 1.28519,0.299723 0.72911,-0.563894 0.79915,-0.525423 1.38958,1.314648 0.34734,1.013525 0.72944,1.876888 0.90382,1.876888 0.13868,0 0.52156,-0.600985 0.79892,-1.351855 0.52177,-1.314761 0.55624,-1.351867 1.04231,-0.600997 0.5561,0.863647 2.57142,6.197042 2.57142,6.798035 0,0.225555 0.17456,0.412894 0.38189,0.412894 0.10715,0 0.18029,-0.236405 0.22892,-0.617533 -0.005,-0.302982 0.0116,-0.608472 0.0589,-0.905371 0.0704,-2.55711 -0.36944,-7.711227 -0.98237,-10.307381 -1.1808,-4.919226 -2.0162,-6.722289 -3.99614,-8.749337 -2.1887,-2.215505 -3.99541,-3.30495 -7.50497,-4.431254 -2.98783,-0.976426 -2.67599,-1.501643 0.72915,-1.164787 3.57964,0.338335 9.00044,3.60462 12.26696,7.399032 l 1.70273,1.952852 c -0.082,-0.639064 -0.16399,-1.278131 -0.24598,-1.917196 -0.13868,-1.052107 -0.34729,-2.215515 -0.45165,-2.553849 -0.20871,-0.525311 -0.10432,-0.525554 0.8692,0.07545 0.59042,0.375432 2.36295,1.690344 3.92689,2.89233 1.56395,1.201979 2.91945,2.140112 2.98948,2.028816 0.10435,-0.07568 -0.38319,-1.314862 -1.07797,-2.740918 -2.81477,-5.782872 -7.53944,-11.040818 -12.02252,-13.332002 -1.80698,-0.939333 -2.71057,-1.201994 -4.51755,-1.201994 -2.78046,0 -4.58753,0.900715 -7.01921,3.604431 -0.93782,1.052107 -1.73732,1.840431 -1.77302,1.76475 -0.07,-0.0742 -0.45127,-1.464882 -0.86868,-3.079399 -2.36309,-8.937708 -6.8464,-13.820076 -13.58677,-14.946374 -0.80145,-0.126599 -1.6079,-0.196254 -2.40399,-0.21239 -0.2156,-0.0044 -0.4306,-0.005 -0.6444,-0.0016 z" />
  </g>
</svg>
