<?xml version="1.0" encoding="UTF-8" standalone="no"?>
<!-- Created with Inkscape (http://www.inkscape.org/) -->

<svg
   width="210mm"
   height="175.84758mm"
   viewBox="0 0 210 175.84758"
   version="1.1"
   id="svg5"
   xmlns="http://www.w3.org/2000/svg"
   xmlns:svg="http://www.w3.org/2000/svg"
   xmlns:rdf="http://www.w3.org/1999/02/22-rdf-syntax-ns#"
   xmlns:cc="http://creativecommons.org/ns#"
   xmlns:dc="http://purl.org/dc/elements/1.1/">
  <title
     id="title9024">Undefined States of Null Island</title>
  <defs
     id="defs2" />
  <path
     id="path3589"
     style="fill:#4d4d4d;stroke-width:3.96703;stroke-linecap:square;stroke-linejoin:bevel;paint-order:markers fill stroke"
     d="m 90.115946,11.212236 c -1.06186,0.01674 -2.121665,0.112508 -3.14451,0.295589 -7.922635,1.427539 -13.239445,7.623215 -15.845545,18.552356 l -0.728638,3.116089 -2.15439,-2.403988 C 63.448098,25.401942 58.235649,25.026495 51.736894,29.570288 47.289514,32.649442 41.729212,39.86024 39.434802,45.45614 c -0.833455,1.989949 -0.833001,2.141271 -0.208256,1.651579 0.34739,-0.299757 2.57204,-1.953099 4.9351,-3.680396 3.5439,-2.628035 4.204321,-3.004929 3.995621,-2.252575 -0.13869,0.488214 -0.312972,1.803125 -0.451652,2.89233 l -0.208773,1.990059 2.224154,-2.403988 c 4.760445,-5.107681 10.946503,-8.525577 15.393893,-8.525577 2.884825,0 2.987894,0.564124 0.313159,1.276407 -5.039185,1.388962 -9.86859,4.732277 -11.70988,8.262545 -1.146515,2.102729 -2.537331,7.098027 -3.162081,11.229289 -0.556095,3.718724 -0.695131,10.777637 -0.243396,10.777637 0.17438,0 0.486115,-0.713628 0.729155,-1.614372 0.590415,-2.065631 2.329075,-6.459815 2.953825,-7.436239 0.486065,-0.750866 0.521683,-0.713512 1.216463,0.976685 0.729095,1.802973 1.216329,1.952872 1.563729,0.451135 0.10435,-0.488212 0.417464,-1.501704 0.729154,-2.252576 0.52178,-1.388957 0.521678,-1.389075 1.216463,-0.638203 0.833445,0.900744 1.38958,0.976072 1.38958,0.188102 0,-0.299752 0.417745,-1.652718 0.90382,-3.041675 l 0.937411,-2.478402 0.729154,0.976685 c 1.320895,1.727296 1.702999,1.427548 1.773019,-1.351856 0.0343,-1.98995 0.312728,-3.042318 1.146183,-4.882389 1.042155,-2.29119 4.343343,-7.060551 4.899443,-7.060551 0.138675,0 0.485847,0.787803 0.798917,1.764234 0.31306,1.013518 2.084749,6.535233 3.927409,12.318111 0.997615,3.154771 1.85856,5.946871 2.671155,8.629964 h 1.600936 c 0.261815,-0.04352 0.528061,-0.04978 0.780831,0 h 3.42563 c 0.13408,-0.0052 0.267572,-0.0064 0.398942,0 h 1.08934 C 81.424515,52.47175 76.439275,41.896291 74.391325,38.547001 l -0.521932,-0.90072 c 0.973583,0.07459 1.947169,0.149173 2.920752,0.223759 0.692686,0.05238 1.359977,0.12956 2.002462,0.22996 0.364692,-0.695199 0.448753,-1.46056 0.252181,-2.646867 0.951371,0.404779 0.943915,1.628073 1.380794,2.968294 3.282643,0.780294 5.769563,2.26559 7.301363,4.382162 0.692047,-1.135148 1.009919,-2.129983 1.05885,-3.68608 1.122506,0.640925 2.590688,1.170765 3.550171,1.878955 0.64705,0.377306 1.529694,0.961552 2.48822,1.680001 3.613925,2.703721 4.100295,2.629504 4.274675,-0.451135 0.02997,-0.529339 0.05995,-1.058679 0.08992,-1.588017 -0.0415,-1.721635 0.03058,-3.511191 0.06201,-5.253943 0.466577,2.338721 0.395279,4.18634 1.890839,6.454903 0.92624,0.654081 1.95112,1.216482 2.4045,1.251087 0.83347,0.112774 0.86924,-3.93e-4 0.97359,-2.066024 0.07,-1.163398 0.24316,-2.140955 0.41754,-2.140955 0.17438,0 2.78051,1.201975 5.73402,2.703711 5.00348,2.478163 5.45513,2.627918 5.9769,2.065507 0.52177,-0.563893 0.52139,-0.7509 0.0698,-1.653129 -0.82502,-1.74265 -5.68703,-6.789091 -8.62015,-9.062496 -0.54806,2.317807 -1.47032,3.442928 -2.76675,4.77852 0.76531,-1.713487 1.43707,-3.239892 1.6645,-5.561418 -0.82116,-0.535142 -2.5611,-1.41505 -3.39773,-1.844848 -0.046,2.518077 -0.1852,4.498334 -0.93276,6.595463 0.17966,-2.172647 0.0787,-4.719693 0.0713,-6.939112 -2.54767,-1.12227 -4.774215,-1.671791 -7.601596,-1.838647 0.669651,4.476196 1.262681,8.600708 0,10.788489 L 92.930245,28.090275 c -1.441696,0.03842 -2.933532,0.194726 -4.483447,0.466121 -1.450171,2.158726 -2.245534,4.831953 -3.087667,8.019666 -0.439705,-2.567505 0.07942,-5.111633 0.575159,-7.492049 -1.139206,0.278557 -2.30992,0.613443 -3.516582,1.008207 -0.430453,1.540068 -0.463345,3.150299 -0.379305,5.111316 -0.670161,-2.162088 -1.059692,-3.248422 -1.87017,-4.311365 -1.154516,0.429532 -2.330165,0.891377 -3.551204,1.420585 -0.01034,0.0045 -0.02067,0.009 -0.03101,0.01344 l -1.165304,0.503845 -2.626196,1.135848 1.876888,-1.877404 c 1.007835,-1.013524 2.780425,-2.365415 3.891235,-3.004985 2.9535,-1.577417 7.888548,-3.30457 10.355958,-3.567224 2.397385,-0.299757 2.571991,-0.638348 1.251086,-2.32854 -0.48606,-0.638091 -0.869198,-1.201869 -0.869198,-1.314649 0,-0.412531 2.849064,-1.389062 4.031279,-1.389062 1.112195,0 1.180926,-0.07566 0.833541,-0.750859 -0.20871,-0.412531 -0.973927,-1.12605 -1.737362,-1.577164 -0.764795,-0.488213 -1.320893,-1.013641 -1.285193,-1.239201 0.24303,-0.750866 2.953984,-1.23931 6.810954,-1.276408 l 3.961003,-0.03669 c -0.22014,-0.263209 -0.44029,-0.526415 -0.66043,-0.78962 -1.892107,-2.259464 -6.536924,-3.674378 -11.138334,-3.601847 z m 37.174994,18.409729 c -3.2071,0.05187 -6.17771,0.977998 -7.89823,2.579687 -0.44028,0.412895 -0.88057,0.82579 -1.32085,1.238684 h 3.96152 c 2.67609,0.0371 4.20416,0.188699 4.79454,0.525549 0.79913,0.488218 0.83489,0.564039 0.20877,0.939478 -0.38172,0.225554 -1.14612,0.863756 -1.70222,1.389062 l -1.04232,0.976168 c 0.54415,0.07528 1.08831,0.150551 1.63246,0.225826 0.90349,0.149879 1.94579,0.450716 2.32751,0.637687 0.69478,0.412537 0.69436,0.412638 -0.0346,1.389063 -0.97347,1.351859 -0.90335,1.990059 0.2775,1.990059 1.49392,0 5.87269,1.427817 8.54883,2.779676 2.25873,1.126304 5.66386,3.868577 5.31647,4.205428 -0.07,0.11278 -0.90341,-0.188574 -1.84123,-0.638204 -0.14685,-0.06923 -0.30003,-0.1331 -0.44855,-0.201022 l -1.23042,1.123446 0.6625,-1.37821 c -0.67211,-0.295898 -1.35258,-0.582905 -2.04536,-0.850078 -1.0163,0.687641 -1.63573,1.573722 -2.35438,2.856673 -0.0203,-1.587153 -0.27216,-2.81051 -0.85472,-3.967716 -1.376,-0.425934 -2.73762,-0.783834 -4.03335,-1.056266 -0.47628,0.858861 -0.65491,3.669029 -1.03198,6.049243 -0.0107,-2.085314 0.0448,-4.23678 -0.032,-6.255949 -1.08721,-0.194911 -2.11188,-0.323604 -3.04322,-0.378788 -1.08055,1.991091 -2.16112,3.982188 -3.24166,5.973279 0.72966,-2.223979 1.16168,-3.621143 1.49448,-5.977413 -0.89994,0.04559 -1.82833,0.161641 -2.77451,0.359151 -0.79702,2.92006 -1.13103,4.087263 -3.18482,6.27972 0.27268,-2.011245 0.11541,-3.228745 -0.57102,-5.140772 -0.83455,0.331462 -1.66166,0.711768 -2.46859,1.138432 -2.39735,1.314765 -3.57936,2.253011 -6.32416,5.22087 -3.33517,3.53027 -4.1003,4.994656 -2.95382,5.48287 0.24303,0.0742 2.4675,-0.826429 4.9692,-2.065507 2.46744,-1.201986 4.58764,-2.141596 4.72633,-2.028817 0.173,0.07568 0.2775,0.900871 0.2775,1.840198 0,2.028532 0.59047,2.178642 2.81482,0.525549 0.50987,-0.363113 1.01975,-0.726227 1.52962,-1.089339 0.0348,0.488169 0.0696,0.97634 0.10439,1.46451 0.17438,2.478162 0.6946,2.517016 3.8225,0.225826 0.91485,-0.688674 1.82969,-1.37735 2.74454,-2.066024 0.10439,0.651122 0.20877,1.302247 0.31316,1.953369 0.41742,2.590942 1.28546,2.742027 2.74505,0.525033 0.41895,-0.62114 0.95753,-1.189936 1.58595,-1.700155 -0.32642,-2.04604 -0.18983,-3.496773 0.40979,-4.947501 0.54157,1.448144 0.71934,2.499418 0.73174,4.146 1.33124,-0.804909 2.93379,-1.379262 4.65811,-1.671733 0.224,-0.520428 0.59635,-1.349788 0.59635,-1.349788 0.0686,0.41186 0.13711,0.823723 0.20567,1.235583 0.52998,-0.0609 1.06707,-0.101607 1.61179,-0.106453 h 1.80712 c -0.53312,0.964109 -1.06625,1.928221 -1.59938,2.89233 -0.75809,1.390325 -1.87875,3.705722 -3.09335,6.301424 h 2.86546 c 0.096,-0.0036 0.19028,-6.19e-4 0.28577,0 h 1.4981 c 1.39641,-4.50039 2.58943,-8.262204 2.72076,-8.404138 0.3831,-0.451115 3.09242,3.079025 4.17029,5.370215 0.90349,1.98995 1.18236,3.042347 1.18236,4.582666 0,2.252602 0.55614,2.666522 1.49396,1.164786 0.52177,-0.826548 0.52146,-0.826684 1.25057,0.863514 0.38172,0.939328 0.72916,2.066045 0.72916,2.517159 0,1.013523 0.27734,1.050593 1.28519,0.299723 0.72911,-0.563894 0.79915,-0.525423 1.38958,1.314648 0.34734,1.013525 0.72944,1.876888 0.90382,1.876888 0.13868,0 0.52156,-0.600985 0.79892,-1.351855 0.52177,-1.314761 0.55624,-1.351867 1.04231,-0.600997 0.5561,0.863647 2.57142,6.197042 2.57142,6.798035 0,0.225555 0.17456,0.412894 0.38189,0.412894 0.10715,0 0.18029,-0.236405 0.22892,-0.617533 -0.005,-0.302982 0.0116,-0.608472 0.0589,-0.905371 0.0704,-2.55711 -0.36944,-7.711227 -0.98237,-10.307381 -1.1808,-4.919226 -2.0162,-6.722289 -3.99614,-8.749337 -2.1887,-2.215505 -3.99541,-3.30495 -7.50497,-4.431254 -2.98783,-0.976426 -2.67599,-1.501643 0.72915,-1.164787 3.57964,0.338335 9.00044,3.60462 12.26696,7.399032 l 1.70273,1.952852 c -0.082,-0.639064 -0.16399,-1.278131 -0.24598,-1.917196 -0.13868,-1.052107 -0.34729,-2.215515 -0.45165,-2.553849 -0.20871,-0.525311 -0.10432,-0.525554 0.8692,0.07545 0.59042,0.375432 2.36295,1.690344 3.92689,2.89233 1.56395,1.201979 2.91945,2.140112 2.98948,2.028816 0.10435,-0.07568 -0.38319,-1.314862 -1.07797,-2.740918 -2.81477,-5.782872 -7.53944,-11.040818 -12.02252,-13.332002 -1.80698,-0.939333 -2.71057,-1.201994 -4.51755,-1.201994 -2.78046,0 -4.58753,0.900715 -7.01921,3.604431 -0.93782,1.052107 -1.73732,1.840431 -1.77302,1.76475 -0.07,-0.0742 -0.45127,-1.464882 -0.86868,-3.079399 -2.36309,-8.937708 -6.8464,-13.820076 -13.58677,-14.946374 -0.80145,-0.126599 -1.6079,-0.196254 -2.40399,-0.21239 -0.2156,-0.0044 -0.4306,-0.005 -0.6444,-0.0016 z m -37.301084,3.071647 c 1.067917,1.792998 1.247165,3.65616 1.309481,5.378999 -0.649482,-0.569017 -1.32235,-0.997719 -2.088762,-1.215946 -0.20796,-1.738474 0.215503,-3.056003 0.779281,-4.163053 z m 36.447904,15.262117 c 0.15434,1.455207 0.30863,2.57969 0.0662,4.001823 -0.65044,0.837846 -1.49931,1.311892 -2.54662,1.5875 0.39688,-1.962324 1.12448,-3.52778 2.48047,-5.589323 z m -37.466447,22.515422 -8.372098,5.16e-4 c 0.304305,1.084642 0.609076,2.165839 0.908471,3.268535 0.2188,0.383364 0.307738,0.812815 0.342098,1.257804 0.67166,2.503047 1.347192,5.10152 2.063957,7.938017 0.53742,2.122749 1.161856,4.817056 1.806091,7.673433 0.39848,-0.0919 0.840766,0.325872 1.151351,0.07286 0.49138,0.229249 1.016285,0.581665 1.240235,1.136365 0.219895,1.120734 0.078,2.29903 0.12609,3.442684 -0.0587,1.749578 0.110265,3.515897 -0.10852,5.252915 -0.0742,0.57154 0.150997,1.22676 0.129707,1.86552 0.36408,1.76001 0.695112,3.42962 1.031462,5.11285 3.72882,-0.007 7.460776,-0.01 11.195183,-0.01 -0.12509,-0.56323 -0.252,-1.1716 -0.37414,-1.70429 -0.529457,-0.003 -1.058536,-0.002 -1.586981,0.0129 -0.923615,-0.091 -1.870743,0.0978 -2.776058,-0.10181 -1.152535,-0.44469 -0.933897,-1.89114 -0.933277,-2.88095 0.14877,-1.02943 -0.205902,-2.05196 0.06976,-3.079918 0.192875,-0.587495 0.0896,-1.259255 0.117305,-1.89084 -0.23969,-0.856564 0.230357,-2.146971 1.295012,-1.968872 0.004,-1.117383 -0.04366,-2.243799 0.03204,-3.364653 -0.0665,-0.298821 -0.06916,-0.597226 -0.05426,-0.895036 -2.064237,-6.790202 -4.517138,-13.903544 -7.303428,-21.13803 z m 43.908947,5.16e-4 c -0.37743,0.86715 -0.76829,1.751227 -1.12189,2.583305 0.86601,-0.03902 1.78062,-0.193989 2.46548,0.396875 0.7751,1.083179 0.49217,2.501898 0.48317,3.746025 0.0947,0.877283 -0.004,1.762405 0.008,2.626713 -0.0443,1.042638 0.33769,2.322247 -0.5798,3.103686 -0.2229,0.421616 -1.03202,0.119124 -1.04542,0.507463 -0.16574,0.615354 0.0859,1.219979 0.004,1.855184 7.5e-4,1.9683 0.002,3.939088 0.005,5.908166 0.74642,-3.036276 1.51063,-6.048194 2.24638,-8.751403 0.63193,-2.32752 2.03507,-7.053746 3.51916,-11.976014 z m -2.22415,7.384563 c -0.28256,0.130593 -0.61718,0.168803 -0.91984,0.09147 -0.13566,0.344643 -0.26736,0.690858 -0.40153,1.036112 0.13332,-0.179534 0.31558,-0.32581 0.56741,-0.417028 0.29929,-0.335752 0.92334,-0.102135 0.75396,-0.710551 z m -1.60197,1.8526 c -0.15253,0.396019 -0.30632,0.791438 -0.45682,1.188041 -0.0173,0.182222 -0.0383,0.364283 -0.0558,0.543119 -0.0476,5.625233 -0.0193,11.26077 -0.0243,16.889925 0.23295,1.00102 -0.40064,2.233065 -1.51515,2.264465 -0.18271,0.78522 0.79686,0.35998 1.25522,0.46457 0.84258,0.0358 1.68925,0.015 2.53524,0 0.0326,-0.14881 0.0645,-0.2958 0.0977,-0.44597 -0.19412,-0.0168 -0.38645,-0.0537 -0.57412,-0.13798 -0.43671,-0.12906 -0.81774,-0.35282 -1.16376,-0.761707 -0.64379,-0.662441 0.0899,-1.550607 -0.25683,-2.27738 -0.119,-4.034966 -0.0109,-8.085737 -0.0615,-12.122774 0.30526,-1.433311 0.15403,-2.905905 0.19843,-4.363041 -0.0282,-0.385193 -0.0481,-0.83177 0.0217,-1.241268 z m -4.45399,12.502079 v 0.0016 c 1.7e-4,-5.18e-4 3.4e-4,-0.0011 5.1e-4,-0.0016 z m 0,0.0016 c -0.35444,1.083381 -0.69749,2.161872 -1.03302,3.237012 -0.007,0.28903 0.005,0.540152 0.10853,0.609782 0.48855,-0.22545 0.9044,-0.164619 0.9219,-0.810803 0.005,-1.011688 0.003,-2.023953 0.003,-3.035991 z m -1.71049,8.557101 c -0.0569,8.9e-4 -0.15323,0.12168 -0.31316,0.41755 -0.32523,0.51098 -0.7318,0.95 -1.11725,1.40714 -0.45851,1.65409 -0.88988,3.28692 -1.29346,4.89376 3.09708,-0.006 6.19397,-0.0102 9.29091,0.0171 0.11511,-0.57423 0.24761,-1.26989 0.35243,-1.77716 -1.54228,0.12092 -3.11052,0.0232 -4.66225,0.0574 -1.2705,0.31059 -2.32754,-1.0036 -2.20606,-2.19728 0.26386,-0.67914 -0.0482,-1.36425 0.0103,-2.07377 0.0176,-0.41014 0.0332,-0.74381 -0.061,-0.74466 z m 4.17442,19.42724 c -2.72206,0.0101 -5.44555,-0.005 -8.16694,0.008 -0.46869,-6.2e-4 -0.93743,-8e-5 -1.40612,-5.2e-4 -0.0256,0.15701 -0.0548,0.31898 -0.0796,0.47491 -0.41742,2.66665 -0.45174,2.74231 -1.32085,2.55385 -0.48608,-0.11278 -3.61415,-0.30126 -6.88072,-0.45114 -5.83827,-0.22556 -6.011,-0.26268 -6.011,-1.05213 0,-0.24262 -0.0771,-0.81553 -0.18655,-1.52342 -3.786607,0.002 -7.572956,0.004 -11.359516,-0.002 0.244625,1.57087 0.367707,2.61908 0.287837,2.76521 -0.10435,0.14982 -1.6337,0.41298 -3.40496,0.5643 -10.14698,0.75088 -24.672668,4.28106 -31.553113,7.62279 l -1.872237,0.94155 c 1.81058,1.48453 3.523809,3.05352 6.969084,3.20032 h 0.502295 0.502295 c 6.661974,-0.28384 6.835124,-5.89634 13.826029,-5.9061 7.357365,0.01 7.401772,5.83707 14.444597,5.903 7.04356,-0.0657 7.086792,-5.89318 14.231689,-5.89318 h -0.21807 c 0.0663,-0.004 0.13514,-0.0103 0.19637,-0.0103 0.0825,0 0.16971,0.005 0.25683,0.0103 h -0.0217 c 7.16349,0 7.16358,5.89629 14.32729,5.89628 h 0.15452 c 6.76802,-0.22756 6.90924,-5.89629 13.93765,-5.9061 7.39916,0.01 7.39892,5.90611 14.56242,5.9061 3.34103,0 5.12262,-1.28378 6.80061,-2.65255 -8.21818,-2.86145 -16.8306,-6.02461 -25.34625,-7.61039 -3.02354,-0.52532 -3.75223,-0.75116 -3.75223,-1.27796 0,-0.20772 0.25119,-1.69317 0.58033,-3.56051 z m -21.26434,9.20564 h -0.21342 c 0.0366,0 0.0702,0.002 0.10645,0.003 0.0364,-3.1e-4 0.0702,-0.003 0.10697,-0.003 z m -28.889706,3.36052 c -7.163605,0.01 -7.164228,5.90646 -14.327807,5.92056 -7.163435,-0.0141 -7.16329,-5.91075 -14.30507,-5.91075 -3.93746,0 -5.719073,1.76961 -7.702373,3.37034 h 7.680152 c 7.163745,0 7.163856,5.89681 14.327291,5.8968 7.163579,1e-5 7.1637,-5.8968 14.32729,-5.8968 7.315545,0 7.403226,5.76023 14.327291,5.8906 v 0.006 c 0.0405,0 0.0778,-0.003 0.117823,-0.003 0.04,3.7e-4 0.07729,0.003 0.117822,0.003 7.123415,1e-5 7.16662,-5.82805 14.209987,-5.8937 7.0431,0.0659 7.08648,5.89371 14.20947,5.8937 0.0403,0 0.0774,-0.003 0.1173,-0.003 0.0401,3.7e-4 0.0773,0.003 0.11782,0.003 v -0.006 c 6.92473,-0.13009 7.00935,-5.8906 14.09217,-5.8906 7.39918,0 7.39892,5.89681 14.56242,5.8968 7.16371,1e-5 7.16379,-5.8968 14.32729,-5.8968 0.1201,0 0.23319,0.003 0.34933,0.004 v -0.002 h 7.33547 c -1.98199,-1.60132 -3.75757,-3.37241 -7.6848,-3.37241 -7.1635,0 -7.16358,5.89681 -14.32729,5.8968 -7.1635,1e-5 -7.16325,-5.89678 -14.56242,-5.90661 -7.08282,0.01 -7.16745,5.77012 -14.09217,5.91385 v -0.007 c -7.16372,1e-5 -7.1638,-5.8968 -14.32729,-5.8968 -0.0368,0 -0.0706,0.002 -0.10697,0.003 -0.0362,-3.1e-4 -0.0699,-0.003 -0.10645,-0.003 -7.144767,0 -7.188549,5.82777 -14.231689,5.8937 -7.042825,-0.0659 -7.087222,-5.89374 -14.444597,-5.90351 z m 29.104686,5.71438 a 0.25653084,0.25653084 0 0 0 -0.25322,0.2129 l -0.65422,3.83284 c -1.62152,0.18752 -3.13686,0.86467 -4.35529,1.95131 l -0.56172,-0.28061 a 0.25653084,0.25653084 0 0 0 -0.345202,0.34623 l 0.280602,0.56069 c -1.086099,1.2186 -1.764167,2.73496 -1.951301,4.35633 l -3.830257,0.65319 a 0.25653084,0.25653084 0 0 0 0,0.50384 l 3.830257,0.65319 c 0.187762,1.62102 0.864983,3.13565 1.951301,4.35374 l -0.280602,0.56431 a 0.25653084,0.25653084 0 0 0 0.345202,0.34261 l 0.56172,-0.2806 c 1.2181,1.08637 2.73419,1.76355 4.35529,1.9513 l 0.65422,3.83284 a 0.25653084,0.25653084 0 0 0 0.50592,0 l 0.65164,-3.83025 c 1.62187,-0.18821 3.13814,-0.8663 4.35632,-1.95389 l 0.56069,0.2806 a 0.25653084,0.25653084 0 0 0 0.34313,-0.34261 l -0.27854,-0.56172 c 1.08709,-1.21832 1.76397,-2.73462 1.95182,-4.35633 l 3.83026,-0.65319 a 0.25653084,0.25653084 0 0 0 0,-0.50384 l -3.83284,-0.65319 c -0.18748,-1.62156 -0.86468,-3.13783 -1.9513,-4.35633 l 0.2806,-0.56069 a 0.25653084,0.25653084 0 0 0 -0.34313,-0.34623 l -0.56069,0.28061 c -1.2181,-1.08638 -2.73527,-1.76353 -4.35632,-1.95131 l -0.65164,-3.83284 a 0.25653084,0.25653084 0 0 0 -0.2527,-0.2129 z m 0,0.12815 a 0.12826542,0.12826542 0 0 1 0.12557,0.10749 l 0.66301,3.91294 c 1.6637,0.17035 3.22676,0.86845 4.46174,1.99626 l 0.62839,-0.31316 a 0.12826542,0.12826542 0 0 1 0.17053,0.17312 l -0.31264,0.62632 c 1.12889,1.23515 1.82515,2.79679 1.99574,4.46122 l 3.91501,0.66611 a 0.12826542,0.12826542 0 0 1 0,0.2527 l -3.91191,0.66611 c -0.17097,1.66459 -0.86688,3.22675 -1.99626,4.46174 l 0.31006,0.62632 a 0.12826542,0.12826542 0 0 1 -0.17053,0.17053 l -0.62632,-0.31367 c -1.23482,1.12986 -2.79595,1.8275 -4.46071,1.99884 l -0.66611,3.91036 a 0.12826542,0.12826542 0 0 1 -0.25321,0 l -0.6687,-3.91294 c -1.66389,-0.1709 -3.22438,-0.86767 -4.45916,-1.99626 l -0.62631,0.31367 a 0.12826542,0.12826542 0 0 1 -0.17312,-0.17053 l 0.31626,-0.6289 c -1.129176,-1.23539 -1.828385,-2.79586 -1.998845,-4.46071 l -3.912939,-0.66456 a 0.12826542,0.12826542 0 0 1 0,-0.2527 l 3.912939,-0.66352 c 0.16978,-1.66468 0.867895,-3.22809 1.996265,-4.46381 l -0.31368,-0.62632 a 0.12826542,0.12826542 0 0 1 0.17312,-0.17312 l 0.6289,0.31316 c 1.23537,-1.12808 2.79706,-1.82621 4.46122,-1.99626 l 0.66405,-3.91294 a 0.12826542,0.12826542 0 0 1 0.12764,-0.10749 z m -10e-4,0.12919 -0.67902,3.99201 a 7.669111,7.6691165 0 0 0 -4.56717,2.04328 l -0.69194,-0.34623 0.34571,0.68988 a 7.669111,7.6691165 0 0 0 -2.043286,4.56923 l -3.991487,0.67903 3.991487,0.67955 a 7.669111,7.6691165 0 0 0 2.043286,4.56561 l -0.34571,0.69195 0.69194,-0.34572 a 7.669111,7.6691165 0 0 0 4.56562,2.04329 l 0.68057,3.992 0.67955,-3.98942 a 7.669111,7.6691165 0 0 0 4.56716,-2.04587 l 0.6904,0.34572 -0.34468,-0.6904 a 7.669111,7.6691165 0 0 0 2.04483,-4.56716 l 3.98891,-0.67955 -3.99149,-0.67903 a 7.669111,7.6691165 0 0 0 -2.04329,-4.56768 l 0.34572,-0.69143 -0.69195,0.34623 a 7.669111,7.6691165 0 0 0 -4.56561,-2.04328 z m -0.89658,5.2617 -0.46199,2.71663 -2.69079,-1.34462 a 6.4321354,6.4321405 0 0 1 3.15278,-1.37201 z m 1.79214,0 a 6.4321354,6.4321405 0 0 1 3.15278,1.37201 l -2.6908,1.34462 z m -1.95906,0.20722 c -0.97808,0.17037 -1.89325,0.57511 -2.68769,1.16996 l 2.29444,1.14721 z m 2.1239,0 0.39378,2.31717 2.29443,-1.14721 c -0.795,-0.59522 -1.7094,-0.99981 -2.68821,-1.16996 z m -2.28616,0.20309 -0.32815,1.92133 -1.90169,-0.9493 c 0.67656,-0.46622 1.42498,-0.80434 2.22984,-0.97203 z m 2.45205,0 c 0.80464,0.16769 1.55032,0.50596 2.22673,0.97203 l -1.90117,0.95188 z m -6.2203,1.90583 1.34514,2.69079 -2.716629,0.46199 a 6.4321354,6.4321405 0 0 1 1.371489,-3.15278 z m 9.98699,0 a 6.4321354,6.4321405 0 0 1 1.37149,3.15278 l -2.71663,-0.46199 z m -0.005,0.29559 -1.14721,2.30011 2.31717,0.39274 c -0.17029,-0.97968 -0.57388,-1.89741 -1.16996,-2.69285 z m -27.866513,0.003 c -0.364483,0.009 -0.66382,0.31512 -0.664042,0.68161 v 1.27486 c 2.12e-4,0.37233 0.308768,0.68207 0.681095,0.68161 0.37186,-2.2e-4 0.681402,-0.30976 0.681613,-0.68161 v -1.27486 c -2.24e-4,-0.37185 -0.309762,-0.68139 -0.681613,-0.68161 -0.0058,-1e-5 -0.01127,-1.6e-4 -0.01705,0 z m 1.699121,0 c -0.364485,0.009 -0.66382,0.31512 -0.664042,0.68161 v 1.27486 c 2.11e-4,0.37233 0.309285,0.68207 0.681612,0.68161 0.371861,-2.2e-4 0.680885,-0.30976 0.681096,-0.68161 v -1.27486 c -2.24e-4,-0.37185 -0.309244,-0.68139 -0.681096,-0.68161 -0.0058,-1e-5 -0.01175,-1.6e-4 -0.01757,0 z m 16.190222,5.2e-4 c -0.59529,0.79504 -0.9998,1.71186 -1.16995,2.69079 l 2.31717,-0.39378 z m -10.592631,0.003 c -0.356732,0.0179 -0.646254,0.32085 -0.646472,0.68161 v 1.27486 c 2.12e-4,0.37233 0.308769,0.68208 0.681096,0.68161 0.371859,-2.1e-4 0.6814,-0.30976 0.681612,-0.68161 v -1.27486 c -2.25e-4,-0.37185 -0.309762,-0.68139 -0.681612,-0.68161 -0.0058,-2e-5 -0.01123,-1.6e-4 -0.01705,0 -0.0057,1.4e-4 -0.01191,-2.8e-4 -0.01757,0 z m 52.558551,0 c -0.36448,0.009 -0.66381,0.31461 -0.66404,0.6811 v 1.27537 c 2.2e-4,0.37233 0.30928,0.68155 0.68161,0.68109 0.37186,-2.2e-4 0.68088,-0.30923 0.68109,-0.68109 v -1.27537 c -2.2e-4,-0.37186 -0.30924,-0.68088 -0.68109,-0.6811 -0.006,-1e-5 -0.012,-1.5e-4 -0.0176,0 z m 1.69964,0 c -0.36449,0.009 -0.66383,0.31461 -0.66405,0.6811 v 1.27537 c 2e-4,0.37233 0.30879,0.68155 0.6811,0.68109 0.37187,-2.2e-4 0.6814,-0.30923 0.68161,-0.68109 v -1.27537 c -2.3e-4,-0.37186 -0.30975,-0.68088 -0.68161,-0.6811 -0.005,-1e-5 -0.0114,-1.5e-4 -0.0171,0 z m 5.61464,0.003 c -0.36448,0.009 -0.66381,0.31512 -0.66404,0.68162 v 1.27485 c 2.1e-4,0.37233 0.30928,0.68208 0.68161,0.68162 0.37186,-2.2e-4 0.68089,-0.30976 0.6811,-0.68162 v -1.27485 c -2.2e-4,-0.37186 -0.30926,-0.6814 -0.6811,-0.68162 -0.005,-1e-5 -0.012,-1.5e-4 -0.0176,0 z m -89.709769,0.0413 c -0.0472,1.8e-4 -0.09643,5.2e-4 -0.147795,5.2e-4 h -0.435115 c -0.0047,-7e-5 -0.01077,-4e-5 -0.0155,0 -0.392814,1.3e-4 -0.716516,0.3236 -0.716235,0.71624 3.77e-4,0.3923 0.323872,0.7192 0.716235,0.71933 h 0.130224 v 3.92018 h -0.117305 -0.0057 c -0.0056,-8e-5 -0.01149,-7e-5 -0.01705,0 h -0.0026 c -0.38699,0.001 -0.703929,0.32134 -0.703833,0.70848 5.68e-4,0.38738 0.31896,0.70868 0.706416,0.709 a 0.32066355,0.32066355 0 0 0 0.0026,0 h 1.700672 c 0.38654,-3.2e-4 0.704255,-0.32043 0.706416,-0.70642 0.0022,0.38599 0.320392,0.7061 0.706934,0.70642 0.0049,3e-5 0.0095,7e-5 0.01447,0 h 0.0052 1.672766 c 0.3879,3.5e-4 0.708433,-0.32116 0.709001,-0.709 9.6e-5,-0.38827 -0.320647,-0.70883 -0.709001,-0.70848 h -0.136942 v -3.92018 h 0.127124 c 0.392819,5.3e-4 0.718442,-0.32658 0.718819,-0.71933 2.82e-4,-0.39309 -0.32555,-0.71677 -0.718819,-0.71624 h -1.67535 c -0.392372,1.3e-4 -0.716374,0.32405 -0.716752,0.71624 -2.8e-4,0.39206 0.322268,0.71808 0.714168,0.71933 0.0064,9e-5 0.01123,9e-5 0.01757,0 H 63.238 v 1.78594 l -1.247985,-2.26188 c -0.219271,-0.39743 -0.334423,-0.64545 -0.598413,-0.81183 -0.230993,-0.14557 -0.466371,-0.1496 -0.796851,-0.14832 z m 9.453686,5.2e-4 c -0.558769,0 -0.999506,0.17394 -1.287776,0.46354 -0.288278,0.28961 -0.409793,0.67359 -0.409794,1.03973 v 3.7822 c 10e-7,0.49582 0.262233,0.89422 0.595829,1.13481 0.333588,0.24057 0.73219,0.35295 1.101741,0.35295 0.369545,0 0.765563,-0.11134 1.095024,-0.35295 0.32947,-0.24162 0.586011,-0.64146 0.586011,-1.13481 v -3.7822 c 0,-0.3645 -0.118431,-0.74678 -0.403076,-1.03715 -0.284638,-0.29038 -0.723046,-0.46612 -1.277959,-0.46612 z m 6.518982,0 c -0.558769,0 -0.999506,0.17394 -1.287776,0.46354 -0.288279,0.28961 -0.41031,0.67359 -0.410311,1.03973 v 3.7822 c 10e-7,0.49582 0.262232,0.89422 0.595829,1.13481 0.33359,0.24057 0.732706,0.35295 1.102258,0.35295 0.369547,0 0.765561,-0.11129 1.095024,-0.35295 0.329471,-0.24162 0.586011,-0.64146 0.586011,-1.13481 v -3.7822 c 0,-0.3645 -0.11843,-0.74678 -0.403076,-1.03715 -0.284644,-0.29038 -0.723044,-0.46612 -1.277959,-0.46612 z m 3.799768,0 c -0.558769,0 -0.9995,0.17394 -1.287776,0.46354 -0.288275,0.28961 -0.410309,0.67359 -0.410311,1.03973 v 3.7822 c 2e-6,0.49582 0.262238,0.89422 0.595829,1.13481 0.333594,0.24057 0.732706,0.35295 1.102258,0.35295 0.369547,0 0.765558,-0.11129 1.095024,-0.35295 0.329471,-0.24162 0.586011,-0.64146 0.586011,-1.13481 v -3.7822 c 0,-0.3645 -0.11843,-0.74678 -0.403076,-1.03715 -0.284644,-0.29038 -0.723044,-0.46612 -1.277959,-0.46612 z m 7.321517,0 c -0.558769,0 -0.999503,0.17394 -1.287776,0.46354 -0.288279,0.28961 -0.41031,0.67359 -0.410311,1.03973 v 3.7822 c 10e-7,0.49582 0.262233,0.89422 0.595829,1.13481 0.333594,0.24057 0.732707,0.35295 1.102258,0.35295 0.369551,0 0.765557,-0.11129 1.095024,-0.35295 0.329468,-0.24162 0.586011,-0.64146 0.586011,-1.13481 v -3.7822 c 0,-0.3645 -0.118433,-0.74678 -0.403076,-1.03715 -0.284644,-0.29038 -0.723039,-0.46612 -1.277959,-0.46612 z m 34.121946,0 c -0.39175,0.001 -0.71443,0.32484 -0.71417,0.71675 3.9e-4,0.39223 0.32454,0.71844 0.71676,0.71882 a 0.32066355,0.32066355 0 0 0 0.003,0 h 0.1297 v 3.92018 h -0.1297 -0.0108 c -0.38788,4.5e-4 -0.7087,0.32062 -0.70849,0.70848 6.6e-4,0.37373 0.30109,0.68717 0.67386,0.70693 0.0103,5.9e-4 0.0221,0.003 0.0326,0.003 0.0169,2.1e-4 0.0327,-5.9e-4 0.0496,-0.003 l -0.0171,0.003 h 2.7802 0.0109 a 0.32066355,0.32066355 0 0 0 0.0124,-0.005 c 0.37708,-0.0132 0.68531,-0.32329 0.68678,-0.70125 v -0.003 c 2e-5,-0.004 10e-6,-0.006 0,-0.01 v -0.83974 c 2e-4,-0.3883 -0.32069,-0.7087 -0.709,-0.70849 -0.38831,-2.2e-4 -0.70973,0.32018 -0.70952,0.70849 v 0.14056 h -0.54363 v -1.23507 h 0.66145 c 0.39287,-5e-5 0.71619,-0.32338 0.71624,-0.71624 -5e-5,-0.39286 -0.32337,-0.71929 -0.71624,-0.71933 h -0.66145 v -1.25005 h 0.54363 v 0.10025 0.0207 c -1.4e-4,0.004 6e-5,0.009 0,0.0124 a 0.32066355,0.32066355 0 0 0 0,0.005 c 6e-5,0.38856 0.32304,0.70907 0.71159,0.70848 0.38717,-0.001 0.70842,-0.32107 0.70848,-0.70848 l -0.003,-0.86455 c -6e-5,-0.38809 -0.32039,-0.70894 -0.70848,-0.709 h -2.78795 c -0.005,-8e-5 -0.009,-5e-5 -0.015,0 z m 8.13129,0 c -0.55877,0 -0.99949,0.17394 -1.28778,0.46354 -0.28827,0.28961 -0.41031,0.67359 -0.41031,1.03973 v 3.7822 c 0,0.49582 0.26223,0.89422 0.59583,1.13481 0.33359,0.24057 0.7327,0.35347 1.10226,0.35347 0.36955,0 0.76557,-0.11181 1.09502,-0.35347 0.32948,-0.24162 0.5855,-0.64146 0.5855,-1.13481 v -3.7822 c 0,-0.3645 -0.11785,-0.74678 -0.40256,-1.03715 -0.28464,-0.29038 -0.72303,-0.46612 -1.27796,-0.46612 z m 6.48229,0 c -0.55877,0 -0.9995,0.17394 -1.28778,0.46354 -0.28828,0.28961 -0.40979,0.67359 -0.40979,1.03973 v 3.7822 c 0,0.49582 0.26223,0.89422 0.59583,1.13481 0.33359,0.24057 0.73218,0.35347 1.10174,0.35347 0.36955,0 0.76557,-0.11181 1.09502,-0.35347 0.32948,-0.24162 0.58602,-0.64146 0.58602,-1.13481 v -3.7822 c 0,-0.3645 -0.11837,-0.74678 -0.40308,-1.03715 -0.28465,-0.29038 -0.72303,-0.46612 -1.27796,-0.46612 z m 3.79977,0 c -0.55877,0 -0.99949,0.17394 -1.28778,0.46354 -0.28827,0.28961 -0.41031,0.67359 -0.41031,1.03973 v 3.7822 c 0,0.49582 0.26223,0.89422 0.59583,1.13481 0.3336,0.24057 0.7327,0.35347 1.10226,0.35347 0.36954,0 0.76555,-0.11181 1.09502,-0.35347 0.32946,-0.24162 0.58601,-0.64146 0.58601,-1.13481 v -3.7822 c 0,-0.3645 -0.11836,-0.74678 -0.40307,-1.03715 -0.28464,-0.29038 -0.72305,-0.46612 -1.27796,-0.46612 z m 7.32152,0 c -0.55877,0 -0.9995,0.17394 -1.28778,0.46354 -0.28828,0.28961 -0.41031,0.67359 -0.41031,1.03973 v 3.7822 c 0,0.49582 0.26227,0.89422 0.59583,1.13481 0.3336,0.24057 0.7327,0.35347 1.10226,0.35347 0.36955,0 0.76555,-0.11181 1.09502,-0.35347 0.32948,-0.24162 0.58601,-0.64146 0.58601,-1.13481 v -3.7822 c 0,-0.3645 -0.11837,-0.74678 -0.40308,-1.03715 -0.28465,-0.29038 -0.72303,-0.46612 -1.27795,-0.46612 z m -14.38,0.0134 c -0.61008,-1e-5 -1.10951,0.49992 -1.1095,1.11001 0,0.61008 0.49942,1.1095 1.1095,1.10949 0.61007,1e-5 1.10951,-0.49941 1.10949,-1.10949 2e-5,-0.61009 -0.49942,-1.11002 -1.10949,-1.11001 z m -59.890406,0.0165 c -0.610078,-1e-5 -1.109507,0.49992 -1.109493,1.11001 -5e-6,0.61008 0.499421,1.10951 1.109493,1.1095 0.610077,1e-5 1.109498,-0.49942 1.109493,-1.1095 1.5e-5,-0.61009 -0.499409,-1.11002 -1.109493,-1.11001 z m 9.876916,0.0501 c 0.302594,1.7e-4 0.553273,0.25086 0.553455,0.55345 v 1.27538 c -1.72e-4,0.3026 -0.250855,0.55121 -0.553455,0.55139 -0.302983,3.7e-4 -0.553282,-0.24841 -0.553454,-0.55139 v -1.27538 c 1.84e-4,-0.30298 0.250477,-0.55384 0.553454,-0.55345 z m 1.699638,0 c 0.302594,1.7e-4 0.553273,0.25086 0.553455,0.55345 v 1.27538 c -1.71e-4,0.3026 -0.250854,0.55121 -0.553455,0.55139 -0.302983,3.7e-4 -0.553282,-0.24841 -0.553454,-0.55139 v -1.27538 c 1.83e-4,-0.30298 0.250477,-0.55384 0.553454,-0.55345 z m 5.614645,0.003 c 0.302592,1.8e-4 0.553272,0.25086 0.553454,0.55346 v 1.27537 c -1.72e-4,0.3026 -0.250855,0.55121 -0.553454,0.55139 -0.302984,3.8e-4 -0.553283,-0.2484 -0.553455,-0.55139 v -1.27537 c 1.83e-4,-0.30298 0.250478,-0.55384 0.553455,-0.55346 z m 52.541497,0 c 0.3026,1.8e-4 0.55327,0.25086 0.55345,0.55346 v 1.27485 c -1.8e-4,0.3026 -0.25085,0.55121 -0.55345,0.55139 -0.30298,3.8e-4 -0.55328,-0.2484 -0.55346,-0.55139 v -1.27485 c 2e-4,-0.30298 0.25048,-0.55384 0.55346,-0.55346 z m 1.69912,0 c 0.30259,1.8e-4 0.55326,0.25086 0.55345,0.55346 v 1.27485 c -1.7e-4,0.3026 -0.25085,0.55121 -0.55345,0.55139 -0.30298,3.8e-4 -0.55329,-0.2484 -0.55346,-0.55139 v -1.27485 c 1.8e-4,-0.30298 0.25048,-0.55384 0.55346,-0.55346 z m 5.61516,0.003 c 0.3026,1.8e-4 0.55328,0.25086 0.55346,0.55346 v 1.27537 c -1.6e-4,0.3026 -0.25086,0.55121 -0.55346,0.55139 -0.30298,3.7e-4 -0.55327,-0.24841 -0.55345,-0.55139 v -1.27537 c 1.9e-4,-0.30299 0.25048,-0.55385 0.55345,-0.55346 z m -89.728373,0.0419 c 0.325102,-3.5e-4 0.53644,0.006 0.730188,0.12868 0.22143,0.13954 0.334188,0.36844 0.553455,0.76584 l 1.487765,2.69854 v -2.41277 h -0.240296 c -0.0045,6e-5 -0.01002,3e-5 -0.01447,0 -0.323448,-1.1e-4 -0.588825,-0.26772 -0.588595,-0.59118 3.13e-4,-0.32308 0.265522,-0.58849 0.588595,-0.58859 h 1.67535 c 0.323819,-4.4e-4 0.59141,0.26477 0.591178,0.58859 -3.11e-4,0.32346 -0.267733,0.59161 -0.591178,0.59118 h -0.257866 v 4.17546 h 0.267684 c 0.318947,-2.8e-4 0.581438,0.26241 0.58136,0.58136 -4.67e-4,0.3186 -0.26279,0.58164 -0.58136,0.58136 h -1.672766 -0.0078 c -0.0045,6e-5 -0.0085,3e-5 -0.01292,0 -0.318579,-2.6e-4 -0.581439,-0.26276 -0.581359,-0.58136 4.67e-4,-0.3182 0.263156,-0.5811 0.581359,-0.58136 h 0.07751 l -1.78077,-2.913 v 2.913 h 0.290939 c 0.318203,2.6e-4 0.580377,0.26316 0.580843,0.58136 8e-5,0.3186 -0.262263,0.5811 -0.580843,0.58136 h -1.701189 c -0.318203,-2.6e-4 -0.580894,-0.26314 -0.581359,-0.58136 -8e-5,-0.3179 0.261643,-0.58008 0.579292,-0.58136 h 0.0021 c 0.0045,-4e-5 0.008,-6e-5 0.0124,0 h 0.0083 0.244946 v -4.17546 h -0.257865 c -0.323064,-1.1e-4 -0.588285,-0.2681 -0.588595,-0.59118 -2.32e-4,-0.32276 0.263496,-0.58736 0.586011,-0.58859 h 0.0026 c 0.0044,-4e-5 0.0085,-7e-5 0.01292,0 h 0.438216 c 0.05136,0 0.0998,-4.7e-4 0.146244,-5.2e-4 z m 61.219523,0 c 0.005,-7e-5 0.01,-7e-5 0.015,0 h 2.78795 c 0.3188,5e-5 0.58337,0.26257 0.58342,0.58136 v 0.86403 c -5e-5,0.3188 -0.26206,0.58131 -0.58084,0.58136 -0.31919,4.9e-4 -0.58338,-0.26219 -0.58343,-0.58136 a 0.19239814,0.19239814 0 0 1 0,-0.003 c 0,-0.004 0.002,-0.009 0.002,-0.0129 a 0.19239814,0.19239814 0 0 1 -0.002,-0.003 v -0.25064 h -0.79943 v 1.50741 h 0.78858 c 0.32357,4e-5 0.5896,0.26607 0.58963,0.58962 a 0.19239814,0.19239814 0 0 0 0,5.2e-4 0.19239814,0.19239814 0 0 0 0,5.2e-4 0.19239814,0.19239814 0 0 0 0,5.1e-4 c -3e-5,0.32356 -0.26606,0.58959 -0.58963,0.58963 h -0.78858 v 1.48983 h 0.79892 v -0.26768 c -1.7e-4,-0.31826 0.26333,-0.58041 0.58136,-0.58136 h 0.003 c 0.31801,9.6e-4 0.58152,0.2631 0.58136,0.58136 v 0.83871 c 2e-5,0.004 2e-5,0.006 0,0.0103 v 0.003 c -0.001,0.31246 -0.25581,0.5685 -0.56844,0.57619 a 0.19239814,0.19239814 0 0 1 -0.005,0.003 h -0.01 -2.78122 l 0.0109,-0.003 c -0.0139,0.001 -0.027,0.003 -0.0408,0.003 -0.009,0 -0.0179,-0.002 -0.0269,-0.003 -0.30764,-0.0145 -0.55289,-0.27079 -0.55345,-0.57878 -1.6e-4,-0.31858 0.26175,-0.58047 0.58033,-0.58084 h 0.0108 0.25786 v -4.17545 h -0.25786 a 0.19239814,0.19239814 0 0 1 -0.003,0 c -0.323,-3.2e-4 -0.58826,-0.26817 -0.5886,-0.59118 -2.1e-4,-0.32336 0.26522,-0.58828 0.5886,-0.5886 z m 8.1287,0 c 0.52914,0 0.92972,0.16281 1.18752,0.42582 0.25782,0.26301 0.36536,0.61274 0.36536,0.94981 v 3.7822 c 0,0.45161 -0.22962,0.80926 -0.5333,1.03198 -0.30369,0.22273 -0.67767,0.32814 -1.01958,0.32814 -0.34191,0 -0.71885,-0.106 -1.02681,-0.32814 -0.30797,-0.22209 -0.54415,-0.5789 -0.54415,-1.03198 v -3.7822 c 0,-0.33806 0.11281,-0.68728 0.37413,-0.94981 0.26134,-0.26255 0.66362,-0.42582 1.19683,-0.42582 z m 6.48229,0 c 0.52913,0 0.93024,0.16281 1.18804,0.42582 0.25782,0.26301 0.36484,0.61274 0.36484,0.94981 v 3.7822 c 0,0.45161 -0.2296,0.80926 -0.5333,1.03198 -0.30369,0.22273 -0.67767,0.32814 -1.01958,0.32814 -0.34191,0 -0.71833,-0.106 -1.02629,-0.32814 -0.30797,-0.22209 -0.54416,-0.5789 -0.54416,-1.03198 v -3.7822 c 0,-0.33806 0.11232,-0.68728 0.37362,-0.94981 0.26134,-0.26255 0.66362,-0.42582 1.19683,-0.42582 z m 3.79977,0 c 0.52912,0 0.9297,0.16281 1.18752,0.42582 0.2578,0.26301 0.36536,0.61274 0.36536,0.94981 v 3.7822 c 0,0.45161 -0.22962,0.80926 -0.5333,1.03198 -0.3037,0.22273 -0.67768,0.32814 -1.01958,0.32814 -0.34191,0 -0.71885,-0.106 -1.02681,-0.32814 -0.30797,-0.22209 -0.54364,-0.5789 -0.54364,-1.03198 v -3.7822 c 0,-0.33806 0.11231,-0.68728 0.37362,-0.94981 0.26134,-0.26255 0.66362,-0.42582 1.19683,-0.42582 z m 7.32152,0 c 0.52912,0 0.92972,0.16281 1.18752,0.42582 0.25782,0.26301 0.36535,0.61274 0.36535,0.94981 v 3.7822 c 0,0.45161 -0.2296,0.80926 -0.5333,1.03198 -0.3037,0.22273 -0.67766,0.32814 -1.01957,0.32814 -0.34191,0 -0.71833,-0.106 -1.0263,-0.32814 -0.30796,-0.22209 -0.54415,-0.5789 -0.54415,-1.03198 v -3.7822 c 0,-0.33806 0.1123,-0.68728 0.37362,-0.94981 0.26134,-0.26255 0.66362,-0.42582 1.19683,-0.42582 z m -77.497083,5.2e-4 c 0.529119,0 0.930242,0.1628 1.188042,0.42581 0.257806,0.26301 0.364836,0.61223 0.364835,0.9493 v 3.78271 c 10e-7,0.45161 -0.2296,0.80926 -0.5333,1.03198 -0.303693,0.22273 -0.677666,0.32815 -1.019577,0.32815 -0.341909,0 -0.718328,-0.10605 -1.026293,-0.32815 -0.307968,-0.22209 -0.544151,-0.5789 -0.544153,-1.03198 v -3.78271 c 2e-6,-0.33806 0.112296,-0.68677 0.37362,-0.9493 0.261335,-0.26255 0.663621,-0.42581 1.196826,-0.42581 z m 6.518982,0 c 0.529121,0 0.93024,0.1628 1.188042,0.42581 0.257806,0.26301 0.364836,0.61223 0.364835,0.9493 v 3.78271 c 10e-7,0.45161 -0.229598,0.80926 -0.533301,1.03198 -0.303697,0.22273 -0.677669,0.32815 -1.019576,0.32815 -0.34191,0 -0.718332,-0.10601 -1.026294,-0.32815 -0.307966,-0.22209 -0.544149,-0.5789 -0.544152,-1.03198 v -3.78271 c 3e-6,-0.33806 0.112288,-0.68677 0.37362,-0.9493 0.261335,-0.26255 0.66362,-0.42581 1.196826,-0.42581 z m 3.799768,0 c 0.529121,0 0.92972,0.1628 1.187525,0.42581 0.257809,0.26301 0.365353,0.61223 0.365352,0.9493 v 3.78271 c 10e-7,0.45161 -0.2296,0.80926 -0.5333,1.03198 -0.3037,0.22273 -0.67767,0.32815 -1.019577,0.32815 -0.341909,0 -0.71885,-0.10601 -1.02681,-0.32815 -0.307968,-0.22209 -0.54415,-0.5789 -0.544153,-1.03198 v -3.78271 c 3e-6,-0.33806 0.112805,-0.68677 0.374137,-0.9493 0.261335,-0.26255 0.66362,-0.42581 1.196826,-0.42581 z m 7.321517,0 c 0.529126,0 0.929719,0.1628 1.187525,0.42581 0.257806,0.26301 0.365353,0.61223 0.365352,0.9493 v 3.78271 c 10e-7,0.45161 -0.229601,0.80926 -0.533301,1.03198 -0.303697,0.22273 -0.677665,0.32815 -1.019576,0.32815 -0.341909,0 -0.718845,-0.10601 -1.02681,-0.32815 -0.307968,-0.22209 -0.543634,-0.5789 -0.543636,-1.03198 v -3.78271 c 2e-6,-0.33806 0.112288,-0.68677 0.37362,-0.9493 0.261332,-0.26255 0.663621,-0.42581 1.196826,-0.42581 z m 45.451486,0.0129 c 0.009,-2.1e-4 0.017,0 0.0253,0 0.54075,-2e-5 0.98238,0.44159 0.98236,0.98237 2e-5,0.54076 -0.44161,0.98133 -0.98236,0.98133 -0.54075,0 -0.98134,-0.44057 -0.98134,-0.98133 -1e-5,-0.53233 0.42686,-0.96888 0.95601,-0.98237 z m -59.890398,0.017 c 0.0084,-2.1e-4 0.01688,0 0.02532,0 0.540768,-2e-5 0.981865,0.44159 0.981852,0.98237 5e-6,0.54076 -0.441089,0.98134 -0.981852,0.98134 -0.540761,0 -0.981857,-0.44058 -0.981852,-0.98134 -1.3e-5,-0.53233 0.427373,-0.96888 0.95653,-0.98237 z m 37.743438,0.0904 c 0.46601,0.67626 0.80219,1.42483 0.96996,2.22932 l -1.91874,-0.32763 z m -9.96425,0.003 0.94981,1.89859 -1.9172,0.32814 c 0.16753,-0.8034 0.50236,-1.55114 0.96739,-2.22673 z m 32.13757,0.0181 a 0.85362886,0.85362886 0 0 0 -0.8537,0.8537 0.85362886,0.85362886 0 0 0 0.8537,0.85318 0.85362886,0.85362886 0 0 0 0.85318,-0.85318 0.85362886,0.85362886 0 0 0 -0.85318,-0.8537 z m -50.01452,0.004 a 0.36009432,0.36009432 0 0 0 -0.360184,0.36018 v 1.27486 a 0.36009432,0.36009432 0 0 0 0.360184,0.36018 0.36009432,0.36009432 0 0 0 0.360185,-0.36018 v -1.27486 a 0.36009432,0.36009432 0 0 0 -0.360185,-0.36018 z m 1.699638,0 a 0.36009432,0.36009432 0 0 0 -0.360701,0.36018 v 1.27486 a 0.36009432,0.36009432 0 0 0 0.360701,0.36018 0.36009432,0.36009432 0 0 0 0.359668,-0.36018 v -1.27486 a 0.36009432,0.36009432 0 0 0 -0.359668,-0.36018 z m 58.156142,0.003 a 0.36009432,0.36009432 0 0 0 -0.3607,0.36019 v 1.27485 a 0.36009432,0.36009432 0 0 0 0.3607,0.36019 0.36009432,0.36009432 0 0 0 0.35967,-0.36019 v -1.27485 a 0.36009432,0.36009432 0 0 0 -0.35967,-0.36019 z m 1.69912,0 a 0.36009432,0.36009432 0 0 0 -0.3607,0.36019 v 1.27485 a 0.36009432,0.36009432 0 0 0 0.3607,0.36019 0.36009432,0.36009432 0 0 0 0.36018,-0.36019 v -1.27485 a 0.36009432,0.36009432 0 0 0 -0.36018,-0.36019 z m -54.240617,5.2e-4 a 0.36009432,0.36009432 0 0 0 -0.360702,0.36018 v 1.27486 a 0.36009432,0.36009432 0 0 0 0.360702,0.36018 0.36009432,0.36009432 0 0 0 0.360184,-0.36018 v -1.27486 a 0.36009432,0.36009432 0 0 0 -0.360184,-0.36018 z m 59.855777,0.003 a 0.36009432,0.36009432 0 0 0 -0.3607,0.35967 v 1.27537 a 0.36009432,0.36009432 0 0 0 0.3607,0.35967 0.36009432,0.36009432 0 0 0 0.35967,-0.35967 v -1.27537 a 0.36009432,0.36009432 0 0 0 -0.35967,-0.35967 z m -77.046459,0.008 a 0.85362886,0.85362886 0 0 0 -0.853695,0.85318 0.85362886,0.85362886 0 0 0 0.853695,0.8537 0.85362886,0.85362886 0 0 0 0.853694,-0.8537 0.85362886,0.85362886 0 0 0 -0.853694,-0.85318 z m 48.538639,0.032 a 0.39739828,0.39739828 0 0 0 -0.39687,0.39791 0.39739828,0.39739828 0 0 0 0.39687,0.39688 h 0.45165 v 4.56096 h -0.44958 -0.0103 a 0.38883623,0.38883623 0 0 0 -0.3886,0.38912 0.38883623,0.38883623 0 0 0 0.37052,0.38757 0.38883623,0.38883623 0 0 0 0.0186,0.001 0.38883623,0.38883623 0 0 0 0.0279,-0.001 h 5.2e-4 l 2.78174,0.001 h 0.009 l 0.001,-0.001 a 0.38883623,0.38883623 0 0 0 0.37982,-0.38809 0.38883623,0.38883623 0 0 0 0,-5.1e-4 0.38883623,0.38883623 0 0 0 0,-5.2e-4 0.38883623,0.38883623 0 0 0 0,-5.2e-4 0.38883623,0.38883623 0 0 0 0,-5.1e-4 0.38883623,0.38883623 0 0 0 0,-5.2e-4 0.38883623,0.38883623 0 0 0 0,-5.2e-4 0.38883623,0.38883623 0 0 0 0,-5.1e-4 0.38883623,0.38883623 0 0 0 0,-5.2e-4 0.38883623,0.38883623 0 0 0 0,-5.2e-4 0.38883623,0.38883623 0 0 0 0,-5.1e-4 0.38883623,0.38883623 0 0 0 0,-5.2e-4 0.38883623,0.38883623 0 0 0 0,-5.2e-4 0.38883623,0.38883623 0 0 0 0,-5.1e-4 0.38883623,0.38883623 0 0 0 0,-5.2e-4 0.38883623,0.38883623 0 0 0 0,-5.2e-4 0.38883623,0.38883623 0 0 0 0,-5.1e-4 0.38883623,0.38883623 0 0 0 0,-5.2e-4 0.38883623,0.38883623 0 0 0 0,-5.2e-4 0.38883623,0.38883623 0 0 0 0,-5.1e-4 0.38883623,0.38883623 0 0 0 0,-5.2e-4 v -0.83819 a 0.38883623,0.38883623 0 0 0 -0.38912,-0.38913 0.38883623,0.38883623 0 0 0 -0.38912,0.38913 v 0.45992 h -1.18443 v -1.87431 h 0.98082 a 0.39770551,0.39770551 0 0 0 0.39791,-0.39739 0.39770551,0.39770551 0 0 0 -0.39791,-0.39791 h -0.98082 v -1.89135 h 1.18443 v 0.44183 h 5.1e-4 a 0.38910559,0.38910559 0 0 0 -5.1e-4,0.0176 0.38910559,0.38910559 0 0 0 0.38964,0.38861 0.38910559,0.38910559 0 0 0 0.38912,-0.38861 l -5.2e-4,-0.86506 a 0.38910559,0.38910559 0 0 0 -0.38912,-0.38913 h -2.79156 a 0.39739828,0.39739828 0 0 0 -0.0109,0 z m 8.12819,0 c -0.98973,0 -1.3782,0.59204 -1.37821,1.18391 v 3.78271 c 1e-5,0.77794 0.77732,1.16686 1.37821,1.16686 0.6009,0 1.36066,-0.38892 1.36064,-1.16686 v -3.78271 c 2e-5,-0.59187 -0.37977,-1.18391 -1.36064,-1.18391 z m 6.4828,0 c -0.98971,0 -1.37871,0.59204 -1.37872,1.18391 v 3.78271 c 1e-5,0.77794 0.77785,1.16686 1.37872,1.16686 0.6009,0 1.36066,-0.38892 1.36064,-1.16686 v -3.78271 c 2e-5,-0.59187 -0.3798,-1.18391 -1.36064,-1.18391 z m 3.79926,0 c -0.98972,0 -1.37819,0.59204 -1.37821,1.18391 v 3.78271 c 2e-5,0.77794 0.77732,1.16686 1.37821,1.16686 0.60087,0 1.36064,-0.38892 1.36064,-1.16686 v -3.78271 c 0,-0.59187 -0.37982,-1.18391 -1.36064,-1.18391 z m 7.32203,0 c -0.98973,0 -1.37873,0.59204 -1.37873,1.18391 v 3.78271 c 0,0.77794 0.77782,1.16686 1.37873,1.16686 0.60089,0 1.36064,-0.38892 1.36064,-1.16686 v -3.78271 c 0,-0.59187 -0.37978,-1.18391 -1.36064,-1.18391 z m -87.550212,0.001 a 0.39712228,0.3973748 0 0 0 -0.396875,0.39739 0.39712228,0.3973748 0 0 0 0.396875,0.39687 H 60.4482 v 4.56148 h -0.439767 -0.0098 a 0.38869741,0.38894456 0 0 0 -0.01033,0 0.38869741,0.38894456 0 0 0 -0.388607,0.38912 0.38869741,0.38894456 0 0 0 0.388607,0.38809 h 1.702738 a 0.38869723,0.38894438 0 0 0 0.38809,-0.38912 0.38869723,0.38894438 0 0 0 -0.38809,-0.38809 H 61.20815 v -3.78943 l 2.313554,3.78943 h -0.419613 a 0.38869746,0.38894463 0 0 0 -0.38809,0.38809 0.38869746,0.38894463 0 0 0 0.38809,0.38912 0.38869746,0.38894463 0 0 0 0.01085,0 h 0.0098 1.672766 a 0.38869799,0.38894514 0 0 0 0.389124,-0.38809 0.38869799,0.38894514 0 0 0 -0.389124,-0.38912 h -0.459403 v -4.56148 h 0.450618 a 0.39712228,0.3973748 0 0 0 0.397909,-0.39687 0.39712228,0.3973748 0 0 0 -0.397909,-0.39739 h -1.675867 a 0.3971246,0.39737712 0 0 0 -0.396875,0.39687 0.3971246,0.39737712 0 0 0 0.396875,0.39739 0.3971246,0.39737712 0 0 0 0.01034,0 h 0.437182 v 3.35329 l -1.850016,-3.35329 c -0.438539,-0.7948 -0.438467,-0.79426 -1.260388,-0.79426 h -0.4408 a 0.39712228,0.3973748 0 0 0 -0.01085,0 z m 10.053133,0 c -0.989723,0 -1.378725,0.59152 -1.378727,1.18339 v 3.78323 c 2e-6,0.77794 0.777831,1.16633 1.378727,1.16633 0.600889,0 1.360641,-0.38839 1.36064,-1.16633 v -3.78323 c 10e-7,-0.59187 -0.379776,-1.18339 -1.36064,-1.18339 z m 6.518982,0 c -0.989719,0 -1.378724,0.59152 -1.378727,1.18339 v 3.78323 c 3e-6,0.77794 0.777835,1.16633 1.378727,1.16633 0.600895,0 1.360641,-0.38839 1.36064,-1.16633 v -3.78323 c 10e-7,-0.59187 -0.37977,-1.18339 -1.36064,-1.18339 z m 3.799251,0 c -0.98972,0 -1.378208,0.59152 -1.37821,1.18339 v 3.78323 c 2e-6,0.77794 0.777317,1.16633 1.37821,1.16633 0.600896,0 1.360642,-0.38839 1.360641,-1.16633 v -3.78323 c 10e-7,-0.59187 -0.379771,-1.18339 -1.360641,-1.18339 z m 7.321517,0 c -0.98972,0 -1.378208,0.59152 -1.37821,1.18339 v 3.78323 c 2e-6,0.77794 0.777314,1.16633 1.37821,1.16633 0.600894,0 1.360642,-0.38839 1.360641,-1.16633 v -3.78323 c 10e-7,-0.59187 -0.379773,-1.18339 -1.360641,-1.18339 z m 45.477329,0.30437 a 0.49838754,0.49838754 0 0 1 0.49816,0.49868 0.49838754,0.49838754 0 0 1 -0.49816,0.49816 0.49838754,0.49838754 0 0 1 -0.49868,-0.49816 0.49838754,0.49838754 0 0 1 0.49868,-0.49868 z m -59.890919,0.0176 a 0.49838754,0.49838754 0 0 1 0.498161,0.49816 0.49838754,0.49838754 0 0 1 -0.498161,0.49868 0.49838754,0.49838754 0 0 1 -0.498161,-0.49868 0.49838754,0.49838754 0 0 1 0.498161,-0.49816 z m 59.889889,0.11007 c -0.20594,-1e-5 -0.37052,0.16509 -0.37052,0.37104 0,0.20595 0.16459,0.37053 0.37052,0.37052 0.20593,1e-5 0.37103,-0.16457 0.37103,-0.37052 0,-0.20595 -0.1651,-0.37105 -0.37103,-0.37104 z m -59.890406,0.0171 c -0.205941,-1e-5 -0.370525,0.16509 -0.37052,0.37104 0,0.20595 0.164583,0.37054 0.37052,0.37052 0.205943,2e-5 0.371038,-0.16457 0.371037,-0.37052 6e-6,-0.20595 -0.165091,-0.37105 -0.371037,-0.37104 z m 59.877996,0.11318 c 0.004,-1.9e-4 0.009,0 0.0124,0 0.13663,0 0.24341,0.10423 0.24339,0.24081 0,0.13663 -0.10673,0.24238 -0.24339,0.24236 -0.13662,2e-5 -0.24031,-0.10573 -0.2403,-0.24236 -1e-5,-0.13236 0.0976,-0.23459 0.22789,-0.24081 z m -59.890915,0.0176 c 0.0042,-1.9e-4 0.0087,0 0.01292,0 0.136631,0 0.242882,0.10371 0.242879,0.24029 0,0.13663 -0.106249,0.2429 -0.242879,0.24288 -0.136623,2e-5 -0.240813,-0.10625 -0.240812,-0.24288 -4e-6,-0.13236 0.09759,-0.23407 0.227892,-0.24029 z m 56.680265,0.21394 c 0.30044,0 0.60047,0.19464 0.60048,0.38912 v 3.6065 0.17621 c 0,0.19449 -0.30004,0.38913 -0.60048,0.38913 -0.30045,0 -0.601,-0.19464 -0.601,-0.38913 0.006,-1.25491 -0.006,-2.52772 0,-3.78271 0,-0.19448 0.30055,-0.38912 0.601,-0.38912 z m 6.4828,0 c 0.30044,0 0.60047,0.19464 0.60048,0.38912 v 3.6065 0.17621 c 0,0.19449 -0.30004,0.38913 -0.60048,0.38913 -0.30045,0 -0.60151,-0.19464 -0.60151,-0.38913 0.006,-1.25491 -0.006,-2.52772 0,-3.78271 0,-0.19448 0.30106,-0.38912 0.60151,-0.38912 z m 3.79926,0 c 0.30045,0 0.60048,0.19464 0.60048,0.38912 v 3.6065 0.17621 c 0,0.19449 -0.30003,0.38913 -0.60048,0.38913 -0.30044,0 -0.601,-0.19464 -0.601,-0.38913 0.006,-1.25491 -0.006,-2.52772 0,-3.78271 0,-0.19448 0.30056,-0.38912 0.601,-0.38912 z m 7.32151,0 c 0.30043,0 0.60048,0.19464 0.60048,0.38912 v 3.6065 0.17621 c 2e-5,0.19449 -0.30005,0.38913 -0.60048,0.38913 -0.30046,0 -0.60099,-0.19464 -0.60099,-0.38913 0.006,-1.25491 -0.006,-2.52772 0,-3.78271 0,-0.19448 0.30053,-0.38912 0.60099,-0.38912 z m -77.496559,5.1e-4 c 0.300431,0 0.600475,0.19465 0.60048,0.38913 v 3.60701 0.17622 c 2e-6,0.19449 -0.300047,0.38912 -0.60048,0.38912 -0.300448,0 -0.601514,-0.19463 -0.601514,-0.38912 0.0059,-1.2549 -0.0059,-2.52826 0,-3.78323 2e-6,-0.19448 0.301066,-0.38913 0.601514,-0.38913 z m 6.518982,0 c 0.300437,0 0.600475,0.19465 0.60048,0.38913 v 3.60701 0.17622 c 10e-7,0.19449 -0.30004,0.38912 -0.60048,0.38912 -0.300444,0 -0.601514,-0.19463 -0.601514,-0.38912 0.0059,-1.25493 -0.0059,-2.52826 0,-3.78323 3e-6,-0.19448 0.30107,-0.38913 0.601514,-0.38913 z m 3.799251,0 c 0.300436,0 0.600475,0.19465 0.60048,0.38913 v 3.60701 0.17622 c 10e-7,0.19449 -0.300041,0.38912 -0.60048,0.38912 -0.300443,0 -0.600997,-0.19463 -0.600997,-0.38912 0.0059,-1.25493 -0.0059,-2.52826 0,-3.78323 3e-6,-0.19448 0.300554,-0.38913 0.600997,-0.38913 z m 7.321517,0 c 0.300437,0 0.600474,0.19465 0.60048,0.38913 v 3.60701 0.17622 c 10e-7,0.19449 -0.30004,0.38912 -0.60048,0.38912 -0.300448,0 -0.600997,-0.19463 -0.600997,-0.38912 0.0059,-1.25494 -0.0059,-2.52826 0,-3.78323 3e-6,-0.19448 0.300549,-0.38913 0.600997,-0.38913 z m 42.252719,0.19276 c -0.10863,0 -0.22798,0.0386 -0.30799,0.0904 -0.08,0.0517 -0.0997,0.10671 -0.0997,0.10542 -0.006,1.25235 0.006,2.52623 0,3.7822 v 0.003 c 5e-4,-5.1e-4 0.0207,0.0532 0.0997,0.10438 0.08,0.0517 0.1993,0.0904 0.30799,0.0904 0.10863,0 0.22818,-0.0387 0.30799,-0.0904 0.0798,-0.0517 0.10025,-0.10825 0.10025,-0.10697 v -0.1757 -3.60701 c 0,0.001 -0.0205,-0.0538 -0.10025,-0.10542 -0.0798,-0.0517 -0.19929,-0.0899 -0.30799,-0.0899 z m 6.48229,0 c -0.10863,0 -0.22798,0.0386 -0.30799,0.0904 -0.08,0.0517 -0.10025,0.10671 -0.10025,0.10542 -0.006,1.25235 0.006,2.52623 0,3.7822 v 0.003 c 5e-4,-5.1e-4 0.0213,0.0532 0.10025,0.10438 0.08,0.0517 0.1993,0.0904 0.30799,0.0904 0.10863,0 0.2287,-0.0387 0.30851,-0.0904 0.0798,-0.0517 0.0997,-0.10825 0.0997,-0.10697 v -0.1757 -3.60701 c 0,0.001 -0.0199,-0.0538 -0.0997,-0.10542 -0.0798,-0.0517 -0.19981,-0.0899 -0.30851,-0.0899 z m 3.79977,0 c -0.10863,0 -0.22799,0.0386 -0.30799,0.0904 -0.08,0.0517 -0.10025,0.10671 -0.10025,0.10542 -0.006,1.25235 0.006,2.52623 0,3.7822 v 0.003 c 5e-4,-5.1e-4 0.0213,0.0532 0.10025,0.10438 0.08,0.0517 0.19929,0.0904 0.30799,0.0904 0.10863,0 0.22872,-0.0387 0.30851,-0.0904 0.0798,-0.0517 0.0997,-0.10825 0.0997,-0.10697 v -0.1757 -3.60701 c 0,0.001 -0.0199,-0.0538 -0.0997,-0.10542 -0.0798,-0.0517 -0.19982,-0.0899 -0.30851,-0.0899 z m 7.32152,0 c -0.10863,0 -0.22799,0.0386 -0.308,0.0904 -0.08,0.0517 -0.10025,0.10671 -0.10025,0.10542 -0.006,1.25235 0.006,2.52623 0,3.7822 v 0.003 c 5e-4,-5.1e-4 0.0213,0.0532 0.10025,0.10438 0.08,0.0517 0.19931,0.0904 0.308,0.0904 0.10863,0 0.2287,-0.0387 0.3085,-0.0904 0.0798,-0.0517 0.0997,-0.10825 0.0997,-0.10697 v -0.1757 -3.60701 c 0,0.001 -0.02,-0.0538 -0.0997,-0.10542 -0.0798,-0.0517 -0.19981,-0.0899 -0.3085,-0.0899 z m -77.497083,0.001 c -0.108696,0 -0.227987,0.0381 -0.307991,0.0899 -0.08,0.0517 -0.100252,0.10671 -0.100252,0.10542 -0.0059,1.25233 0.0059,2.52674 0,3.78271 v 0.003 c 5.01e-4,-5.1e-4 0.02125,0.0537 0.100252,0.10491 0.08,0.0517 0.199299,0.0899 0.307991,0.0899 0.108693,0 0.22871,-0.0382 0.308509,-0.0899 0.07981,-0.0517 0.09974,-0.10877 0.09974,-0.10749 v -0.1757 -3.6065 c 0,0.002 -0.01994,-0.0537 -0.09974,-0.10542 -0.0798,-0.0517 -0.199815,-0.0899 -0.308509,-0.0899 z m 6.518982,0 c -0.108693,0 -0.227987,0.0381 -0.307991,0.0899 -0.08,0.0517 -0.100252,0.10671 -0.100252,0.10542 -0.0059,1.25233 0.0059,2.52674 0,3.78271 v 0.003 c 5e-4,-5.1e-4 0.02124,0.0537 0.100252,0.10491 0.08,0.0517 0.199298,0.0899 0.307991,0.0899 0.108694,0 0.22871,-0.0382 0.308509,-0.0899 0.07981,-0.0517 0.09973,-0.10877 0.09973,-0.10749 v -0.1757 -3.6065 c 0,0.001 -0.01994,-0.0537 -0.09973,-0.10542 -0.0798,-0.0517 -0.199815,-0.0899 -0.308509,-0.0899 z m 3.799768,0 c -0.108692,0 -0.227987,0.0381 -0.307991,0.0899 -0.08,0.0517 -0.100252,0.10671 -0.100252,0.10542 -0.0059,1.25233 0.0059,2.52674 0,3.78271 v 0.003 c 5e-4,-5.1e-4 0.02124,0.0537 0.100252,0.10491 0.08,0.0517 0.199299,0.0899 0.307991,0.0899 0.10869,0 0.228194,-0.0382 0.307992,-0.0899 0.07981,-0.0517 0.100252,-0.10877 0.100252,-0.10749 v -0.1757 -3.6065 c 0,0.001 -0.02045,-0.0537 -0.100252,-0.10542 -0.0798,-0.0517 -0.199302,-0.0899 -0.307992,-0.0899 z m 7.321517,0 c -0.108692,0 -0.227987,0.0381 -0.307991,0.0899 -0.08,0.0517 -0.100252,0.10671 -0.100252,0.10542 -0.0059,1.25233 0.0059,2.52674 0,3.78271 v 0.003 c 5e-4,-5.1e-4 0.02124,0.0537 0.100252,0.10491 0.08,0.0517 0.199299,0.0899 0.307991,0.0899 0.108694,0 0.228193,-0.0382 0.307992,-0.0899 0.07981,-0.0517 0.100252,-0.10877 0.100252,-0.10749 v -0.1757 -3.6065 c 0,0.001 -0.02045,-0.0537 -0.100252,-0.10542 -0.0798,-0.0517 -0.199298,-0.0899 -0.307992,-0.0899 z m 42.253236,0.12712 c 0.0811,0 0.17974,0.0327 0.23771,0.0703 0.0282,0.0183 0.0397,0.0335 0.0434,0.0372 v 3.56671 0.13642 c -0.004,0.004 -0.015,0.021 -0.0434,0.0393 -0.058,0.0376 -0.1567,0.0703 -0.23771,0.0703 -0.0811,0 -0.17954,-0.0326 -0.23771,-0.0703 -0.0283,-0.0183 -0.0387,-0.0349 -0.0424,-0.0393 0.005,-1.23184 -0.005,-2.47712 0,-3.70313 0.004,-0.004 0.0141,-0.0194 0.0424,-0.0377 0.0582,-0.0377 0.1567,-0.0698 0.23771,-0.0698 z m 6.48229,0 c 0.0811,0 0.18026,0.0327 0.23823,0.0703 0.0282,0.0183 0.0387,0.0335 0.0424,0.0372 v 3.56671 0.13642 c -0.004,0.004 -0.0141,0.021 -0.0424,0.0393 -0.058,0.0376 -0.15722,0.0703 -0.23823,0.0703 -0.0811,0 -0.17954,-0.0326 -0.23771,-0.0703 -0.0283,-0.0183 -0.0387,-0.0349 -0.0424,-0.0393 0.005,-1.23184 -0.005,-2.47712 0,-3.70313 0.004,-0.004 0.0141,-0.0194 0.0424,-0.0377 0.0582,-0.0377 0.1567,-0.0698 0.23771,-0.0698 z m 3.79977,0 c 0.0811,0 0.18026,0.0327 0.23823,0.0703 0.0282,0.0183 0.0387,0.0335 0.0424,0.0372 v 3.56671 0.13642 c -0.004,0.004 -0.0141,0.021 -0.0424,0.0393 -0.058,0.0376 -0.15723,0.0703 -0.23823,0.0703 -0.0811,0 -0.17953,-0.0326 -0.23771,-0.0703 -0.0283,-0.0183 -0.0387,-0.0349 -0.0424,-0.0393 0.005,-1.23184 -0.005,-2.47712 0,-3.70313 0.004,-0.004 0.0141,-0.0194 0.0424,-0.0377 0.0582,-0.0377 0.15669,-0.0698 0.23771,-0.0698 z m 7.32152,0 c 0.0811,0 0.18025,0.0327 0.23822,0.0703 0.0282,0.0183 0.0387,0.0335 0.0424,0.0372 v 3.56671 0.13642 c -0.004,0.004 -0.0141,0.021 -0.0424,0.0393 -0.058,0.0376 -0.15722,0.0703 -0.23822,0.0703 -0.0811,0 -0.17955,-0.0326 -0.23772,-0.0703 -0.0283,-0.0183 -0.0387,-0.0349 -0.0424,-0.0393 0.005,-1.23184 -0.005,-2.47712 0,-3.70313 0.004,-0.004 0.0141,-0.0194 0.0424,-0.0377 0.0582,-0.0377 0.1567,-0.0698 0.23772,-0.0698 z m -77.497083,5.2e-4 c 0.081,0 0.180264,0.0327 0.238229,0.0703 0.02822,0.0183 0.03869,0.0335 0.04238,0.0372 v 3.56722 0.13643 c -0.0037,0.004 -0.01412,0.021 -0.04238,0.0393 -0.05796,0.0376 -0.157221,0.0698 -0.238229,0.0698 -0.08102,0 -0.179534,-0.0321 -0.237711,-0.0698 -0.02835,-0.0183 -0.03871,-0.035 -0.04238,-0.0393 0.0054,-1.23184 -0.0054,-2.47764 0,-3.70365 0.0037,-0.004 0.01405,-0.0194 0.04238,-0.0377 0.05818,-0.0377 0.156699,-0.0698 0.237711,-0.0698 z m 6.518982,0 c 0.081,0 0.180264,0.0327 0.238229,0.0703 0.02823,0.0183 0.03869,0.0335 0.04237,0.0372 v 3.56722 0.13643 c -0.0037,0.004 -0.01411,0.021 -0.04237,0.0393 -0.05796,0.0376 -0.157221,0.0698 -0.238229,0.0698 -0.08102,0 -0.179535,-0.0321 -0.237711,-0.0698 -0.02834,-0.0183 -0.03871,-0.0349 -0.04237,-0.0393 0.0054,-1.23184 -0.0054,-2.47764 0,-3.70365 0.0037,-0.004 0.01405,-0.0194 0.04237,-0.0377 0.05818,-0.0377 0.156698,-0.0698 0.237711,-0.0698 z m 3.799768,0 c 0.081,0 0.179747,0.0327 0.237712,0.0703 0.02823,0.0183 0.03921,0.0335 0.04289,0.0372 v 3.56722 0.13643 c -0.0037,0.004 -0.01463,0.021 -0.04289,0.0393 -0.05796,0.0376 -0.156708,0.0698 -0.237712,0.0698 -0.08102,0 -0.179535,-0.0321 -0.237711,-0.0698 -0.02834,-0.0183 -0.03871,-0.0349 -0.04237,-0.0393 0.0054,-1.23184 -0.0054,-2.47764 0,-3.70365 0.0037,-0.004 0.01405,-0.0194 0.04237,-0.0377 0.05817,-0.0377 0.156698,-0.0698 0.237711,-0.0698 z m 7.321517,0 c 0.081,0 0.180264,0.0327 0.238229,0.0703 0.02823,0.0183 0.03869,0.0335 0.04237,0.0372 v 3.56722 0.13643 c -0.0037,0.004 -0.01411,0.021 -0.04237,0.0393 -0.05796,0.0376 -0.157221,0.0698 -0.238229,0.0698 -0.08102,0 -0.179535,-0.0321 -0.237711,-0.0698 -0.02834,-0.0183 -0.03871,-0.0349 -0.04237,-0.0393 0.0054,-1.23184 -0.0054,-2.47764 0,-3.70365 0.0037,-0.004 0.01405,-0.0194 0.04237,-0.0377 0.05817,-0.0377 0.156699,-0.0698 0.237711,-0.0698 z m -26.159126,1.59267 1.477946,2.42259 c -0.31454,0.0707 -0.608894,0.27577 -0.611333,0.60926 -0.0028,-0.38553 -0.320331,-0.70351 -0.706416,-0.70383 h -0.160197 z m 38.118086,1.57148 2.716626,0.46147 -1.34462,2.69079 a 6.4321354,6.4321405 0 0 1 -1.372006,-3.15226 z m 12.734106,0 a 6.4321354,6.4321405 0 0 1 -1.37304,3.15639 l -1.34721,-2.69337 z m -12.5274,0.16278 c 0.16994,0.97967 0.57428,1.89465 1.16995,2.69027 l 1.14722,-2.29443 z m 12.31966,0.003 -2.31975,0.39274 1.1498,2.30012 c 0.59631,-0.79601 0.99999,-1.7125 1.16995,-2.69286 z m -12.11244,0.16485 1.9172,0.32608 -0.94981,1.89807 c -0.46488,-0.67545 -0.79987,-1.42099 -0.96739,-2.22415 z m 11.90625,0 c -0.16768,0.80587 -0.50457,1.55513 -0.97151,2.23242 l -0.95188,-1.90428 z m -7.31325,2.42155 0.46199,2.71715 a 6.4321354,6.4321405 0 0 1 -3.15278,-1.37201 z m 2.71767,0 2.69182,1.34618 a 6.4321354,6.4321405 0 0 1 -3.15536,1.37459 z m -2.81637,0.19121 -2.29702,1.14721 c 0.79566,0.59642 1.71283,1.0022 2.69286,1.17254 z m 2.91094,0 -0.39275,2.32234 c 0.98076,-0.17061 1.89687,-0.57525 2.69286,-1.17254 z m -3.00912,0.19275 0.32918,1.91875 c -0.80449,-0.16776 -1.55356,-0.50289 -2.22984,-0.96894 z m 3.10937,0 1.90324,0.9524 c -0.67727,0.46772 -1.4252,0.80326 -2.23139,0.97151 z" />
  <path
     id="path3219"
     style="fill:#cccccc;stroke-width:1.64142;stroke-linecap:square;stroke-linejoin:bevel;paint-order:markers fill stroke"
     d="M 71.238029 62.303691 L 71.238029 68.229427 L 72.33822 69.329618 L 74.325179 69.329618 L 75.42537 68.229427 L 75.42537 62.303691 L 74.094702 62.303691 L 74.094702 67.617578 L 73.71333 67.99895 L 72.950069 67.99895 L 72.568697 67.617578 L 72.568697 62.303691 L 71.238029 62.303691 z M 76.312138 62.303691 L 76.312138 69.329618 L 77.642806 69.329618 L 77.642806 65.878666 L 79.168811 69.329618 L 80.472607 69.329618 L 80.472607 62.303691 L 79.141939 62.303691 L 79.141939 65.745858 L 77.625236 62.303691 L 76.312138 62.303691 z M 81.359892 62.303691 L 81.359892 69.329618 L 84.446525 69.329618 L 85.546716 68.229427 L 85.546716 63.403882 L 84.446525 62.303691 L 81.359892 62.303691 z M 86.434001 62.303691 L 86.434001 69.329618 L 90.620825 69.329618 L 90.620825 67.99895 L 87.764669 67.99895 L 87.764669 66.48173 L 89.09482 66.48173 L 89.09482 65.151579 L 87.764669 65.151579 L 87.764669 63.634359 L 90.620825 63.634359 L 90.620825 62.303691 L 86.434001 62.303691 z M 91.50811 62.303691 L 91.50811 69.329618 L 92.838778 69.329618 L 92.838778 66.48173 L 93.929667 66.48173 L 93.929667 65.151579 L 92.838778 65.151579 L 92.838778 63.634359 L 95.038643 63.634359 L 95.038643 62.303691 L 91.50811 62.303691 z M 95.925411 62.303691 L 95.925411 69.329618 L 97.256079 69.329618 L 97.256079 62.303691 L 95.925411 62.303691 z M 98.143363 62.303691 L 98.143363 69.329618 L 99.474032 69.329618 L 99.474032 65.878666 L 100.99952 69.329618 L 102.30383 69.329618 L 102.30383 62.303691 L 100.97316 62.303691 L 100.97316 65.745858 L 99.455945 62.303691 L 98.143363 62.303691 z M 103.1906 62.303691 L 103.1906 69.329618 L 107.37794 69.329618 L 107.37794 67.99895 L 104.52127 67.99895 L 104.52127 66.48173 L 105.85194 66.48173 L 105.85194 65.151579 L 104.52127 65.151579 L 104.52127 63.634359 L 107.37794 63.634359 L 107.37794 62.303691 L 103.1906 62.303691 z M 108.26471 62.303691 L 108.26471 69.329618 L 111.35186 69.329618 L 112.45205 68.229427 L 112.45205 63.403882 L 111.35186 62.303691 L 108.26471 62.303691 z M 116.65645 62.303691 L 115.55677 63.403882 L 115.55677 65.373271 L 116.66575 66.48173 L 118.03156 66.48173 L 118.42223 66.863619 L 118.42223 67.617578 L 118.03156 67.99895 L 117.26881 67.99895 L 116.88744 67.617578 L 116.88744 67.111666 L 115.55677 67.111666 L 115.55677 68.229427 L 116.65645 69.329618 L 118.64392 69.329618 L 119.7436 68.229427 L 119.7436 66.251253 L 118.64392 65.151579 L 117.26881 65.151579 L 116.88744 64.760905 L 116.88744 64.015731 L 117.26881 63.634359 L 118.03156 63.634359 L 118.42223 64.006946 L 118.42223 64.512858 L 119.7436 64.512858 L 119.7436 63.403882 L 118.64392 62.303691 L 116.65645 62.303691 z M 120.63088 62.303691 L 120.63088 63.634359 L 121.87266 63.634359 L 121.87266 69.329618 L 123.20333 69.329618 L 123.20333 63.634359 L 124.43633 63.634359 L 124.43633 62.303691 L 120.63088 62.303691 z M 125.50087 62.303691 L 124.10819 69.329618 L 125.45642 69.329618 L 125.55409 68.841793 L 126.8491 68.841793 L 126.93799 69.329618 L 128.3038 69.329618 L 126.91112 62.303691 L 125.50087 62.303691 z M 127.97565 62.303691 L 127.97565 63.634359 L 129.21795 63.634359 L 129.21795 69.329618 L 130.54862 69.329618 L 130.54862 63.634359 L 131.78162 63.634359 L 131.78162 62.303691 L 127.97565 62.303691 z M 132.66839 62.303691 L 132.66839 69.329618 L 136.85573 69.329618 L 136.85573 67.99895 L 133.99906 67.99895 L 133.99906 66.48173 L 135.32972 66.48173 L 135.32972 65.151579 L 133.99906 65.151579 L 133.99906 63.634359 L 136.85573 63.634359 L 136.85573 62.303691 L 132.66839 62.303691 z M 138.84269 62.303691 L 137.7425 63.403882 L 137.7425 65.373271 L 138.85147 66.48173 L 140.2178 66.48173 L 140.60795 66.863619 L 140.60795 67.617578 L 140.2178 67.99895 L 139.45454 67.99895 L 139.07316 67.617578 L 139.07316 67.111666 L 137.7425 67.111666 L 137.7425 68.229427 L 138.84269 69.329618 L 140.82965 69.329618 L 141.92984 68.229427 L 141.92984 66.251253 L 140.82965 65.151579 L 139.45454 65.151579 L 139.07316 64.760905 L 139.07316 64.015731 L 139.45454 63.634359 L 140.2178 63.634359 L 140.60795 64.006946 L 140.60795 64.512858 L 141.92984 64.512858 L 141.92984 63.403882 L 140.82965 62.303691 L 138.84269 62.303691 z M 82.69056 63.634359 L 83.834676 63.634359 L 84.216048 64.015731 L 84.216048 67.617578 L 83.834676 67.99895 L 82.69056 67.99895 L 82.69056 63.634359 z M 109.59538 63.634359 L 110.74001 63.634359 L 111.12138 64.015731 L 111.12138 67.617578 L 110.74001 67.99895 L 109.59538 67.99895 L 109.59538 63.634359 z M 126.2016 65.594963 L 126.58297 67.51991 L 125.82023 67.51991 L 126.2016 65.594963 z M 50.793282 73.709713 C 50.525541 73.724073 50.214371 73.787184 49.853288 73.907633 C 47.766716 74.147221 45.181829 73.437655 43.392183 74.243014 C 43.690855 76.677379 42.797026 79.502062 43.829366 81.696305 C 44.954141 83.27105 44.213993 84.261792 44.523897 85.870211 C 44.150783 88.751785 44.527897 91.928101 44.292387 94.776644 C 44.400329 94.789744 44.474379 94.830914 44.533716 94.883097 C 44.550506 94.935587 44.580848 94.976932 44.613298 94.979732 C 44.950009 95.643023 43.315458 97.628566 41.992269 96.677303 C 41.246792 96.448524 41.308773 96.012546 41.694096 94.851058 C 41.497711 94.329864 41.744906 92.480014 41.82277 91.199084 C 42.106165 88.054434 41.646685 84.785271 41.899768 81.882857 C 43.698849 80.676138 42.125661 77.942567 42.722974 76.247542 C 43.316187 73.671744 41.01467 73.641026 38.90977 73.907633 L 33.950899 73.907633 C 33.392107 76.328959 33.887159 79.078716 33.719389 81.621891 C 35.446733 81.899924 35.855219 82.964591 35.520312 85.376701 C 35.38473 90.045666 35.249058 94.70291 35.520312 99.36086 C 36.342099 99.861737 38.324355 105.08361 38.710299 102.37928 C 38.541996 103.80769 39.102328 105.10885 41.076562 104.65253 C 42.906476 103.89684 45.936545 105.42872 47.348531 103.87686 C 48.365056 102.05002 50.258152 100.81393 50.594845 98.6901 C 50.567875 95.573344 50.735951 92.135602 50.46617 89.075183 C 49.13026 88.864252 48.437451 89.545496 49.565967 88.180664 C 50.705493 89.798827 50.807987 85.90901 49.977311 85.870211 C 51.673681 86.288103 49.356605 81.94865 51.438721 81.957271 C 53.288965 81.868711 52.045011 78.860777 52.241256 77.559607 C 52.412605 75.893528 52.667466 73.609198 50.793282 73.709713 z M 180.55384 73.786711 C 180.01924 73.786296 179.46945 73.892037 179.0144 74.079199 C 177.37392 73.834699 176.13654 73.978176 174.56402 74.116406 C 173.47853 74.207206 173.85483 77.248748 173.99713 78.476347 C 172.97058 80.751962 174.63678 81.711203 175.66938 82.314872 C 175.0817 83.069871 176.69875 85.832823 175.90037 84.774154 C 175.08844 84.766154 176.0419 89.200714 175.38619 88.538265 C 174.23724 86.911137 174.27571 84.366044 172.94242 82.911218 C 172.40906 84.347994 173.1134 80.76066 172.0417 79.892281 C 171.21743 77.893876 170.65779 76.042804 169.80359 74.116406 C 168.05503 73.569787 166.83311 74.408676 165.05969 74.116406 C 161.65702 73.480697 163.1658 77.670885 162.7973 79.28715 C 162.7762 80.634699 162.29223 84.876645 164.17034 84.008309 C 164.36031 87.676992 164.33641 91.590411 164.17034 95.358004 C 164.40826 96.319903 163.944 97.922966 163.39881 96.662317 C 162.13319 97.700376 163.30482 100.20711 162.85828 101.84598 C 162.58328 103.2507 162.75587 105.61737 164.01635 104.4882 C 163.99365 104.95826 164.44206 104.69278 164.70933 104.76105 L 164.70984 104.76105 C 165.65573 104.88042 169.0989 104.67675 167.79854 104.41378 C 168.16777 102.83786 167.53606 104.78743 166.64151 103.89237 C 166.04748 102.73091 167.17645 103.74347 167.61819 103.40764 C 167.34227 102.38068 166.15443 102.12765 164.91758 102.10333 C 163.53277 100.63782 165.95289 99.315036 165.56095 98.339217 C 166.59706 100.32984 165.94658 95.287875 166.12681 94.290369 C 165.51892 93.01409 166.46681 91.490568 166.12681 89.201274 C 165.9416 87.048526 166.48951 84.667427 165.86946 82.650252 C 165.57884 82.485348 165.16905 82.220534 164.7548 81.796558 C 164.82325 81.650578 163.93014 79.101626 165.38009 79.127987 C 164.26035 76.671342 168.17582 75.427857 169.11009 77.582345 C 169.98468 79.35852 170.32782 81.165463 171.29704 82.874011 C 171.49528 82.613741 172.145 84.545015 172.04273 84.849084 C 172.79488 87.395452 173.92638 89.8856 174.95004 92.413997 C 175.96867 92.940187 175.04134 94.054086 175.97892 95.134762 C 176.52506 97.896469 177.51435 97.791662 177.11064 94.816435 C 177.41973 93.04076 176.59437 90.813028 177.29099 89.582129 C 176.48285 87.185754 178.11448 83.965337 176.31327 82.016699 C 175.81802 79.010952 176.2035 81.808999 176.9308 82.016699 C 178.06831 79.847491 175.76368 79.67274 175.64458 77.938395 C 174.44514 75.490948 177.87936 77.262523 178.70537 76.501274 C 180.26963 76.170614 181.09711 77.136614 180.55745 78.737313 C 178.36329 79.143919 179.27432 81.788196 179.09088 83.684814 C 179.28893 85.807199 178.85677 88.130205 179.3229 90.02913 C 180.72524 89.037144 178.67593 90.521139 179.09139 92.148897 C 178.4561 93.616856 180.0038 95.450897 179.40042 94.761658 C 178.33334 96.652356 180.20105 97.593854 179.09088 98.935563 C 179.63104 100.04995 179.80557 101.09855 179.3229 102.10333 C 178.0518 102.32067 178.16673 102.20512 176.38975 101.91678 C 175.60961 101.37601 174.55423 99.150573 174.64102 98.675114 C 174.40123 96.783146 172.39553 95.335377 173.02045 94.269181 C 171.54912 91.183864 170.47369 87.981548 169.23877 84.886292 C 168.97643 82.587917 167.38981 81.686091 168.4414 84.625326 C 169.01655 85.889374 168.17638 85.982381 168.10809 84.662533 C 168.12639 87.35649 168.08632 90.264583 168.10602 92.71217 C 168.24289 93.948069 167.94232 95.787029 168.10653 97.408008 C 169.4901 97.270708 166.85213 99.140453 169.0579 99.270943 C 169.1191 97.640605 170.52088 99.856498 169.90694 100.68739 C 170.36895 101.892 168.84463 99.787046 169.72659 101.39536 C 168.17117 102.50672 167.95547 101.97693 168.77523 103.98332 C 169.68684 103.08326 169.29453 104.13222 169.878 104.40706 C 171.83565 105.71089 171.1332 101.73082 171.19368 100.31481 C 171.85676 98.069662 170.72376 97.13742 169.57311 96.16984 C 170.09865 95.015422 168.99394 90.873866 170.24181 92.115824 C 171.36477 96.185497 173.25549 100.03107 174.48651 104.15333 C 175.17502 104.64683 176.03878 104.8058 176.97369 104.82978 C 178.53187 104.86978 180.28712 104.53477 181.75376 104.74916 C 181.55194 103.57986 179.76258 102.33511 181.59563 102.00049 C 182.26918 101.53027 182.51361 98.460178 181.51915 96.439075 C 180.8587 95.929265 179.35148 93.588195 181.02048 94.687244 C 180.39602 93.339865 181.42151 91.589422 180.58329 90.327303 C 181.00293 88.853738 180.61509 87.784811 181.04631 86.339433 C 181.38051 84.646264 180.06256 81.708165 182.35838 81.606905 C 182.46091 79.754927 182.29017 78.22371 182.51289 76.298702 C 183.18624 74.483838 181.92003 73.78777 180.55384 73.786711 z M 18.189587 73.789811 C 16.631415 73.749851 14.876678 74.084809 13.410034 73.870426 C 10.998862 74.173463 14.514298 78.264778 12.882935 76.479053 C 13.018898 77.123695 11.338276 82.628462 14.0255 82.180514 C 14.293604 83.823961 15.722516 84.324964 14.169161 84.081173 C 14.465577 85.456567 14.244861 87.385125 14.351579 88.596659 C 14.550504 90.155712 14.248328 91.072829 14.117485 92.660494 C 14.233993 94.738481 14.428675 96.72052 12.80542 97.393538 C 12.75098 99.155531 12.79972 100.76684 12.651424 102.70174 C 11.770383 105.38551 15.127058 104.64282 16.329753 104.72694 C 18.023192 104.61398 19.188876 104.61261 20.677291 104.6148 C 21.844828 103.9243 21.014961 101.24262 21.320662 99.882275 C 22.270246 97.258464 19.981885 97.232359 19.493901 96.04375 C 20.198841 95.306937 18.102315 92.44937 19.468062 94.03147 C 19.938026 93.097821 18.981459 88.787218 20.008598 90.416703 C 20.87408 91.991651 21.002665 94.368523 22.220866 95.70837 C 22.754401 94.270975 22.048652 97.858613 23.121069 98.72679 C 23.712882 99.858949 24.083567 102.2671 24.896155 102.30435 C 24.186428 103.15576 25.70192 105.57113 27.056746 104.50318 C 28.189898 104.23295 31.452227 105.4852 30.99294 103.02524 C 31.04722 101.14723 30.735201 99.281239 30.99294 97.534615 C 30.657027 96.030933 31.12984 94.009966 30.99294 92.280155 C 30.59568 89.117903 31.02666 85.631897 30.99294 82.515894 C 30.90734 80.221903 31.884711 83.081663 32.305005 81.203829 C 32.1487 78.831033 32.497861 76.256468 32.201652 73.907633 C 30.646295 73.66496 31.970584 74.602638 30.454472 73.858541 C 29.359882 74.048593 26.417957 73.56294 27.237097 74.466772 C 26.474274 76.173606 28.224856 73.875755 29.269531 74.615601 C 30.635587 76.118577 26.287461 73.978097 27.879952 75.771086 C 28.069836 76.45511 30.088577 76.248986 30.606917 76.963261 C 30.89357 78.403977 29.128756 80.897169 29.346529 79.571887 C 28.646992 80.891032 29.155103 83.359705 29.115019 85.050106 C 29.362119 85.600687 28.794318 89.028543 29.038021 90.941736 C 29.011381 92.746546 28.922392 95.307364 29.423527 96.453544 C 29.936887 98.151039 29.219502 96.259923 29.038021 97.273132 C 28.684827 98.731805 30.011132 102.17438 27.62312 102.11831 C 25.418062 101.97825 25.62889 98.988196 24.612968 97.534098 C 24.03314 95.534838 23.406069 96.290394 23.408907 94.341012 C 22.447865 94.758001 23.354336 92.241133 22.297864 91.347913 C 21.257614 89.63916 21.234145 87.136641 19.674251 85.869694 C 19.927583 85.060386 19.433134 83.882748 18.876884 82.739653 C 18.065279 79.227528 17.8851 83.309309 18.053678 84.946236 C 18.069628 87.005232 18.154731 88.387089 18.053678 90.051868 C 18.417959 92.213345 17.219899 94.948872 18.851046 96.602889 C 19.346481 99.608016 18.960558 96.810817 18.233512 96.602889 C 17.095629 98.77236 19.400885 98.946842 19.519739 100.68119 C 20.71932 103.12856 17.284411 101.35707 16.458427 102.11831 C 14.893644 102.44886 14.065972 101.48267 14.606344 99.882275 C 16.800195 99.475967 15.888819 96.830685 16.072404 94.934774 C 15.875224 92.812602 16.307297 90.489721 15.840894 88.590458 C 14.437986 89.583111 16.487289 88.098232 16.071887 86.470691 C 16.707592 85.00166 15.159359 83.168764 15.763379 83.857414 C 16.829224 81.966709 14.962861 81.025712 16.072404 79.684025 C 14.177445 79.761675 13.860792 76.608734 15.840894 76.51626 C 17.11333 76.298471 16.994637 76.414189 18.773531 76.702295 C 19.554359 77.242957 20.609053 79.469665 20.522778 79.944474 C 20.762859 81.836296 22.767361 83.283067 22.143868 84.350407 C 23.613816 87.436117 24.689968 90.638628 25.925033 93.733297 C 26.188143 96.031199 27.772573 96.933887 26.7224 93.994263 C 26.167008 91.172163 27.188355 94.959957 27.056746 93.195345 C 27.033106 90.742978 27.085326 88.119977 27.056746 85.907418 C 26.920887 84.668902 27.220732 82.833661 27.056746 81.21158 C 25.674365 81.348801 28.309663 79.479149 26.105383 79.348645 C 26.044113 80.978754 24.642585 78.763352 25.25634 77.932194 C 24.418903 76.33035 28.430119 76.791527 26.619564 75.733362 C 27.035745 73.319025 24.838139 75.997269 25.925033 74.578394 C 24.406334 72.622991 23.4297 75.423363 23.944275 77.671228 C 24.291517 79.04835 22.942633 82.161611 25.385014 81.770719 C 25.495006 83.280346 25.819659 86.333894 25.153503 86.950765 C 23.816323 82.751409 22.016477 78.736286 20.677291 74.466256 C 19.98879 73.972752 19.124491 73.813787 18.189587 73.789811 z M 96.410136 73.870426 C 94.972373 74.43074 97.109272 77.198555 96.126949 76.777226 C 95.924157 78.064204 95.073895 82.286204 96.924833 81.957271 C 98.235136 83.579767 97.123546 86.233391 97.49069 88.255078 C 98.132589 89.378189 96.930552 90.979455 97.49069 92.652226 C 96.778594 93.964981 98.558442 97.275225 96.116614 96.900545 C 96.076474 99.273922 95.741566 101.7911 95.870117 104.39104 C 96.303248 104.98108 96.834266 104.51115 97.166162 104.44737 C 97.162262 104.45637 97.16156 104.45142 97.15686 104.46442 C 97.17802 104.54312 97.197806 104.48764 97.202336 104.44014 C 97.33128 104.42714 97.42833 104.48424 97.465369 104.72694 L 104.9507 104.72694 C 105.47071 102.30117 105.21387 99.397175 105.02821 97.012683 C 102.80514 97.215955 103.92787 93.388298 103.87066 91.571672 C 103.80706 89.07798 103.79585 86.491039 103.79315 84.081173 C 102.99598 81.783729 106.10785 82.499934 105.18221 80.019405 C 104.33141 79.780589 103.46396 78.314168 104.53936 78.267574 C 104.93625 80.993217 105.70141 76.587279 105.36256 75.501851 C 106.33878 73.991955 103.11742 73.664058 103.79315 74.652808 C 103.76315 74.282553 101.19842 73.906043 99.876591 74.130876 C 97.973383 73.50552 97.638935 75.218233 96.410136 73.870426 z M 149.09374 73.870426 C 147.8157 77.039829 147.59038 80.446493 146.54713 83.708586 C 146.48633 85.568849 145.84499 86.851134 145.69808 88.478837 C 144.72424 90.023911 146.45052 90.768015 146.90628 90.044116 C 147.27349 88.739172 148.77173 86.032958 147.18947 85.4599 C 148.65693 85.588919 148.01427 84.242792 148.65604 83.261584 C 149.22269 81.075737 149.55576 78.858945 150.22597 76.740019 C 151.87571 76.686239 154.0391 76.238112 153.75082 78.491333 C 156.27943 79.690003 153.18585 79.103443 154.65051 80.988338 C 154.56091 80.956308 154.97173 83.031544 154.93266 83.44762 C 155.38209 85.000862 155.39795 86.291087 156.01322 86.09397 C 155.01623 87.21574 156.65244 89.054809 156.34756 90.602738 C 156.80775 91.40242 156.8077 94.837563 157.73714 94.105884 C 159.46361 94.271388 159.01847 93.697737 157.53147 93.136951 C 157.94468 92.575897 159.37916 90.968375 157.65963 90.639945 C 158.26109 88.736838 157.49159 86.468073 157.17077 84.938485 C 156.52982 82.293228 156.11165 79.339309 155.36984 76.85164 C 155.57971 74.878437 154.03721 73.229425 152.18038 74.354635 C 151.26775 73.958219 150.0303 74.315755 149.09374 73.870426 z M 54.820943 73.898332 L 54.820943 73.898848 C 53.207463 73.850869 53.708475 76.248101 53.630318 76.51626 C 53.262162 78.073084 53.498854 79.89536 53.681478 81.21158 C 53.003541 82.338303 55.979029 82.168369 55.071057 84.374695 C 54.936409 88.507918 55.374825 92.796274 54.837996 96.624076 C 52.68869 96.548136 53.597759 99.923684 53.424646 101.80671 C 52.94727 104.24292 54.321256 105.31359 56.856995 104.72642 C 58.644475 104.77802 58.720828 104.5096 60.087288 104.50318 C 61.882737 104.49518 63.845907 104.55298 65.463704 104.72642 C 66.86121 104.75732 66.514576 104.99676 67.75297 104.72591 C 67.476299 102.92045 68.902481 103.44521 69.37251 102.87692 C 69.33247 100.92355 69.46538 99.344101 69.476379 97.178564 C 69.106963 95.723288 70.320914 91.90952 68.653174 91.906535 C 67.349214 91.474278 66.483995 92.086182 65.309192 91.683293 C 63.410855 91.288125 63.64866 93.911431 63.739779 95.596232 C 64.86749 97.723462 61.626495 96.217768 61.090328 97.123787 C 61.136368 96.655546 61.766469 94.649653 61.116166 93.434607 C 61.65437 93.162881 61.139906 91.718403 61.450513 90.660616 C 61.540613 87.821685 61.278314 85.192761 61.450513 82.515377 C 63.949093 82.376605 62.695122 80.009115 63.096924 78.437073 C 62.831681 77.070471 63.536124 75.317312 62.736739 74.093152 C 60.954516 73.658004 60.07247 73.909576 59.015002 76.364848 C 60.182634 76.685475 62.075446 77.229917 60.910494 79.348128 C 58.778622 78.995638 59.660229 82.059827 59.495593 83.641406 C 59.145061 88.669703 59.316185 94.162533 59.418079 99.098861 C 60.933457 100.14306 62.782585 98.965982 64.22347 99.509172 C 65.429838 99.869082 65.917123 98.391103 65.695215 97.08658 C 65.398588 95.834596 65.530554 93.754433 67.495622 94.589575 C 67.458312 96.547103 68.012803 97.803039 67.547298 99.695207 C 68.416261 102.2916 66.686837 102.54049 64.454464 102.1178 C 62.793492 102.68607 62.539062 102.0794 60.348771 102.1178 C 58.664952 102.1462 57.074918 102.28047 55.379565 101.96845 C 54.43158 99.099309 57.932275 99.830948 56.871464 96.88866 C 56.825724 91.390753 56.920894 85.169494 56.871464 79.832336 C 54.964807 80.346619 54.758075 76.359192 56.46012 76.962744 C 57.533013 76.571607 59.51577 77.108388 58.415039 75.285844 C 59.391189 74.260541 57.25291 73.649482 56.125773 74.801636 C 55.852775 74.439085 56.681644 73.948514 55.649833 74.081783 C 55.32518 73.961781 55.051441 73.905186 54.820943 73.898332 z M 72.519088 73.898848 C 70.905864 73.850809 71.407361 76.248024 71.328463 76.51626 C 70.960858 78.073518 71.196875 79.895624 71.380139 81.21158 C 70.843712 82.291793 73.755076 82.418996 72.769202 84.75555 C 72.638434 88.762628 73.070292 92.91542 72.536658 96.624076 C 70.38748 96.547666 71.295673 99.923672 71.122791 101.80671 C 70.645954 104.2426 72.019251 105.3136 74.555656 104.72642 C 76.529764 105.45635 77.916936 103.55059 77.785433 104.50318 C 79.530785 104.9239 81.544137 104.55298 83.161849 104.72642 C 83.120469 102.376 85.044455 104.81202 85.451632 104.72642 C 87.490294 105.04905 86.717759 103.58581 87.071171 102.87744 C 87.030941 100.92329 87.163871 99.345323 87.175041 97.179081 C 86.806053 95.723778 88.018978 91.909086 86.351835 91.907052 C 85.047298 91.474723 84.182703 92.086479 83.007336 91.683809 C 81.109984 91.288472 81.347073 93.911924 81.43844 95.596749 C 82.565026 97.724385 79.325876 96.217976 78.788989 97.124304 C 78.834059 96.657653 79.465718 94.648507 78.814311 93.435124 C 79.352811 93.163481 78.838162 91.718855 79.148657 90.661133 C 79.238387 87.822864 78.977125 85.1933 79.148657 82.515894 C 81.647297 82.377465 80.393555 80.009351 80.795068 78.43759 C 80.530136 77.070821 81.234427 75.317985 80.434884 74.093669 C 78.651949 73.658065 75.257133 74.283094 76.713147 76.365365 C 77.880871 76.68585 79.773651 77.230363 78.608639 79.348645 C 76.476832 78.996606 77.358343 82.060262 77.193738 83.641923 C 76.844433 88.670762 77.014366 94.162432 77.11674 99.099377 C 78.632179 100.14373 80.480796 98.966368 81.922131 99.509688 C 83.127978 99.869462 83.616018 98.391349 83.393359 97.087097 C 83.096948 95.834568 83.228923 93.755604 85.194283 94.590092 C 85.156953 96.547741 85.711361 97.80411 85.245443 99.695723 C 86.11468 102.29155 84.385283 102.54122 82.153125 102.11831 C 80.492109 102.68645 80.23743 102.08011 78.046916 102.11831 C 76.363026 102.14671 74.773669 102.28103 73.07771 101.96897 C 72.129463 99.099339 75.63116 99.831894 74.570125 96.889176 C 74.524455 91.390996 74.619455 85.172031 74.570125 79.832853 C 72.663144 80.347564 72.455945 76.359915 74.158264 76.963261 C 75.231547 76.572329 75.916601 77.213866 75.949369 75.286361 C 75.897099 73.703059 73.699109 74.041802 73.347978 74.0823 C 73.023353 73.962287 72.749547 73.905711 72.519088 73.898848 z M 125.40837 73.898848 C 123.79539 73.850979 124.29589 76.247971 124.21722 76.51626 C 123.84961 78.073527 124.08567 79.895616 124.2689 81.21158 C 123.59083 82.338163 126.5665 82.168583 125.65848 84.374695 C 125.52383 88.507924 125.96225 92.796266 125.42542 96.624076 C 123.27611 96.548136 124.18518 99.92369 124.01207 101.80671 C 123.53469 104.24293 124.90865 105.31359 127.44442 104.72642 C 129.419 105.45626 130.80495 103.55076 130.67471 104.50318 C 132.42015 104.92392 134.43311 104.55298 136.05113 104.72642 C 136.98583 104.71312 136.74552 104.85294 137.17509 103.32703 C 137.54332 102.82527 136.89111 105.41091 138.46907 104.5776 C 140.73684 105.13729 139.30516 103.42486 140.0638 102.71466 C 139.75314 100.60881 140.19228 98.759457 140.0638 96.417371 C 139.78499 94.843204 140.93489 91.38171 138.72642 91.683293 C 137.49853 92.031305 136.69076 91.559543 135.56227 91.907052 C 133.81135 91.234394 134.213 94.683885 134.50704 95.857198 C 134.89417 97.723298 132.03072 96.341954 131.39456 97.012683 C 132.39571 96.247628 132.04867 94.388417 131.5744 93.174158 C 132.61622 93.094968 131.4902 91.03515 132.03742 89.899422 C 132.28459 87.215075 131.53259 84.609484 132.29528 82.180514 C 134.8702 82.395505 133.01238 79.437103 133.68435 78.056734 C 133.34758 76.747403 134.63222 73.571379 132.1816 74.093669 C 130.09123 73.339844 128.21524 75.443056 129.95434 76.888847 C 131.73083 75.453078 132.59226 79.339163 130.95738 79.53468 C 129.17312 79.5654 130.48417 83.226509 130.08302 84.677519 C 129.62884 89.277894 130.06672 94.327085 129.90267 98.876135 C 131.0072 100.3836 133.25875 98.876201 134.43055 99.509688 C 135.82739 99.849987 136.52246 98.785934 136.30848 97.199235 C 136.03374 95.947944 135.96885 93.863169 138.00656 94.515678 C 138.09906 96.308513 138.50481 97.509586 138.21224 99.211515 C 138.6085 101.35396 138.17434 102.99146 135.80411 102.11831 C 133.65125 102.18301 133.71273 102.60817 131.6979 102.11831 C 129.6552 102.09561 127.94253 102.32718 125.96699 101.96897 C 125.01902 99.099609 128.5198 99.831694 127.45889 96.889176 C 127.41309 91.3903 127.50839 85.170981 127.45889 79.832853 C 125.55266 80.34744 125.34521 76.359807 127.04754 76.963261 C 128.12112 76.572258 128.73583 77.471067 129.00246 75.286361 C 129.97732 74.260058 126.77342 73.262073 126.7132 74.802153 C 126.44128 74.439699 127.26737 73.947261 126.23674 74.0823 C 125.9122 73.962333 125.63879 73.905687 125.40837 73.898848 z M 117.24711 74.023905 C 115.96226 74.011875 114.40861 74.400655 113.32952 74.130876 L 110.68678 74.130876 C 108.78104 76.911925 106.11641 79.502007 106.95678 83.14893 C 107.32591 85.242047 105.96074 88.350015 108.24301 89.596598 C 108.48973 92.19916 110.96406 92.842251 113.20239 92.428467 C 115.47289 91.719615 116.83911 92.573031 116.14071 94.71825 C 117.43961 97.708253 112.37434 97.671912 113.49075 94.744088 C 112.45578 93.233687 109.78021 94.590174 107.91796 94.068677 C 106.58133 95.354811 108.49875 95.681353 107.31696 96.006543 C 108.09022 97.250512 107.49176 97.570402 107.29113 99.227535 C 107.94912 101.22671 109.67911 103.07994 110.94413 104.72694 C 113.64707 104.72894 115.99408 104.70443 118.53282 104.68973 C 120.12158 102.1961 122.98578 100.27365 122.52017 96.942403 C 122.61687 94.194926 122.29569 91.803341 122.52017 89.410563 C 121.65113 90.109872 121.57567 86.697455 119.94772 85.4599 C 118.30196 84.792838 116.20734 85.187528 114.07624 85.012899 C 112.14738 83.763851 114.47305 81.225169 116.03736 82.404272 C 115.68695 85.145871 119.10097 83.769829 120.96833 84.081173 C 123.26897 84.081252 121.93473 80.107294 121.94398 78.625175 C 121.15399 77.371096 119.68735 75.585213 119.40718 75.278092 C 119.08277 74.285057 118.24643 74.033265 117.24711 74.023905 z M 193.7861 74.123124 C 190.87445 74.129324 187.84123 74.165476 185.36491 74.130876 C 184.67013 74.901009 185.52504 73.998875 184.05285 74.130876 C 184.03315 76.531976 183.87811 78.991914 184.05285 81.472546 C 185.03949 80.119247 185.24063 83.056191 185.2874 84.308549 C 185.55341 86.120833 185.07581 87.621743 185.39023 89.559391 C 185.23485 91.586064 185.17391 94.465754 185.49307 95.969336 C 184.09706 97.037947 183.32729 98.241687 183.82082 100.70135 C 183.51375 103.14006 183.54325 105.74927 186.77051 104.72694 C 188.60093 104.73874 190.50331 104.58539 192.19705 104.72694 C 194.1789 104.5463 197.00669 105.5161 197.76364 103.16166 C 199.42726 101.22767 200.91716 99.024629 200.36193 96.313501 C 200.39203 92.083623 200.40873 87.496124 200.28493 83.149447 C 198.67793 82.207555 201.10522 82.884621 200.51644 80.652958 C 200.32407 77.975862 197.87343 76.392017 196.63193 74.130876 C 195.71343 74.122576 194.75666 74.121124 193.7861 74.123124 z M 187.41647 75.786072 C 186.95625 77.743415 191.15542 76.296209 192.67816 76.739502 C 194.11756 76.891524 194.0204 76.012836 195.08887 76.888847 C 196.87147 76.853737 197.8438 79.990832 198.89587 81.33147 C 198.6673 84.363836 198.75394 88.432035 198.74187 91.917904 C 198.42587 94.855931 199.73961 98.357612 197.1983 100.51583 C 195.94421 103.3569 193.07364 101.76983 190.55943 102.15552 C 188.88238 101.77214 185.35989 103.37196 185.95661 100.48327 C 186.6108 99.114233 187.86171 97.928174 187.24283 95.596749 C 187.30703 93.141553 186.98987 91.506164 187.26867 89.23693 C 186.90328 86.955081 187.74386 84.056584 186.93381 81.733512 C 186.60269 81.964498 187.91886 80.849594 186.62995 79.571887 C 185.81621 79.883944 186.90112 81.056967 185.62174 80.466406 C 186.75455 78.665819 184.50513 78.032265 186.18864 76.739502 C 188.02492 76.887126 186.01978 76.364873 187.41647 75.786072 z M 101.34834 76.032052 C 101.75382 76.931413 104.09679 76.619342 103.63864 78.155953 C 104.26376 79.870137 101.0391 79.250499 102.37773 80.429199 C 101.07783 80.303696 102.30803 83.10829 101.7602 84.193311 C 101.86449 86.358707 101.93049 88.604696 101.88887 90.900911 C 102.01378 92.71098 101.73446 95.028752 102.04338 96.901062 C 102.46605 97.65635 101.2983 99.07874 102.65575 99.285929 C 104.40225 100.28221 103.18494 103.30576 100.86413 102.1178 C 98.505324 102.78665 96.865711 101.68764 98.055514 99.285929 C 100.58813 99.333099 98.719145 95.307135 99.29058 93.618058 C 99.15115 89.129948 99.567996 84.48495 99.084908 80.093819 C 97.802192 80.034229 97.465158 78.561562 97.978516 77.038192 C 98.61176 75.970856 101.30555 77.499898 101.34834 76.032052 z M 47.070512 76.048071 C 47.927738 77.234618 51.090157 75.465661 50.440332 77.783366 C 51.076208 79.054842 48.663781 80.136653 50.260498 81.062752 C 49.588364 80.72588 47.904844 80.847752 48.639925 83.385091 C 48.759639 85.151189 48.737965 86.666111 48.691085 88.403906 C 48.928678 89.774623 48.19643 91.772487 48.922595 93.062537 C 48.658111 94.267704 48.703781 95.332819 48.639925 96.963074 C 48.925597 99.125476 46.796014 100.52511 45.964636 102.15552 C 43.983291 101.76138 41.176991 102.92569 39.675098 101.61964 C 38.046062 99.685964 36.804444 97.549591 37.320719 94.934774 C 37.183892 89.771156 37.59458 84.452757 37.115047 79.385852 C 35.360695 80.111119 35.261779 76.982779 36.33835 76.740019 C 37.68135 76.375665 39.025616 77.146171 40.176359 76.292501 C 41.909603 77.568463 40.37149 79.29789 39.91901 80.429199 C 40.137075 82.253781 39.597367 83.725101 39.944849 85.422693 C 39.994419 88.230341 39.900697 91.199922 40.021847 94.068677 C 40.753034 93.505678 39.07961 97.076132 40.348442 98.307178 C 41.373392 96.552839 40.700117 98.261779 41.231075 99.099377 C 41.65895 99.008008 41.886868 98.943649 42.025342 98.897839 C 41.927752 98.971099 41.864401 99.098162 42.100789 99.285929 C 45.064221 100.12237 46.731976 97.591619 46.170308 94.793697 C 45.822728 94.232746 46.2751 92.722088 46.170308 91.795431 C 45.907384 89.396578 46.303163 87.477898 46.14447 84.603105 C 45.807367 83.052766 46.82804 80.570492 45.733126 79.571887 C 44.4694 78.496535 45.107955 75.797853 46.967676 76.329708 L 46.993514 76.18088 L 47.070512 76.048071 z M 112.3394 76.51626 L 112.33991 76.51626 C 113.25188 76.60219 114.43601 77.386799 115.11132 76.553467 C 116.05807 77.449642 117.65023 76.353288 118.65632 77.447986 C 118.91499 77.032295 119.45953 80.045499 120.71925 80.876717 C 120.0828 82.906636 117.17816 81.360886 116.83473 79.572404 C 115.55987 79.707846 112.60562 78.784994 111.93064 80.826074 C 111.40035 82.734186 110.88125 86.013616 112.53887 87.43549 C 113.94075 87.658209 115.0807 87.383073 116.34639 87.398283 C 117.56106 88.028006 119.06776 86.568283 119.56169 88.516044 C 119.72642 88.702361 120.07746 89.232086 120.5389 90.536593 C 120.5689 93.374695 120.4992 96.46476 120.64225 98.950549 C 119.87859 98.875099 118.89987 101.24981 117.83777 101.89456 C 115.98764 102.41532 113.20799 101.98736 111.43247 102.08111 C 110.67298 100.12298 108.04869 98.754979 109.16853 96.453544 C 111.01443 95.78741 111.80396 97.16407 112.51871 98.922127 C 113.83436 100.21353 116.19173 99.107335 116.78305 99.174308 C 117.80357 98.204669 118.23482 95.981617 118.0698 93.919332 C 117.02993 93.909332 118.65151 92.255431 118.0698 91.12467 C 117.64178 89.618189 114.87409 89.542115 113.98684 90.586202 C 114.25037 89.915975 112.05181 90.129291 111.02165 89.857564 C 107.90094 88.632862 109.8586 83.779944 108.14017 82.85179 C 108.01419 83.313334 108.23665 80.781603 108.19185 80.541337 C 109.02894 79.788957 108.61278 83.107883 109.06724 80.578544 C 109.38101 79.306238 111.25676 77.361291 112.17972 76.628398 L 112.3394 76.51626 z M 193.73546 79.504191 C 193.56816 79.498191 193.40083 79.519447 193.23678 79.571887 L 190.1238 79.571887 C 189.18901 82.593878 189.96829 86.123416 189.71245 89.346484 C 189.8425 92.600557 189.45885 96.01465 189.89229 99.174308 C 190.86915 100.03733 192.31557 98.454708 191.9764 98.354203 C 193.19242 97.655436 194.57121 100.64976 195.58186 98.260152 C 196.43455 95.60462 195.65266 92.295913 196.09191 89.44777 C 195.90483 87.116867 195.97017 84.64517 196.09191 82.396004 C 196.07541 80.930408 194.90659 79.546316 193.73546 79.504191 z M 151.53752 79.571887 C 151.20103 81.006524 150.36412 83.054777 151.43468 84.230001 C 150.44522 82.889213 150.21691 85.271445 149.78827 86.99624 C 149.76107 88.154851 148.23821 90.998667 150.25129 90.900911 C 151.12704 91.255755 153.58489 90.755167 152.07754 89.931978 C 152.82465 89.568188 152.72284 91.12509 153.31261 89.78315 C 153.92065 92.669691 154.47269 88.15183 153.44128 87.658732 C 153.1356 86.257414 153.29758 84.075249 152.20621 82.888481 C 151.66114 82.912011 152.69958 81.508186 151.82122 80.838993 C 152.27351 80.677484 151.90902 79.810373 151.53752 79.571887 z M 193.34427 81.951587 C 193.46424 81.946387 193.59112 81.947971 193.72513 81.957271 C 194.48123 82.869572 194.21522 84.433316 194.13699 85.422693 C 193.97467 89.22227 194.4566 93.222646 193.90548 96.901062 C 191.70618 97.76439 191.00633 95.619551 191.51286 93.51884 C 191.39636 90.596656 191.74804 87.180055 191.33302 84.565898 C 191.28442 83.659102 191.54479 82.028888 193.34427 81.951587 z M 145.65778 90.405851 C 144.34405 90.486551 145.23797 92.360328 144.97668 92.615019 C 143.52032 92.703019 145.05828 96.057013 144.48834 95.000403 C 143.63293 93.098219 144.47824 97.694126 142.67191 96.901062 C 140.97203 96.980442 142.91614 99.370215 142.09572 99.882275 C 141.56626 101.27401 141.90981 103.27814 142.17272 104.72694 C 143.91375 104.17867 144.46578 105.11834 146.4691 104.50318 C 147.8654 105.07435 150.43065 104.66893 150.45593 104.31715 C 150.75973 102.53569 150.11265 100.3525 150.1991 99.248722 C 151.57088 98.448493 148.58868 96.948374 149.50457 95.559542 C 150.93735 95.146258 154.60095 94.516531 153.82627 97.124304 C 152.09178 96.985407 153.5229 98.721298 152.74572 98.503548 C 153.11477 101.42353 152.72504 101.21769 152.77104 104.6148 C 153.81373 104.5548 156.31767 105.22995 157.17025 104.35435 C 156.77176 103.33864 158.02006 105.30369 158.71331 104.50318 C 158.92927 104.46258 160.1477 104.83019 160.91421 104.66493 C 161.1624 104.69013 161.42525 104.66693 161.5674 104.43807 C 161.78248 104.21226 161.79177 103.89209 161.81855 103.59833 C 161.83755 103.17528 161.75977 102.74848 161.85007 102.32967 C 161.89207 101.75036 161.67957 101.19515 161.63044 100.6228 C 161.55814 100.3155 161.51105 100.01107 161.55293 99.69469 C 161.56653 99.136527 161.61544 98.580042 161.60564 98.021407 C 161.60864 97.891357 161.60964 97.760884 161.60616 97.630733 C 161.61416 97.576233 161.61112 97.513935 161.59582 97.441081 C 161.59182 97.389921 161.58587 97.339044 161.57877 97.288118 C 161.56157 97.267859 161.54331 97.249685 161.52451 97.232825 C 161.48561 97.144295 161.43461 97.047176 161.36379 96.938269 C 161.28099 96.980399 161.21743 97.021599 161.15399 97.062809 C 160.99674 97.027899 160.83079 97.012069 160.68167 96.959456 C 160.25632 96.78789 159.69958 96.917726 159.47812 97.342896 C 159.45012 97.426765 159.41902 97.510511 159.38872 97.595076 C 159.48542 96.933092 159.56952 96.111243 159.22904 96.454061 C 159.28714 97.642224 157.28847 99.371938 159.50189 99.286446 C 159.76858 99.433443 159.95787 99.410387 160.08635 99.288513 C 160.10625 99.334573 160.11694 99.384433 160.12304 99.437341 C 160.07454 99.460301 160.03514 99.471365 159.97473 99.510205 C 159.88593 99.989222 159.58508 101.28455 160.16852 101.29614 C 160.0304 101.58906 159.84905 101.93399 159.74736 102.17878 C 159.08211 101.98577 156.6459 102.18681 155.93829 102.11831 C 153.7234 101.65893 154.92826 101.56376 153.36325 102.11831 C 152.63427 101.01863 154.8261 102.619 154.2371 100.29259 C 155.04357 98.957008 156.91305 99.014482 155.60032 96.901579 C 155.05801 95.633291 155.64972 92.875487 153.48004 93.361226 C 151.90592 93.566078 150.13274 93.233834 148.65501 93.510571 C 147.66391 94.677752 147.76558 96.800005 147.31711 98.057064 C 148.02086 97.819435 146.43422 99.595556 147.31711 99.025997 C 147.18457 98.725923 148.40597 99.772465 149.11803 100.06986 C 148.64498 101.67014 147.79396 102.63999 145.64951 102.11831 C 143.58932 103.43385 144.1164 100.47486 142.81506 101.18711 C 142.74516 100.63453 144.11135 99.329512 145.02112 98.962435 C 144.17976 97.843468 144.38369 98.422964 145.02681 97.871029 C 146.02515 97.592552 144.94551 94.303113 145.82469 95.672196 C 146.69767 93.820143 145.5905 93.278032 146.20968 93.100777 C 146.53995 92.376352 147.36906 89.956298 146.36523 90.864738 L 146.36626 90.491117 C 146.07873 90.419447 145.846 90.394471 145.65829 90.405851 L 145.65778 90.405851 z M 158.69936 94.461934 C 158.65986 94.469434 158.61386 94.486531 158.56035 94.515161 C 158.50305 96.63869 157.26984 93.673365 157.78882 96.192061 C 157.84602 94.478322 157.85772 97.426625 158.63735 96.527958 C 158.38446 95.61208 160.17056 95.845092 159.05076 94.999886 C 158.94053 94.825615 158.97566 94.409742 158.69936 94.461934 z M 82.449231 108.5448 C 79.512855 108.5448 77.148779 110.90835 77.148779 113.84473 C 77.148779 116.78112 79.512855 119.14518 82.449231 119.14518 L 130.71864 119.14518 C 133.655 119.14518 136.01909 116.78112 136.01909 113.84473 C 136.01909 110.90835 133.655 108.5448 130.71864 108.5448 L 82.449231 108.5448 z M 88.944442 110.60927 L 89.753178 110.60927 L 89.753178 117.08019 L 88.462301 117.08019 L 88.462301 112.5213 L 87.931067 112.5213 L 87.931067 111.76114 L 87.98016 111.74512 C 88.268846 111.66882 88.48962 111.53245 88.642135 111.33636 C 88.800093 111.13482 88.898044 110.91457 88.936174 110.6749 L 88.944442 110.60927 z M 94.924955 110.60927 L 96.15072 110.60927 L 96.15072 116.06733 L 95.137862 117.08019 L 93.634078 117.08019 L 92.612952 116.06733 L 92.612952 115.03794 L 93.846468 115.03794 L 93.846468 115.50354 L 94.197868 115.85494 L 94.574072 115.85494 L 94.924955 115.50354 L 94.924955 110.60927 z M 98.250334 110.60927 L 99.549479 110.60927 L 100.8326 117.08019 L 99.574284 117.08019 L 99.492635 116.63112 L 98.299426 116.63112 L 98.209509 117.08019 L 96.967725 117.08019 L 98.250334 110.60927 z M 101.64961 110.60927 L 102.85884 110.60927 L 104.25565 113.77962 L 104.25565 110.60927 L 105.48142 110.60927 L 105.48142 117.08019 L 104.28046 117.08019 L 102.87486 113.90209 L 102.87486 117.08019 L 101.64961 117.08019 L 101.64961 110.60927 z M 109.35405 110.60927 L 110.16278 110.60927 L 110.1633 117.08019 L 108.87191 117.08019 L 108.87191 112.5213 L 108.34119 112.5213 L 108.34119 111.76114 L 108.39028 111.74512 C 108.67896 111.66882 108.89923 111.53245 109.05174 111.33636 C 109.20971 111.13482 109.30768 110.91457 109.34578 110.6749 L 109.35405 110.60927 z M 112.05052 110.60927 L 114.11758 110.60927 L 115.1878 111.67949 L 115.1878 116.00997 L 114.11758 117.08019 L 112.05052 117.08019 L 110.98031 116.00997 L 110.98031 115.08652 L 112.27118 115.08652 L 112.27118 115.47099 L 112.58951 115.78105 L 113.58635 115.78105 L 113.89692 115.47099 L 113.89692 114.49017 L 112.06654 114.49017 L 110.98031 113.40341 L 110.98031 111.67949 L 112.05052 110.60927 z M 116.00481 110.60927 L 119.86142 110.60927 L 120.20455 111.90841 L 118.0884 117.08019 L 116.69107 117.08019 L 118.80722 111.90841 L 117.30395 111.90841 L 117.30395 112.61121 L 116.00481 112.61121 L 116.00481 110.60927 z M 122.09177 110.60927 L 124.1671 110.60927 L 125.23732 111.67949 L 125.23732 116.00997 L 124.1671 117.08019 L 122.09177 117.08019 L 121.02155 116.00997 L 121.02155 111.67949 L 122.09177 110.60927 z M 112.58951 111.90841 L 112.27118 112.21899 L 112.27118 112.8727 L 112.60605 113.19929 L 113.89692 113.19929 L 113.89692 112.21899 L 113.58635 111.90841 L 112.58951 111.90841 z M 122.63127 111.90841 L 122.3207 112.21899 L 122.3207 115.47099 L 122.63127 115.78931 L 123.62811 115.78931 L 123.93869 115.47099 L 123.93869 112.21899 L 123.62811 111.90841 L 122.63127 111.90841 z M 81.239486 113.23185 L 85.071293 113.23185 L 85.071293 114.45761 L 81.239486 114.45761 L 81.239486 113.23185 z M 128.09657 113.23185 L 131.9289 113.23185 L 131.9289 114.45761 L 128.09657 114.45761 L 128.09657 113.23185 z M 98.896289 113.64061 L 98.544889 115.41363 L 99.247172 115.41363 L 98.896289 113.64061 z " />
  <metadata
     id="metadata9022">
    <rdf:RDF>
      <cc:License
         rdf:about="http://creativecommons.org/publicdomain/zero/1.0/">
        <cc:permits
           rdf:resource="http://creativecommons.org/ns#Reproduction" />
        <cc:permits
           rdf:resource="http://creativecommons.org/ns#Distribution" />
        <cc:permits
           rdf:resource="http://creativecommons.org/ns#DerivativeWorks" />
      </cc:License>
      <cc:Work
         rdf:about="">
        <cc:license
           rdf:resource="http://creativecommons.org/publicdomain/zero/1.0/" />
        <dc:title>Undefined States of Null Island</dc:title>
        <dc:creator>
          <cc:Agent>
            <dc:title>yetzt</dc:title>
          </cc:Agent>
        </dc:creator>
      </cc:Work>
    </rdf:RDF>
  </metadata>
</svg>
